<?xml version="1.0" encoding="iso-8859-1"?>
<!-- Generator: Adobe Illustrator 9.0, SVG Export Plug-In  -->
<!DOCTYPE svg PUBLIC "-//W3C//DTD SVG 20000303 Stylable//EN"   "http://www.w3.org/TR/2000/03/WD-SVG-20000303/DTD/svg-20000303-stylable.dtd" [
	<!ENTITY st0 "fill:#169133;">
	<!ENTITY st1 "font-size:17.3548;">
	<!ENTITY st2 "fill:none;stroke:#000000;stroke-width:2.862;stroke-miterlimit:10;">
	<!ENTITY st3 "fill-rule:evenodd;clip-rule:evenodd;fill:#F96611;stroke:#F96611;stroke-width:0.5051;stroke-linecap:round;stroke-linejoin:round;stroke-miterlimit:10;">
	<!ENTITY st4 "font-size:11.2795;">
	<!ENTITY st5 "fill-rule:evenodd;clip-rule:evenodd;fill:#808080;">
	<!ENTITY st6 "fill:none;stroke:#000000;stroke-width:0.6734;stroke-miterlimit:10;">
	<!ENTITY st7 "fill:none;stroke:#000000;stroke-width:2.862;stroke-linejoin:round;stroke-miterlimit:10;stroke-dasharray:2.7778 2.9461;">
	<!ENTITY st8 "fill:#FB0F0C;">
	<!ENTITY st9 "fill-rule:evenodd;clip-rule:evenodd;">
	<!ENTITY st10 "font-size:11.627;">
	<!ENTITY st11 "fill:#FFFFFF;">
	<!ENTITY st12 "font-size:16.835;">
	<!ENTITY st13 "font-size:12.6251;">
	<!ENTITY st14 "fill:none;stroke:#000000;stroke-width:2.862;stroke-linejoin:round;stroke-miterlimit:10;">
	<!ENTITY st15 "font-family:'Helvetica';font-weight:bold;">
	<!ENTITY st16 "fill-rule:evenodd;clip-rule:evenodd;fill:#C0C0C0;stroke:#C0C0C0;stroke-width:0.5051;stroke-linecap:round;stroke-linejoin:round;stroke-miterlimit:10;">
	<!ENTITY st17 "fill-rule:evenodd;clip-rule:evenodd;fill:#9A9999;">
	<!ENTITY st18 "fill-rule:nonzero;clip-rule:nonzero;stroke:#000000;stroke-miterlimit:4;">
	<!ENTITY st19 "stroke:none;">
	<!ENTITY st20 "fill-rule:evenodd;clip-rule:evenodd;stroke:#000000;stroke-width:0.6734;stroke-linecap:round;stroke-miterlimit:10;">
	<!ENTITY st21 "fill:none;stroke:#000000;stroke-width:2.862;stroke-linecap:round;stroke-miterlimit:10;">
]>
<svg  width="252.089pt" height="309.26pt" viewBox="0 0 252.089 309.26" xml:space="preserve">
	<g id="Calque_x0020_1" style="&st18; &st15; &st4;">
		<g style="&st19;">
			<path style="&st21;" d="M160.017,226.685l-31.986,7.238l31.986,7.238l31.986-7.238l-31.986-7.238z"/>
			<path style="&st2;" d="M193.35,233.923h28.956V84.597h-6.061"/>
			<path style="&st9;" d="M216.413,79.041l-11.279,5.724l11.279,5.556V79.041z"/>
			<path style="&st14;" d="M160.185,155.641v5.387"/>
			<path style="&st9;" d="M154.629,161.027l5.724,11.279l5.557-11.279h-11.28z"/>
			<path style="&st2;" d="M160.017,242.509v14.309h0.168v4.547"/>
			<path style="&st9;" d="M154.629,261.365l5.724,11.279l5.557-11.279h-11.28z"/>
			<path style="&st2;" d="M160.017,242.509v16.498h33.67"/>
			<path style="&st9;" d="M193.687,264.732l11.111-5.557l-11.111-5.723v11.279z"/>
			<text transform="matrix(1 0 0 1 169.8643 253.1987)"><tspan x="0" y="0" style="&st0;">O</tspan></text>
			<text transform="matrix(1 0 0 1 178.5947 253.1987)"><tspan x="0" y="0" style="&st0;">K</tspan></text>
			<text transform="matrix(1 0 0 1 189.8984 229.2944)"><tspan x="0" y="0" style="&st8;">K</tspan></text>
			<text transform="matrix(1 0 0 1 198.0029 229.2944)"><tspan x="0" y="0" style="&st8;">O</tspan></text>
			<text transform="matrix(0.9701 0 -0.2425 0.9701 207.4072 262.9644)"><tspan x="0" y="0" style="&st10;">S</tspan></text>
			<text transform="matrix(0.9701 0 -0.2425 0.9701 214.8926 262.9644)"><tspan x="0" y="0" style="&st10;">i</tspan></text>
			<text transform="matrix(0.9701 0 -0.2425 0.9701 218.0479 262.9644)"><tspan x="0" y="0" style="&st10;">g</tspan></text>
			<text transform="matrix(0.9701 0 -0.2425 0.9701 224.8818 262.9644)"><tspan x="0" y="0" style="&st10;">n</tspan></text>
			<text transform="matrix(0.9701 0 -0.2425 0.9701 231.7939 262.9644)"><tspan x="0" y="0" style="&st10;">-</tspan></text>
			<text transform="matrix(0.9701 0 -0.2425 0.9701 235.5088 262.9644)"><tspan x="0" y="0" style="&st10;">o</tspan></text>
			<text transform="matrix(0.9701 0 -0.2425 0.9701 242.4053 262.9644)"><tspan x="0" y="0" style="&st10;">f</tspan></text>
			<text transform="matrix(0.9701 0 -0.2425 0.9701 246.1357 262.9644)"><tspan x="0" y="0" style="&st10;">f</tspan></text>
			<path style="&st16;" d="M124.831,66.415c-5.556,0-9.933,4.377-9.933,9.764v16.835c0,5.388,4.377,9.765,9.933,9.765h70.539c5.387,0,9.764-4.377,9.764-9.765V76.179c0-5.387-4.377-9.764-9.764-9.764h-70.539z"/>
			<text transform="matrix(1 0 0 1 141.582 81.4824)"><tspan x="0" y="0">T</tspan></text>
			<text transform="matrix(1 0 0 1 148.2393 81.4824)"><tspan x="0" y="0">i</tspan></text>
			<text transform="matrix(1 0 0 1 151.5898 81.4824)"><tspan x="0" y="0">m</tspan></text>
			<text transform="matrix(1 0 0 1 161.3525 81.4824)"><tspan x="0" y="0">i</tspan></text>
			<text transform="matrix(1 0 0 1 164.7373 81.4824)"><tspan x="0" y="0">n</tspan></text>
			<text transform="matrix(1 0 0 1 171.3418 81.4824)"><tspan x="0" y="0">g</tspan></text>
			<text transform="matrix(1 0 0 1 128.7871 94.9502)"><tspan x="0" y="0">C</tspan></text>
			<text transform="matrix(1 0 0 1 136.8926 94.9502)"><tspan x="0" y="0">o</tspan></text>
			<text transform="matrix(1 0 0 1 143.7881 94.9502)"><tspan x="0" y="0">n</tspan></text>
			<text transform="matrix(1 0 0 1 150.6377 94.9502)"><tspan x="0" y="0">s</tspan></text>
			<text transform="matrix(1 0 0 1 156.9209 94.9502)"><tspan x="0" y="0">t</tspan></text>
			<text transform="matrix(1 0 0 1 160.6484 94.9502)"><tspan x="0" y="0">r</tspan></text>
			<text transform="matrix(1 0 0 1 165.0439 94.9502)"><tspan x="0" y="0">a</tspan></text>
			<text transform="matrix(1 0 0 1 171.2803 94.9502)"><tspan x="0" y="0">i</tspan></text>
			<text transform="matrix(1 0 0 1 174.4355 94.9502)"><tspan x="0" y="0">n</tspan></text>
			<text transform="matrix(1 0 0 1 181.2695 94.9502)"><tspan x="0" y="0">t</tspan></text>
			<text transform="matrix(1 0 0 1 185.0625 94.9502)"><tspan x="0" y="0">s</tspan></text>
			<path style="&st14;" d="M160.185,102.778v5.388"/>
			<path style="&st9;" d="M154.629,108.166l5.724,11.279l5.557-11.279h-11.28z"/>
			<path style="&st2;" d="M160.185,208.671v5.387"/>
			<path style="&st9;" d="M154.629,214.058l5.388,11.447l5.893-11.279l-11.28-0.168z"/>
			<path style="&st6;" d="M205.892,19.276c0,10.46-46.016,18.939-102.778,18.939S0.336,29.736,0.336,19.276S46.352,0.337,103.114,0.337s102.778,8.479,102.778,18.939z"/>
			<text transform="matrix(1 0 0 1 64.3091 23.2334)"><tspan x="0" y="0" style="&st13;">Design Entry</tspan></text>
			<path style="&st3;" d="M124.831,119.276c-5.556,0-9.933,4.378-9.933,9.765v16.835c0,5.388,4.377,9.765,9.933,9.765h70.539c5.387,0,9.764-4.377,9.764-9.765v-16.835c0-5.387-4.377-9.765-9.764-9.765h-70.539z"/>
			<text transform="matrix(1 0 0 1 136.3633 141.0781)"><tspan x="0" y="0">S</tspan></text>
			<text transform="matrix(1 0 0 1 143.8486 141.0781)"><tspan x="0" y="0">T</tspan></text>
			<text transform="matrix(1 0 0 1 149.9102 141.0781)"><tspan x="0" y="0">A</tspan></text>
			<text transform="matrix(1 0 0 1 158.4307 141.0781)"><tspan x="0" y="0"> </tspan></text>
			<text transform="matrix(1 0 0 1 161.1748 141.0781)"><tspan x="0" y="0">&amp;</tspan></text>
			<text transform="matrix(1 0 0 1 169.6699 141.0781)"><tspan x="0" y="0"> </tspan></text>
			<text transform="matrix(1 0 0 1 172.4385 141.0781)"><tspan x="0" y="0">S</tspan></text>
			<text transform="matrix(1 0 0 1 180.29 141.0781)"><tspan x="0" y="0">I</tspan></text>
			<path style="&st3;" d="M124.831,172.139c-5.556,0-9.933,4.377-9.933,9.933v16.834c0,5.389,4.377,9.766,9.933,9.766h70.539c5.387,0,9.764-4.377,9.764-9.766v-16.834c0-5.556-4.377-9.933-9.764-9.933h-70.539z"/>
			<text transform="matrix(1 0 0 1 123.2314 194.1089)"><tspan x="0" y="0">P</tspan></text>
			<text transform="matrix(1 0 0 1 130.7178 194.1089)"><tspan x="0" y="0">a</tspan></text>
			<text transform="matrix(1 0 0 1 136.9971 194.1089)"><tspan x="0" y="0">t</tspan></text>
			<text transform="matrix(1 0 0 1 140.7275 194.1089)"><tspan x="0" y="0">h</tspan></text>
			<text transform="matrix(1 0 0 1 147.6084 194.1089)"><tspan x="0" y="0"> </tspan></text>
			<text transform="matrix(1 0 0 1 150.3232 194.1089)"><tspan x="0" y="0">A</tspan></text>
			<text transform="matrix(1 0 0 1 158.8477 194.1089)"><tspan x="0" y="0">n</tspan></text>
			<text transform="matrix(1 0 0 1 165.3242 194.1089)"><tspan x="0" y="0">a</tspan></text>
			<text transform="matrix(1 0 0 1 171.9795 194.1089)"><tspan x="0" y="0">l</tspan></text>
			<text transform="matrix(1 0 0 1 174.7158 194.1089)"><tspan x="0" y="0">y</tspan></text>
			<text transform="matrix(1 0 0 1 181.3545 194.1089)"><tspan x="0" y="0">s</tspan></text>
			<text transform="matrix(1 0 0 1 187.2305 194.1089)"><tspan x="0" y="0">i</tspan></text>
			<text transform="matrix(1 0 0 1 190.7461 194.1089)"><tspan x="0" y="0">s</tspan></text>
			<path style="&st3;" d="M124.831,272.476c-5.556,0-9.933,4.377-9.933,9.932v16.668c0,5.555,4.377,9.932,9.933,9.932h70.539c5.387,0,9.764-4.377,9.764-9.932v-16.668c0-5.555-4.377-9.932-9.764-9.932h-70.539z"/>
			<text transform="matrix(1 0 0 1 141.582 287.5425)"><tspan x="0" y="0">T</tspan></text>
			<text transform="matrix(1 0 0 1 148.2393 287.5425)"><tspan x="0" y="0">i</tspan></text>
			<text transform="matrix(1 0 0 1 151.5898 287.5425)"><tspan x="0" y="0">m</tspan></text>
			<text transform="matrix(1 0 0 1 161.3525 287.5425)"><tspan x="0" y="0">i</tspan></text>
			<text transform="matrix(1 0 0 1 164.7373 287.5425)"><tspan x="0" y="0">n</tspan></text>
			<text transform="matrix(1 0 0 1 171.3418 287.5425)"><tspan x="0" y="0">g</tspan></text>
			<text transform="matrix(1 0 0 1 128.7871 301.0112)"><tspan x="0" y="0">A</tspan></text>
			<text transform="matrix(1 0 0 1 136.8926 301.0112)"><tspan x="0" y="0">b</tspan></text>
			<text transform="matrix(1 0 0 1 143.7881 301.0112)"><tspan x="0" y="0">s</tspan></text>
			<text transform="matrix(1 0 0 1 150.0244 301.0112)"><tspan x="0" y="0">t</tspan></text>
			<text transform="matrix(1 0 0 1 153.7988 301.0112)"><tspan x="0" y="0">r</tspan></text>
			<text transform="matrix(1 0 0 1 158.1475 301.0112)"><tspan x="0" y="0">a</tspan></text>
			<text transform="matrix(1 0 0 1 164.4307 301.0112)"><tspan x="0" y="0">c</tspan></text>
			<text transform="matrix(1 0 0 1 170.6631 301.0112)"><tspan x="0" y="0">t</tspan></text>
			<text transform="matrix(1 0 0 1 174.4404 301.0112)"><tspan x="0" y="0">i</tspan></text>
			<text transform="matrix(1 0 0 1 177.5381 301.0112)"><tspan x="0" y="0">o</tspan></text>
			<text transform="matrix(1 0 0 1 184.4307 301.0112)"><tspan x="0" y="0">n</tspan></text>
			<path style="&st7;" d="M222.138,82.576V20.287"/>
			<path style="&st14;" d="M222.138,18.939l-4.883,0.169"/>
			<path style="&st9;" d="M217.087,13.553l-10.943,5.893l11.28,5.387l-0.337-11.279z"/>
			<path style="&st3;" d="M11.531,71.297c-5.387,0-9.764,4.377-9.764,9.765v16.835c0,5.387,4.377,9.933,9.764,9.933h47.812c5.387,0,9.764-4.546,9.764-9.933V81.062c0-5.388-4.377-9.765-9.764-9.765H11.531z"/>
			<text transform="matrix(0.9701 0 -0.2425 0.9701 12.4575 94.7822)"><tspan x="0" y="0" style="&st11; &st1;">HiT</tspan></text>
			<text transform="matrix(0.9701 0 -0.2425 0.9701 38.3345 94.7822)"><tspan x="0" y="0" style="&st11; &st1;">as</tspan></text>
			<path style="&st20;" d="M85.016,90.236v45.791v82.828v45.793l16.33-87.207l-16.33-87.205z"/>
			<path style="&st20;" d="M67.171,50.674H50.504H20.202H3.535l31.818,10.27l31.818-10.27z"/>
			<path style="&st20;" d="M67.171,117.846H50.504H20.202H3.535l31.818,10.27l31.818-10.27z"/>
			<path style="&st5;" d="M35.353,139.395c-17.845,0-32.323,2.862-32.323,6.397v154.545c0,3.703,14.478,6.566,32.323,6.566s32.492-2.863,32.492-6.566V145.792c0-3.535-14.646-6.397-32.492-6.397z"/>
			<path style="&st17;" d="M3.03,145.792c0,3.535,14.478,6.565,32.323,6.565s32.492-3.03,32.492-6.565s-14.646-6.397-32.492-6.397S3.03,142.257,3.03,145.792z"/>
			<text transform="matrix(1 0 0 1 18.0127 203.8726)"><tspan x="0" y="0" style="&st11; &st12;">UTD</tspan></text>
			<text transform="matrix(1 0 0 1 16.3296 234.1753)"><tspan x="0" y="0" style="&st11;">U</tspan></text>
			<text transform="matrix(1 0 0 1 24.4346 234.1753)"><tspan x="0" y="0" style="&st11;">n</tspan></text>
			<text transform="matrix(1 0 0 1 31.3306 234.1753)"><tspan x="0" y="0" style="&st11;">i</tspan></text>
			<text transform="matrix(1 0 0 1 34.4424 234.1753)"><tspan x="0" y="0" style="&st11;">fi</tspan></text>
			<text transform="matrix(1 0 0 1 41.3203 234.1753)"><tspan x="0" y="0" style="&st11;">e</tspan></text>
			<text transform="matrix(1 0 0 1 47.5742 234.1753)"><tspan x="0" y="0" style="&st11;">d</tspan></text>
			<text transform="matrix(1 0 0 1 17.0029 247.644)"><tspan x="0" y="0" style="&st11;">T</tspan></text>
			<text transform="matrix(1 0 0 1 23.6602 247.644)"><tspan x="0" y="0" style="&st11;">i</tspan></text>
			<text transform="matrix(1 0 0 1 27.0107 247.644)"><tspan x="0" y="0" style="&st11;">m</tspan></text>
			<text transform="matrix(1 0 0 1 36.7729 247.644)"><tspan x="0" y="0" style="&st11;">i</tspan></text>
			<text transform="matrix(1 0 0 1 40.1582 247.644)"><tspan x="0" y="0" style="&st11;">n</tspan></text>
			<text transform="matrix(1 0 0 1 46.7627 247.644)"><tspan x="0" y="0" style="&st11;">g</tspan></text>
			<text transform="matrix(1 0 0 1 10.437 261.1108)"><tspan x="0" y="0" style="&st11;">D</tspan></text>
			<text transform="matrix(1 0 0 1 18.542 261.1108)"><tspan x="0" y="0" style="&st11;">a</tspan></text>
			<text transform="matrix(1 0 0 1 24.8247 261.1108)"><tspan x="0" y="0" style="&st11;">t</tspan></text>
			<text transform="matrix(1 0 0 1 28.5527 261.1108)"><tspan x="0" y="0" style="&st11;">a</tspan></text>
			<text transform="matrix(1 0 0 1 34.8228 261.1108)"><tspan x="0" y="0" style="&st11;">b</tspan></text>
			<text transform="matrix(1 0 0 1 41.6816 261.1108)"><tspan x="0" y="0" style="&st11;">a</tspan></text>
			<text transform="matrix(1 0 0 1 47.9546 261.1108)"><tspan x="0" y="0" style="&st11;">s</tspan></text>
			<text transform="matrix(1 0 0 1 54.1963 261.1108)"><tspan x="0" y="0" style="&st11;">e</tspan></text>
		</g>
	</g>
</svg>
