<?xml version="1.0" encoding="iso-8859-1"?>
<!-- Generator: Adobe Illustrator 9.0, SVG Export Plug-In  -->
<!DOCTYPE svg PUBLIC "-//W3C//DTD SVG 20000303 Stylable//EN"   "http://www.w3.org/TR/2000/03/WD-SVG-20000303/DTD/svg-20000303-stylable.dtd" [
	<!ENTITY st0 "fill-rule:nonzero;clip-rule:nonzero;">
	<!ENTITY st1 "fill:#FFFFFF;">
	<!ENTITY st2 "font-size:8.6489;">
	<!ENTITY st3 "font-family:'Helvetica';">
	<!ENTITY st4 "fill-rule:evenodd;clip-rule:evenodd;stroke:none;">
	<!ENTITY st5 "fill-rule:nonzero;clip-rule:nonzero;stroke:#000000;stroke-miterlimit:4;">
	<!ENTITY st6 "fill-rule:nonzero;clip-rule:nonzero;fill:none;stroke:#000000;stroke-width:1.5;stroke-miterlimit:10;">
	<!ENTITY st7 "fill-rule:nonzero;clip-rule:nonzero;fill:none;stroke:#FFFFFF;stroke-width:0;stroke-miterlimit:10;">
]>
<svg  width="447.37pt" height="257.843pt" viewBox="0 0 447.37 257.843" xml:space="preserve">
	<g id="Calque_x0020_1" style="&st5; &st3; &st2;">
		<g style="&st4;">
			<g>
				<path d="M162.616,244.15v1.081H321.81v-1.081H162.616"/>
				<path style="&st1;" d="M287.125,244.691l-25.315-12.072v24.235l25.315-12.163"/>
				<path style="&st7;" d="M287.125,244.691"/>
				<path style="&st7;" d="M261.267,231.807"/>
				<path style="&st7;" d="M288.476,257.843"/>
				<path d="M262.079,232.167l-0.812-0.36v0.812v24.235v0.9l0.812-0.36l25.315-12.163l0.99-0.54l-0.99-0.45l-25.315-12.073z M285.863,244.691l-23.514,11.352v-22.523l23.514,11.172z"/>
				<path style="&st7;" d="M262.079,232.167"/>
				<path style="&st1;" d="M291.042,241.357c1.777,0,3.199,1.542,3.199,3.469c0,1.928-1.422,3.469-3.199,3.469c-1.775,0-3.197-1.541-3.197-3.469c0-1.927,1.422-3.469,3.197-3.469z"/>
				<path d="M291.042,240.277c2.379,0,4.279,2.022,4.279,4.549c0,2.528-1.9,4.55-4.279,4.55c-2.377,0-4.277-2.021-4.277-4.55c0-2.526,1.9-4.549,4.277-4.549z M291.042,241.357c-1.775,0-3.197,1.542-3.197,3.469c0,1.928,1.422,3.469,3.197,3.469
					c1.777,0,3.199-1.541,3.199-3.469c0-1.927-1.422-3.469-3.199-3.469z"/>
				<path style="&st1;" d="M212.798,244.601l-25.316-12.073v24.235l25.316-12.162"/>
				<path style="&st7;" d="M212.798,244.601"/>
				<path style="&st7;" d="M186.941,231.717"/>
				<path style="&st7;" d="M214.149,257.754"/>
				<path d="M187.752,232.079l-0.811-0.361v0.811v24.235v0.9l0.811-0.36l25.316-12.161l0.99-0.541l-0.99-0.451l-25.316-12.071z M211.536,244.601l-23.514,11.351v-22.522l23.514,11.172z"/>
				<path style="&st7;" d="M187.752,232.079"/>
				<path style="&st1;" d="M216.717,241.267c1.777,0,3.198,1.542,3.198,3.468c0,1.928-1.421,3.47-3.198,3.47c-1.777,0-3.199-1.542-3.199-3.47c0-1.926,1.421-3.468,3.199-3.468z"/>
				<path d="M216.717,240.186c2.377,0,4.278,2.021,4.278,4.549c0,2.529-1.901,4.551-4.278,4.551c-2.378,0-4.28-2.021-4.28-4.551c0-2.527,1.902-4.549,4.28-4.549z M216.717,241.267c-1.777,0-3.199,1.542-3.199,3.468c0,1.928,1.421,3.47,3.199,3.47
					c1.777,0,3.198-1.542,3.198-3.47c0-1.926-1.421-3.468-3.198-3.468z"/>
				<text transform="matrix(1 0 0 1 311.1792 233.2485)"><tspan x="0" y="0" style="&st0;">ckp</tspan></text>
				<text transform="matrix(1 0 0 1 240.0962 233.2485)"><tspan x="0" y="0" style="&st0;">ckn</tspan></text>
				<text transform="matrix(1 0 0 1 143.0669 245.5015)"><tspan x="0" y="0" style="&st0;">ck</tspan></text>
				<path style="&st1;" d="M159.733,246.402v-5.226h4.685v5.226h-4.685z"/>
				<path style="&st6;" d="M158.652,247.484v-7.387h6.847v7.387h-6.847z"/>
				<path d="M147.301,170.185h-1.082v10.901l0.09,0.271l0.09,0.18l0.18,0.091h0.181h6.576v9.459h-6.576l-0.181,0.091l-0.18,0.089l-0.09,0.181l-0.09,0.18v9.46h1.082v-8.918h6.577h0.27l0.181-0.091l0.09-0.181v-0.271v-10.54v-0.18l-0.09-0.181l-0.181-0.09l-0.27-0.09
					h-6.577v-10.361"/>
				<path d="M155.95,180.996h-1.081v10.9h1.081v-10.9"/>
				<path d="M141.715,200.456v1.081h10.361v-1.081h-10.361"/>
				<path d="M143.067,203.969v1.082h7.748v-1.082h-7.748"/>
				<path d="M144.508,207.483v1.08h4.775v-1.08h-4.775"/>
				<path d="M361.902,94.327h-1.082v10.901l0.09,0.27l0.092,0.18l0.18,0.09h0.18h6.576v9.459h-6.576l-0.18,0.09l-0.18,0.09l-0.092,0.18l-0.09,0.181v9.459h1.082v-8.919h6.576h0.27l0.18-0.09l0.092-0.18v-0.27v-10.541v-0.18l-0.092-0.18l-0.18-0.09l-0.27-0.09h-6.576
					V94.327"/>
				<path d="M370.548,105.138h-1.08v10.901h1.08v-10.901"/>
				<path d="M372.216,108.021c1.377,0,2.479,1.061,2.479,2.387c0,1.327-1.102,2.388-2.479,2.388s-2.479-1.061-2.479-2.388c0-1.326,1.102-2.387,2.479-2.387z M372.216,109.102c-0.775,0-1.396,0.581-1.396,1.306c0,0.726,0.621,1.307,1.396,1.307
					s1.396-0.581,1.396-1.307c0-0.725-0.621-1.306-1.396-1.306z"/>
				<path d="M361.902,119.913h-1.082v10.901l0.09,0.271l0.092,0.18l0.18,0.09h0.18h6.576v9.459h-6.576l-0.18,0.09l-0.18,0.09l-0.092,0.18l-0.09,0.18v9.46h1.082v-8.918h6.576h0.27l0.18-0.091l0.092-0.18v-0.271v-10.541v-0.181l-0.092-0.18l-0.18-0.09l-0.27-0.09
					h-6.576v-10.36"/>
				<path d="M370.548,130.724h-1.08v10.901h1.08v-10.901"/>
				<path d="M372.216,133.607c1.377,0,2.479,1.062,2.479,2.388c0,1.326-1.102,2.387-2.479,2.387s-2.479-1.062-2.479-2.387c0-1.326,1.102-2.388,2.479-2.388z M372.216,134.688c-0.775,0-1.396,0.581-1.396,1.307s0.621,1.306,1.396,1.306s1.396-0.58,1.396-1.306
					s-0.621-1.307-1.396-1.307z"/>
				<path d="M361.902,170.905h-1.082v10.901l0.09,0.271l0.092,0.181l0.18,0.089h0.18h6.576v9.46h-6.576l-0.18,0.09l-0.18,0.09l-0.092,0.182l-0.09,0.18v9.459h1.082v-8.919h6.576h0.27l0.18-0.09l0.092-0.18v-0.271v-10.541v-0.18l-0.092-0.181l-0.18-0.09l-0.27-0.09
					h-6.576v-10.361"/>
				<path d="M370.548,181.716h-1.08v10.901h1.08v-10.901"/>
				<path d="M356.316,201.176v1.082h10.359v-1.082h-10.359"/>
				<path d="M357.666,204.691v1.08h7.748v-1.08h-7.748"/>
				<path d="M359.109,208.203v1.082h4.773v-1.082h-4.773"/>
				<path d="M356.585,94.327v1.081h10.359v-1.081h-10.359"/>
				<path d="M374.244,109.643v1.081h27.748v75.678h-32.072v1.082h32.611h0.273l0.18-0.091l0.09-0.181v-0.271v-76.758v-0.18l-0.09-0.18l-0.18-0.09l-0.273-0.09h-28.287"/>
				<path d="M374.244,135.138v1.082h5.225v-1.082h-5.225"/>
				<path d="M361.902,145.409h-1.082v10.901l0.09,0.27l0.092,0.18l0.18,0.09h0.18h6.576v9.459h-6.576l-0.18,0.091l-0.18,0.09l-0.092,0.18l-0.09,0.18v9.459h1.082v-8.918h6.576h0.27l0.18-0.089l0.092-0.181v-0.271V156.31v-0.18l-0.092-0.18l-0.18-0.09l-0.27-0.09
					h-6.576v-10.361"/>
				<path d="M370.548,156.22h-1.08v10.901h1.08V156.22"/>
				<path d="M370.279,160.814v1.081h9.73v-1.081h-9.73"/>
				<text transform="matrix(1 0 0 1 382.2612 137.5708)"><tspan x="0" y="0" style="&st0;">ckn</tspan></text>
				<text transform="matrix(1 0 0 1 382.2612 163.4277)"><tspan x="0" y="0" style="&st0;">ckp</tspan></text>
				<path d="M402.984,149.823v1.082h13.783h0.271l0.18-0.09l0.088-0.18v-0.27V51.353v-0.181l-0.088-0.18l-0.18-0.09l-0.271-0.09h-18.379v1.082h17.838v97.929h-13.242"/>
				<path d="M361.269,150.725v-1.081h-47.387V51.172h63.334v-1.082h-63.877l-0.18,0.09l-0.18,0.09l-0.09,0.18l-0.09,0.18v99.553l0.09,0.27l0.09,0.18l0.18,0.09h0.18h47.93"/>
				<path style="&st1;" d="M390.281,51.443L364.964,39.37v24.235l25.316-12.162"/>
				<path style="&st7;" d="M390.281,51.443"/>
				<path style="&st7;" d="M364.423,38.559"/>
				<path style="&st7;" d="M391.63,64.596"/>
				<path d="M365.234,38.92l-0.811-0.361v0.811v24.235v0.901l0.811-0.36l25.316-12.162l0.99-0.541l-0.99-0.451L365.234,38.92z M389.019,51.443l-23.516,11.352V40.271l23.516,11.172z"/>
				<path style="&st7;" d="M365.234,38.92"/>
				<path style="&st1;" d="M394.199,48.109c1.777,0,3.197,1.542,3.197,3.469c0,1.927-1.42,3.468-3.197,3.468s-3.197-1.541-3.197-3.468c0-1.927,1.42-3.469,3.197-3.469z"/>
				<path d="M394.199,47.028c2.379,0,4.279,2.022,4.279,4.549c0,2.528-1.9,4.55-4.279,4.55c-2.377,0-4.279-2.022-4.279-4.55c0-2.527,1.902-4.549,4.279-4.549z M394.199,48.109c-1.777,0-3.197,1.542-3.197,3.469c0,1.927,1.42,3.468,3.197,3.468
					s3.197-1.541,3.197-3.468c0-1.927-1.42-3.469-3.197-3.469z"/>
				<path d="M315.503,51.083v-1.081h-10.9l-0.182,0.089l-0.18,0.09l-0.09,0.18l-0.09,0.18v6.577h-9.461v-6.577v-0.18l-0.09-0.18l-0.18-0.09l-0.27-0.089h-9.461v1.081h8.92v6.576l0.09,0.271l0.092,0.18l0.18,0.09h0.18h10.541h0.27l0.18-0.09l0.09-0.18v-0.271v-6.576
					h10.361"/>
				<path d="M304.691,59.731V58.65h-10.9v1.081h10.9"/>
				<path d="M300.187,59.461h-1.08v9.73h1.08v-9.73"/>
				<path d="M282.98,50.001v1.081h10.902h0.27l0.18-0.09l0.09-0.18v-0.271v-6.576h9.461v6.576l0.088,0.271l0.092,0.18l0.18,0.09h0.18h9.461v-1.081h-8.92v-6.577v-0.18l-0.09-0.18l-0.182-0.09l-0.27-0.09h-10.539l-0.18,0.09l-0.182,0.09l-0.092,0.18l-0.088,0.18
					v6.577H282.98"/>
				<path d="M293.791,41.442v1.082h10.9v-1.082h-10.9"/>
				<path d="M299.06,37.208c1.326,0,2.389,1.101,2.389,2.477s-1.062,2.478-2.389,2.478c-1.324,0-2.387-1.102-2.387-2.478s1.062-2.477,2.387-2.477z M299.06,38.29c-0.723,0-1.307,0.621-1.307,1.396c0,0.776,0.584,1.396,1.307,1.396c0.727,0,1.307-0.621,1.307-1.396
					c0-0.775-0.58-1.396-1.307-1.396z"/>
				<path d="M299.558,30.181h-1.082v7.568h1.082v-7.568"/>
				<text transform="matrix(1 0 0 1 294.062 81.4438)"><tspan x="0" y="0" style="&st0;">ckn</tspan></text>
				<text transform="matrix(1 0 0 1 293.9702 20.811)"><tspan x="0" y="0" style="&st0;">ckp</tspan></text>
				<path d="M312.621,50.091h1.08V13.153h116.49v-1.081H313.16l-0.18,0.09l-0.18,0.09l-0.09,0.18l-0.09,0.181v37.478"/>
				<path style="&st1;" d="M391.271,12.883L365.955,0.811v24.234l25.316-12.163"/>
				<path style="&st7;" d="M391.271,12.883"/>
				<path style="&st7;" d="M365.414,0"/>
				<path style="&st7;" d="M392.623,26.037"/>
				<path d="M366.226,0.36L365.414,0v0.811v24.234v0.901l0.812-0.36l25.314-12.163l0.992-0.541l-0.992-0.451L366.226,0.36z M390.009,12.883l-23.514,11.352V1.712l23.514,11.171z"/>
				<path style="&st7;" d="M366.226,0.36"/>
				<path style="&st1;" d="M395.189,9.55c1.777,0,3.199,1.541,3.199,3.469c0,1.927-1.422,3.468-3.199,3.468c-1.775,0-3.197-1.542-3.197-3.468c0-1.928,1.422-3.469,3.197-3.469z"/>
				<path d="M395.189,8.469c2.379,0,4.279,2.022,4.279,4.55c0,2.527-1.9,4.549-4.279,4.549c-2.377,0-4.279-2.022-4.279-4.549c0-2.528,1.902-4.55,4.279-4.55z M395.189,9.55c-1.775,0-3.197,1.541-3.197,3.469c0,1.927,1.422,3.468,3.197,3.468
					c1.777,0,3.199-1.542,3.199-3.468c0-1.928-1.422-3.469-3.199-3.469z"/>
				<path d="M147.301,93.606h-1.082v10.901l0.09,0.271l0.09,0.18l0.18,0.09h0.181h6.576v9.459h-6.576l-0.181,0.09l-0.18,0.09l-0.09,0.18l-0.09,0.18v9.46h1.082v-8.92h6.577h0.27l0.181-0.09l0.09-0.18v-0.27v-10.541v-0.18l-0.09-0.18l-0.181-0.09l-0.27-0.09h-6.577
					v-10.36"/>
				<path d="M155.95,104.417h-1.081v10.901h1.081v-10.901"/>
				<path d="M157.617,107.3c1.376,0,2.477,1.061,2.477,2.388s-1.101,2.387-2.477,2.387c-1.377,0-2.478-1.061-2.478-2.387s1.101-2.388,2.478-2.388z M157.617,108.381c-0.776,0-1.396,0.581-1.396,1.306c0,0.726,0.621,1.306,1.396,1.306c0.775,0,1.396-0.58,1.396-1.306
					c0-0.726-0.621-1.306-1.396-1.306z"/>
				<path d="M147.301,119.192h-1.082v10.9l0.09,0.271l0.09,0.18l0.18,0.09h0.181h6.576v9.46h-6.576l-0.181,0.09l-0.18,0.09l-0.09,0.18l-0.09,0.181v9.46h1.082v-8.92h6.577h0.27l0.181-0.09l0.09-0.18v-0.271v-10.542v-0.18l-0.09-0.18l-0.181-0.09l-0.27-0.09h-6.577
					v-10.36"/>
				<path d="M155.95,130.003h-1.081v10.902h1.081v-10.902"/>
				<path d="M157.617,132.886c1.376,0,2.477,1.062,2.477,2.387c0,1.327-1.101,2.388-2.477,2.388c-1.377,0-2.478-1.061-2.478-2.388c0-1.325,1.101-2.387,2.478-2.387z M157.617,133.967c-0.776,0-1.396,0.581-1.396,1.306c0,0.726,0.621,1.307,1.396,1.307
					c0.775,0,1.396-0.581,1.396-1.307c0-0.725-0.621-1.306-1.396-1.306z"/>
				<path d="M141.985,93.606v1.081h10.361v-1.081h-10.361"/>
				<path d="M159.644,108.921v1.082h27.749v75.677h-32.073v1.081h32.613h0.271l0.18-0.09l0.09-0.181v-0.271v-76.758v-0.18l-0.09-0.18l-0.18-0.091l-0.271-0.09h-28.289"/>
				<path d="M159.644,134.417v1.081h5.225v-1.081h-5.225"/>
				<path d="M147.301,144.688h-1.082v10.901l0.09,0.27l0.09,0.18l0.18,0.09h0.181h6.576v9.46h-6.576l-0.181,0.09l-0.18,0.09l-0.09,0.18l-0.09,0.18v9.459h1.082v-8.919h6.577h0.27l0.181-0.089l0.09-0.18v-0.271v-10.541v-0.18l-0.09-0.18l-0.181-0.09l-0.27-0.09
					h-6.577v-10.361"/>
				<path d="M155.95,155.499h-1.081v10.902h1.081v-10.902"/>
				<path d="M155.68,160.094v1.081h9.73v-1.081h-9.73"/>
				<text transform="matrix(1 0 0 1 167.6611 136.8496)"><tspan x="0" y="0" style="&st0;">ckp</tspan></text>
				<text transform="matrix(1 0 0 1 167.6611 162.707)"><tspan x="0" y="0" style="&st0;">ckn</tspan></text>
				<path d="M188.383,149.102v1.083h13.784h0.271l0.18-0.09l0.09-0.18v-0.271V50.632v-0.18l-0.09-0.18l-0.18-0.09l-0.271-0.09h-18.379v1.082h17.838v97.93h-13.244"/>
				<path d="M146.67,150.004v-1.082H99.281v-98.47h63.335v-1.081H98.741l-0.18,0.09l-0.18,0.09l-0.091,0.18l-0.09,0.18v99.552l0.09,0.271l0.091,0.181l0.18,0.09h0.18h47.929"/>
				<path style="&st1;" d="M175.68,50.722l-25.316-12.073v24.235l25.316-12.162"/>
				<path style="&st7;" d="M175.68,50.722"/>
				<path style="&st7;" d="M149.824,37.839"/>
				<path style="&st7;" d="M177.031,63.875"/>
				<path d="M150.634,38.199l-0.811-0.359v0.81v24.235v0.901l0.811-0.361l25.316-12.162l0.991-0.541l-0.991-0.451l-25.316-12.073z M174.418,50.722l-23.514,11.351V39.551l23.514,11.171z"/>
				<path style="&st7;" d="M150.634,38.199"/>
				<path style="&st1;" d="M179.599,47.388c1.777,0,3.199,1.542,3.199,3.469c0,1.928-1.422,3.469-3.199,3.469c-1.777,0-3.199-1.541-3.199-3.469c0-1.927,1.421-3.469,3.199-3.469z"/>
				<path d="M179.599,46.308c2.377,0,4.279,2.022,4.279,4.549c0,2.528-1.902,4.55-4.279,4.55c-2.378,0-4.279-2.022-4.279-4.55c0-2.527,1.901-4.549,4.279-4.549z M179.599,47.388c-1.777,0-3.199,1.542-3.199,3.469c0,1.928,1.421,3.469,3.199,3.469
					c1.777,0,3.199-1.541,3.199-3.469c0-1.927-1.422-3.469-3.199-3.469z"/>
				<path d="M100.903,50.361V49.28H90.002l-0.18,0.09l-0.181,0.09l-0.09,0.18l-0.089,0.18v6.577h-9.459v-6.577v-0.18l-0.09-0.18l-0.181-0.09l-0.271-0.09h-9.459v1.081h8.919v6.578l0.09,0.269l0.09,0.18l0.18,0.091h0.18h10.541h0.271l0.18-0.091l0.09-0.18v-0.269
					v-6.578h10.361"/>
				<path d="M90.092,59.101v-1.082H79.191v1.082h10.901"/>
				<path d="M85.677,58.831h-1.081v9.729h1.081v-9.729"/>
				<path d="M68.47,49.28v1.081h10.902h0.27l0.181-0.09l0.09-0.181v-0.27v-6.577h9.459v6.577l0.09,0.27l0.089,0.181l0.181,0.09h0.18h9.459V49.28h-8.919v-6.577v-0.18l-0.09-0.18l-0.18-0.09l-0.27-0.09H79.372l-0.18,0.09l-0.181,0.09l-0.09,0.18l-0.09,0.18v6.577
					H68.47"/>
				<path d="M79.191,40.722v1.081h10.901v-1.081H79.191"/>
				<path d="M84.461,36.488c1.327,0,2.388,1.101,2.388,2.477c0,1.376-1.061,2.478-2.388,2.478c-1.326,0-2.387-1.101-2.387-2.478c0-1.376,1.061-2.477,2.387-2.477z M84.461,37.568c-0.726,0-1.307,0.621-1.307,1.396s0.581,1.397,1.307,1.397
					c0.725,0,1.306-0.622,1.306-1.397s-0.581-1.396-1.306-1.396z"/>
				<path d="M84.957,29.46h-1.081v7.567h1.081V29.46"/>
				<text transform="matrix(1 0 0 1 79.4614 80.7227)"><tspan x="0" y="0" style="&st0;">ckp</tspan></text>
				<text transform="matrix(1 0 0 1 79.3716 20.0908)"><tspan x="0" y="0" style="&st0;">ckn</tspan></text>
				<path d="M195.951,50.091v1.082h92.254v-1.082h-92.254"/>
				<path d="M51.172,50.091V49.01H17.748v1.081h33.424"/>
				<path style="&st1;" d="M263.519,50.632l-25.314-12.073v24.235l25.314-12.163"/>
				<path style="&st7;" d="M263.519,50.632"/>
				<path style="&st7;" d="M237.664,37.749"/>
				<path style="&st7;" d="M264.873,63.786"/>
				<path d="M238.474,38.109l-0.811-0.36v0.811v24.235v0.901l0.811-0.36l25.316-12.163l0.991-0.541l-0.991-0.451l-25.316-12.072z M262.259,50.632l-23.515,11.352V39.46l23.515,11.171z"/>
				<path style="&st7;" d="M238.474,38.109"/>
				<path style="&st1;" d="M267.439,47.298c1.777,0,3.198,1.542,3.198,3.469s-1.421,3.469-3.198,3.469s-3.198-1.542-3.198-3.469s1.421-3.469,3.198-3.469z"/>
				<path d="M267.439,46.217c2.377,0,4.279,2.022,4.279,4.55s-1.902,4.549-4.279,4.549s-4.28-2.022-4.28-4.549s1.903-4.55,4.28-4.55z M267.439,47.298c-1.777,0-3.198,1.542-3.198,3.469s1.421,3.469,3.198,3.469s3.198-1.542,3.198-3.469s-1.421-3.469-3.198-3.469z"/>
				<path style="&st1;" d="M62.164,49.371L36.848,37.298v24.234l25.316-12.162"/>
				<path style="&st7;" d="M62.164,49.371"/>
				<path style="&st7;" d="M36.307,36.488"/>
				<path style="&st7;" d="M63.515,62.524"/>
				<path d="M37.118,36.848l-0.811-0.36v0.811v24.234v0.901l0.811-0.36l25.315-12.163l0.991-0.54l-0.991-0.451L37.118,36.848z M60.902,49.371L37.388,60.722V38.199l23.514,11.172z"/>
				<path style="&st7;" d="M37.118,36.848"/>
				<path style="&st1;" d="M66.083,46.037c1.777,0,3.198,1.542,3.198,3.469s-1.421,3.468-3.198,3.468s-3.198-1.541-3.198-3.468s1.421-3.469,3.198-3.469z"/>
				<path d="M66.083,44.956c2.377,0,4.28,2.022,4.28,4.55s-1.902,4.55-4.28,4.55s-4.279-2.022-4.279-4.55s1.902-4.55,4.279-4.55z M66.083,46.037c-1.777,0-3.198,1.542-3.198,3.469s1.421,3.468,3.198,3.468s3.198-1.541,3.198-3.468s-1.421-3.469-3.198-3.469z"/>
				<text transform="matrix(1 0 0 1 104.5972 62.9746)"><tspan x="0" y="0" style="&st0;">dff_m</tspan></text>
				<text transform="matrix(1 0 0 1 318.2964 68.02)"><tspan x="0" y="0" style="&st0;">dff_s</tspan></text>
				<path style="&st1;" d="M14.055,52.253v-5.225h4.685v5.225h-4.685z"/>
				<path style="&st6;" d="M12.974,53.334v-7.388h6.846v7.388h-6.846z"/>
				<path style="&st1;" d="M431.542,15.405V10.18h4.684v5.225h-4.684z"/>
				<path style="&st6;" d="M430.46,16.487V9.099h6.848v7.388h-6.848z"/>
				<text transform="matrix(1 0 0 1 444.9663 15.5859)"><tspan x="0" y="0" style="&st0;">t</tspan></text>
				<text transform="matrix(1 0 0 1 0 51.8032)"><tspan x="0" y="0" style="&st0;">di</tspan></text>
			</g>
		</g>
	</g>
</svg>
