<?xml version="1.0" encoding="iso-8859-1"?>
<!-- Generator: Adobe Illustrator 9.0, SVG Export Plug-In  -->
<!DOCTYPE svg PUBLIC "-//W3C//DTD SVG 20000303 Stylable//EN"   "http://www.w3.org/TR/2000/03/WD-SVG-20000303/DTD/svg-20000303-stylable.dtd" [
	<!ENTITY st0 "font-size:10.5461;">
	<!ENTITY st1 "fill:#169133;">
	<!ENTITY st2 "fill-rule:nonzero;clip-rule:nonzero;">
	<!ENTITY st3 "font-size:5.9322;">
	<!ENTITY st4 "font-family:'Helvetica';">
	<!ENTITY st5 "fill-rule:nonzero;clip-rule:nonzero;fill:#D11083;">
	<!ENTITY st6 "fill-rule:nonzero;clip-rule:nonzero;fill:none;">
	<!ENTITY st7 "fill-rule:evenodd;clip-rule:evenodd;stroke:none;">
	<!ENTITY st8 "fill-rule:nonzero;clip-rule:nonzero;stroke:#000000;stroke-miterlimit:4;">
	<!ENTITY st9 "font-size:9.2278;">
	<!ENTITY st10 "clip-path:url(#aiclp1);">
]>
<svg  width="455.127pt" height="133.474pt" viewBox="0 0 455.127 133.474" xml:space="preserve">
	<g id="Calque_x0020_1" style="&st8; &st4; &st9;">
		<g style="&st7;">
			<g>
				<clipPath id="aiclp1" style="&st6;">
					<path d="M0,133.474V0h455.127v133.474H0z"/>
				</clipPath>
				<g style="&st10;">
					<path d="M139.736,42.266v-0.988h-15.985l-0.164,0.083l-0.166,0.082l-0.083,0.165l-0.082,0.165v7.909h-14.419v-7.909v-0.165l-0.083-0.165l-0.164-0.082l-0.248-0.083H94.502v0.988h13.347v7.911l0.083,0.247l0.082,0.164l0.165,0.083h0.165h15.407h0.248
						l0.165-0.083l0.083-0.164v-0.247v-7.911h15.49"/>
					<path d="M123.669,52.483v-0.989h-15.984v0.989h15.984"/>
					<path d="M116.666,52.318h-0.989v11.535h0.989V52.318"/>
					<path d="M92.196,41.278v0.988h15.984h0.248l0.165-0.082l0.083-0.166v-0.247v-7.91h14.417v7.91l0.084,0.247l0.083,0.166l0.164,0.082h0.166h13.841v-0.988h-13.347v-7.91v-0.165l-0.083-0.165l-0.165-0.082l-0.247-0.083H108.18l-0.165,0.083l-0.165,0.082
						l-0.082,0.165l-0.083,0.165v7.91H92.196"/>
					<path d="M107.685,31.062v0.988h15.984v-0.988h-15.984"/>
					<path d="M115.389,26.118c1.762,0,3.172,1.246,3.172,2.801c0,1.557-1.41,2.801-3.172,2.801c-1.762,0-3.172-1.245-3.172-2.801c0-1.556,1.41-2.801,3.172-2.801z M115.389,27.106c-1.213,0-2.184,0.807-2.184,1.813c0,1.007,0.971,1.813,2.184,1.813
						c1.213,0,2.184-0.806,2.184-1.813c0-1.006-0.97-1.813-2.184-1.813z"/>
					<path d="M115.676,17.549h-0.988v8.98h0.988v-8.98"/>
					<path d="M140.478,109.498v-0.988h-15.984l-0.165,0.081l-0.165,0.082l-0.082,0.166l-0.083,0.165v7.908H109.58v-7.908v-0.165l-0.083-0.166l-0.165-0.082l-0.248-0.081H95.245v0.988h13.347v7.908l0.083,0.248l0.082,0.164l0.166,0.083h0.164h15.408h0.247
						l0.165-0.083l0.083-0.164v-0.248v-7.908h15.49"/>
					<path d="M124.74,119.715v-0.989h-15.984v0.989h15.984"/>
					<path d="M117.736,119.55h-0.988v11.536h0.988V119.55"/>
					<path d="M92.937,108.51v0.988h15.984h0.248l0.164-0.083l0.083-0.165v-0.246v-7.909h14.419v7.909l0.081,0.246l0.083,0.165l0.165,0.083h0.165h13.842v-0.988h-13.347v-7.91v-0.165l-0.083-0.164l-0.164-0.082l-0.248-0.083h-15.407l-0.166,0.083l-0.164,0.082
						l-0.083,0.164l-0.082,0.165v7.91h-15.49"/>
					<path d="M108.756,98.293v0.989h15.984v-0.989h-15.984"/>
					<path d="M116.459,93.349c1.763,0,3.172,1.245,3.172,2.803c0,1.556-1.409,2.8-3.172,2.8c-1.762,0-3.172-1.244-3.172-2.8c0-1.558,1.41-2.803,3.172-2.803z M116.459,94.337c-1.212,0-2.183,0.808-2.183,1.814c0,1.006,0.97,1.812,2.183,1.812
						c1.213,0,2.184-0.806,2.184-1.812c0-1.007-0.971-1.814-2.184-1.814z"/>
					<path d="M116.748,84.78h-0.988v8.98h0.988v-8.98"/>
					<path d="M116.666,61.958h-0.989v23.728h0.989V61.958"/>
					<path d="M140.559,41.113h-0.989l-0.081,67.808h0.989l0.082-67.808"/>
					<path d="M115.101,18.703v-0.988H19.033v0.988h96.068"/>
					<path d="M117.49,131.332v-0.989H54.708v0.989h62.783"/>
					<path d="M95.162,42.266v-0.988H18.95v0.988h76.211"/>
					<path d="M96.068,109.498v-0.988H19.197v0.988h76.872"/>
					<path d="M55.779,18.044h-0.989v112.299h0.989V18.044"/>
					<path d="M55.614,16.231c1.145,0,2.06,0.915,2.06,2.06c0,1.144-0.915,2.06-2.06,2.06c-1.145,0-2.06-0.916-2.06-2.06c0-1.145,0.915-2.06,2.06-2.06z"/>
					<path d="M55.614,15.737c1.419,0,2.554,1.135,2.554,2.554c0,1.419-1.135,2.554-2.554,2.554c-1.418,0-2.555-1.135-2.555-2.554c0-1.419,1.136-2.554,2.555-2.554z M55.614,16.231c-1.145,0-2.06,0.915-2.06,2.06c0,1.144,0.915,2.06,2.06,2.06
						c1.145,0,2.06-0.916,2.06-2.06c0-1.145-0.915-2.06-2.06-2.06z"/>
					<path d="M115.676,75.553v-0.989H18.95v0.989h96.726"/>
					<path d="M115.76,72.752c1.144,0,2.06,0.914,2.06,2.059s-0.916,2.06-2.06,2.06c-1.145,0-2.06-0.915-2.06-2.06s0.916-2.059,2.06-2.059z"/>
					<path d="M115.76,72.257c1.419,0,2.554,1.135,2.554,2.554c0,1.419-1.135,2.554-2.554,2.554s-2.555-1.135-2.555-2.554c0-1.419,1.136-2.554,2.555-2.554z M115.76,72.752c-1.145,0-2.06,0.914-2.06,2.059s0.916,2.06,2.06,2.06c1.144,0,2.06-0.915,2.06-2.06
						s-0.916-2.059-2.06-2.059z"/>
					<text transform="matrix(1 0 0 1 10.0518 11.6992)"><tspan x="0" y="0" style="&st2;">sel</tspan></text>
					<text transform="matrix(1 0 0 1 15.9834 34.3569)"><tspan x="0" y="0" style="&st2;">I</tspan></text>
					<text transform="matrix(1 0 0 1 18.5381 36.9932)"><tspan x="0" y="0" style="&st2; &st3;">0</tspan></text>
					<text transform="matrix(1 0 0 1 15.9834 103.5654)"><tspan x="0" y="0" style="&st2;">I</tspan></text>
					<text transform="matrix(1 0 0 1 18.5381 106.2021)"><tspan x="0" y="0" style="&st2; &st3;">1</tspan></text>
					<text transform="matrix(1 0 0 1 4.9438 69.7852)"><tspan x="0" y="0" style="&st2;">nsel</tspan></text>
					<text transform="matrix(1 0 0 1 192.1357 77.9419)"><tspan x="0" y="0" style="&st2;">out</tspan></text>
					<path d="M187.769,75.47v-0.989h-15.983l-0.166,0.083l-0.164,0.083l-0.083,0.165l-0.082,0.165v7.91h-14.419v-7.91v-0.165l-0.083-0.165l-0.164-0.083l-0.247-0.083h-13.842v0.989h13.347v7.909l0.083,0.248l0.082,0.165l0.166,0.082h0.165h15.407h0.247l0.165-0.082
						l0.083-0.165v-0.248V75.47h15.489"/>
					<path d="M171.703,85.687v-0.988h-15.984v0.988h15.984"/>
					<path d="M164.699,85.522h-0.988v11.535h0.988V85.522"/>
					<path d="M140.229,74.481v0.989h15.984h0.247l0.166-0.083l0.082-0.165v-0.247v-7.91h14.418v7.91l0.083,0.247l0.083,0.165l0.165,0.083h0.164h13.842v-0.989h-13.348v-7.909v-0.165l-0.082-0.166l-0.165-0.082l-0.248-0.082h-15.406l-0.166,0.082l-0.165,0.082
						l-0.082,0.166l-0.083,0.165v7.909h-15.489"/>
					<path d="M155.719,64.265v0.988h15.984v-0.988h-15.984"/>
					<path d="M163.423,59.322c1.762,0,3.172,1.244,3.172,2.8c0,1.558-1.41,2.802-3.172,2.802s-3.172-1.245-3.172-2.802c0-1.556,1.41-2.8,3.172-2.8z M163.423,60.31c-1.213,0-2.184,0.806-2.184,1.812c0,1.008,0.97,1.814,2.184,1.814c1.212,0,2.184-0.806,2.184-1.814
						c0-1.006-0.971-1.812-2.184-1.812z"/>
					<path d="M164.041,49.023h-0.989v11.535h0.989V49.023"/>
					<text transform="matrix(1 0 0 1 73.4106 38.4766)"><tspan x="0" y="0" style="&st5; &st0;">3</tspan></text>
					<text transform="matrix(1 0 0 1 73.4106 102.082)"><tspan x="0" y="0" style="&st5; &st0;">3</tspan></text>
					<text transform="matrix(1 0 0 1 145.3374 66.6543)"><tspan x="0" y="0" style="&st5; &st0;">2</tspan></text>
					<text transform="matrix(1 0 0 1 179.6948 67.1484)"><tspan x="0" y="0" style="&st5; &st0;">1</tspan></text>
					<text transform="matrix(1 0 0 1 130.7549 77.6123)"><tspan x="0" y="0" style="&st2;">s</tspan></text>
					<path d="M384.766,42.266v-0.988h-15.982l-0.165,0.083l-0.164,0.082l-0.084,0.165l-0.081,0.165v7.909h-14.419v-7.909v-0.165l-0.082-0.165l-0.165-0.082l-0.248-0.083h-13.84v0.988h13.347v7.911l0.081,0.247l0.082,0.164l0.165,0.083h0.165h15.408h0.246
						l0.165-0.083l0.084-0.164v-0.247v-7.911h15.487"/>
					<path d="M368.702,52.483v-0.989h-15.985v0.989h15.985"/>
					<path d="M361.697,52.318h-0.988v11.535h0.988V52.318"/>
					<path d="M337.227,41.278v0.988h15.983h0.247l0.166-0.082l0.082-0.166v-0.247v-7.91h14.418v7.91l0.083,0.247l0.083,0.166l0.165,0.082h0.164h13.842v-0.988h-13.348v-7.91v-0.165l-0.083-0.165l-0.165-0.082l-0.246-0.083H353.21l-0.165,0.083l-0.163,0.082
						l-0.082,0.165l-0.084,0.165v7.91h-15.489"/>
					<path d="M352.716,31.062v0.988h15.985v-0.988h-15.985"/>
					<path d="M360.42,26.118c1.763,0,3.173,1.246,3.173,2.801c0,1.557-1.41,2.801-3.173,2.801c-1.764,0-3.172-1.245-3.172-2.801c0-1.556,1.408-2.801,3.172-2.801z M360.42,27.106c-1.213,0-2.184,0.807-2.184,1.813c0,1.007,0.971,1.813,2.184,1.813
						c1.214,0,2.185-0.806,2.185-1.813c0-1.006-0.971-1.813-2.185-1.813z"/>
					<path d="M360.708,17.549h-0.989v8.98h0.989v-8.98"/>
					<path d="M385.508,109.498v-0.988h-15.984l-0.164,0.081l-0.165,0.082l-0.082,0.166l-0.083,0.165v7.908h-14.419v-7.908v-0.165l-0.083-0.166l-0.162-0.082l-0.249-0.081h-13.842v0.988h13.349v7.908l0.082,0.248l0.083,0.164l0.165,0.083h0.163h15.407h0.248
						l0.163-0.083l0.085-0.164v-0.248v-7.908h15.488"/>
					<path d="M369.772,119.715v-0.989h-15.983v0.989h15.983"/>
					<path d="M362.767,119.55h-0.986v11.536h0.986V119.55"/>
					<path d="M337.97,108.51v0.988h15.983h0.246l0.166-0.083l0.082-0.165v-0.246v-7.909h14.417v7.909l0.082,0.246l0.083,0.165l0.165,0.083h0.165h13.842v-0.988h-13.348v-7.91v-0.165l-0.082-0.164l-0.165-0.082l-0.247-0.083h-15.406l-0.165,0.083l-0.165,0.082
						l-0.082,0.164l-0.084,0.165v7.91H337.97"/>
					<path d="M353.789,98.293v0.989h15.983v-0.989h-15.983"/>
					<path d="M361.49,93.349c1.764,0,3.175,1.245,3.175,2.803c0,1.556-1.411,2.8-3.175,2.8c-1.761,0-3.171-1.244-3.171-2.8c0-1.558,1.41-2.803,3.171-2.803z M361.49,94.337c-1.21,0-2.182,0.808-2.182,1.814c0,1.006,0.972,1.812,2.182,1.812
						c1.215,0,2.186-0.806,2.186-1.812c0-1.007-0.971-1.814-2.186-1.814z"/>
					<path d="M361.781,84.78h-0.99v8.98h0.99v-8.98"/>
					<path d="M361.697,61.958h-0.988v23.728h0.988V61.958"/>
					<path d="M385.591,41.113h-0.989l-0.084,67.808h0.99l0.083-67.808"/>
					<path d="M360.131,18.703v-0.988h-96.066v0.988h96.066"/>
					<path d="M362.521,131.332v-0.989h-62.782v0.989h62.782"/>
					<path d="M340.193,42.266v-0.988h-76.212v0.988h76.212"/>
					<path d="M341.1,109.498v-0.988h-76.871v0.988H341.1"/>
					<path d="M300.81,18.044h-0.988v112.299h0.988V18.044"/>
					<path d="M300.645,16.231c1.145,0,2.059,0.915,2.059,2.06c0,1.144-0.914,2.06-2.059,2.06c-1.144,0-2.06-0.916-2.06-2.06c0-1.145,0.916-2.06,2.06-2.06z"/>
					<path d="M300.645,15.737c1.419,0,2.554,1.135,2.554,2.554c0,1.419-1.135,2.554-2.554,2.554s-2.554-1.135-2.554-2.554c0-1.419,1.135-2.554,2.554-2.554z M300.645,16.231c-1.144,0-2.06,0.915-2.06,2.06c0,1.144,0.916,2.06,2.06,2.06
						c1.145,0,2.059-0.916,2.059-2.06c0-1.145-0.914-2.06-2.059-2.06z"/>
					<path d="M360.708,75.553v-0.989h-96.728v0.989h96.728"/>
					<path d="M360.791,72.752c1.145,0,2.06,0.914,2.06,2.059s-0.915,2.06-2.06,2.06c-1.144,0-2.06-0.915-2.06-2.06s0.916-2.059,2.06-2.059z"/>
					<path d="M360.791,72.257c1.419,0,2.555,1.135,2.555,2.554c0,1.419-1.136,2.554-2.555,2.554c-1.417,0-2.554-1.135-2.554-2.554c0-1.419,1.137-2.554,2.554-2.554z M360.791,72.752c-1.144,0-2.06,0.914-2.06,2.059s0.916,2.06,2.06,2.06
						c1.145,0,2.06-0.915,2.06-2.06s-0.915-2.059-2.06-2.059z"/>
					<text transform="matrix(1 0 0 1 255.0835 11.6992)"><tspan x="0" y="0" style="&st2;">sel</tspan></text>
					<text transform="matrix(1 0 0 1 261.0161 34.3569)"><tspan x="0" y="0" style="&st2;">I</tspan></text>
					<text transform="matrix(1 0 0 1 263.5688 36.9932)"><tspan x="0" y="0" style="&st2; &st3;">0</tspan></text>
					<text transform="matrix(1 0 0 1 261.0161 103.5654)"><tspan x="0" y="0" style="&st2;">I</tspan></text>
					<text transform="matrix(1 0 0 1 263.5688 106.2021)"><tspan x="0" y="0" style="&st2; &st3;">1</tspan></text>
					<text transform="matrix(1 0 0 1 249.9741 69.7852)"><tspan x="0" y="0" style="&st2;">nsel</tspan></text>
					<text transform="matrix(1 0 0 1 437.1675 77.9419)"><tspan x="0" y="0" style="&st2;">out</tspan></text>
					<path d="M432.8,75.47v-0.989h-15.983l-0.166,0.083l-0.162,0.083l-0.083,0.165l-0.083,0.165v7.91h-14.419v-7.91v-0.165l-0.082-0.165l-0.164-0.083l-0.247-0.083h-13.843v0.989h13.348v7.909l0.081,0.248l0.084,0.165l0.164,0.082h0.166h15.406h0.248l0.163-0.082
						l0.083-0.165v-0.248V75.47H432.8"/>
					<path d="M416.735,85.687v-0.988H400.75v0.988h15.984"/>
					<path d="M409.732,85.522h-0.988v11.535h0.988V85.522"/>
					<path d="M385.261,74.481v0.989h15.983h0.248l0.165-0.083l0.081-0.165v-0.247v-7.91h14.419v7.91l0.083,0.247l0.082,0.165l0.166,0.083h0.162h13.843v-0.989h-13.348v-7.909v-0.165l-0.081-0.166L416.9,66.16l-0.249-0.082h-15.406l-0.164,0.082l-0.165,0.082
						l-0.083,0.166l-0.082,0.165v7.909h-15.489"/>
					<path d="M400.75,64.265v0.988h15.984v-0.988H400.75"/>
					<path d="M408.455,59.322c1.761,0,3.173,1.244,3.173,2.8c0,1.558-1.412,2.802-3.173,2.802c-1.764,0-3.173-1.245-3.173-2.802c0-1.556,1.409-2.8,3.173-2.8z M408.455,60.31c-1.213,0-2.182,0.806-2.182,1.812c0,1.008,0.969,1.814,2.182,1.814
						c1.212,0,2.183-0.806,2.183-1.814c0-1.006-0.971-1.812-2.183-1.812z"/>
					<path d="M409.072,49.023h-0.987v11.535h0.987V49.023"/>
					<text transform="matrix(1 0 0 1 318.4429 38.4766)"><tspan x="0" y="0" style="&st5; &st0;">3</tspan></text>
					<text transform="matrix(1 0 0 1 318.4429 102.082)"><tspan x="0" y="0" style="&st5; &st0;">3</tspan></text>
					<text transform="matrix(1 0 0 1 390.3696 66.6543)"><tspan x="0" y="0" style="&st5; &st0;">2</tspan></text>
					<text transform="matrix(1 0 0 1 424.728 67.1484)"><tspan x="0" y="0" style="&st5; &st0;">1</tspan></text>
					<text transform="matrix(1 0 0 1 375.7866 77.6123)"><tspan x="0" y="0" style="&st2;">s</tspan></text>
					<path style="&st1;" d="M262.993,40.125v4.614l119.549-0.083l0.084,30.32l0.082,0.494l0.081,0.412l0.495,0.741l0.742,0.496l0.492,0.164h0.414l33.861-0.083v-4.614l-31.555,0.083l-0.082-30.32v-0.411l-0.166-0.495l-0.492-0.742l-0.742-0.493l-0.413-0.083
						l-0.494-0.082l-121.856,0.082"/>
					<path style="&st1;" d="M418.712,82.72l15.489-7.744l-15.489-7.828V82.72"/>
				</g>
			</g>
		</g>
	</g>
</svg>
