<?xml version="1.0" encoding="iso-8859-1"?>
<!-- Generator: Adobe Illustrator 9.0, SVG Export Plug-In  -->
<!DOCTYPE svg PUBLIC "-//W3C//DTD SVG 20000303 Stylable//EN"   "http://www.w3.org/TR/2000/03/WD-SVG-20000303/DTD/svg-20000303-stylable.dtd" [
	<!ENTITY st0 "fill:#000000;stroke:none;">
	<!ENTITY st1 "fill-rule:evenodd;clip-rule:evenodd;fill:#000000;stroke:none;">
	<!ENTITY st2 "stroke-miterlimit:10;">
	<!ENTITY st3 "fill-rule:evenodd;clip-rule:evenodd;fill:#FFFFFF;stroke:none;">
	<!ENTITY st4 "font-family:'Helvetica';">
	<!ENTITY st5 "font-size:18;">
	<!ENTITY st6 "fill-rule:nonzero;clip-rule:nonzero;fill:none;stroke:#FFFFFF;stroke-width:0;stroke-miterlimit:4;">
	<!ENTITY st7 "stroke:none;">
	<!ENTITY st8 "clip-path:url(#aiclp1);">
]>
<svg  width="237.5pt" height="147.783pt" viewBox="0 0 237.5 147.783" xml:space="preserve">
	<g id="Calque_x0020_1" style="&st6; &st4; &st5;">
		<g style="&st2;">
			<g>
				<clipPath id="aiclp1" style="&st7;">
					<path d="M0,147.75V0h237.5v147.75H0z"/>
				</clipPath>
				<g style="&st8;">
					<path style="&st3;" d="M97.5,10.25l4.25,0.25l3.75,0.25l7.625,1l3.25,0.875l3.375,1.25l3,1l2.75,1.25l2.75,1.375l2.25,1.5l1.75,1.75L134,22.5l1.25,1.75l1.125,1.875l0.5,2l0.25,2.125l-0.25,1.875l-0.5,2l-1.125,2L134,38l-1.75,1.75l-1.75,1.625l-2.25,1.5
						l-2.75,1.375l-2.75,1.25l-3,1.125l-3.375,1l-3.25,0.875l-7.625,1.125L101.75,50H97.5l2.25-4.75l1.5-5.125l1-4.875l0.25-5l-0.25-5.125l-1-5l-1.5-4.75L97.5,10.25z"/>
					<path d="M97.5,10.25"/>
					<path d="M96.75,9.5"/>
					<path d="M138,50.875"/>
					<path style="&st1;" d="M101.75,11.25l3.75,0.25l7.5,1l3.125,0.875l3.375,1.25l3,1l2.75,1.25L128,18.25l2,1.375l1.75,1.75l1.75,1.75l1.25,1.75l1,1.625l0.375,1.75l0.25,2l-0.25,1.75l-0.375,1.875l-1.125,2L133.5,37.5l-1.75,1.75L130,40.875l-2,1.375l-2.75,1.375
						l-2.75,1.25l-3,1.125l-3.375,1L113,47.75l-7.5,1.125l-3.75,0.375h-3l1.75-3.625L102,40.5v-0.375l1-4.875l0.25-5L103,25.125l-1-5v-0.25l-1.5-4.75l-1.75-4l3,0.125z M97.5,9.5l-0.25,0.125L97,9.75L96.875,10l-0.125,0.25l0.125,0.375l2.25,5.125l1.5,4.75
						l0.875,4.625l0.25,5.125l-0.25,5l-0.875,4.625L99.125,45l-2.25,4.75L96.75,50l0.125,0.375L97,50.625l0.25,0.125h0.25h4.25l3.75-0.375l7.625-1.125h0.375l3.25-0.875l3.375-1l3-1.125l2.75-1.25l2.75-1.375l2.25-1.5l0.25-0.125l1.75-1.625l1.75-1.75l0.125-0.25
						L136,36.5l1.125-2l0.5-2v-0.375l0.25-1.875l-0.25-2.125v-0.25l-0.5-2L136,24l-0.125-0.25l-1.25-1.75l-1.75-1.75l-1.75-1.75l-0.25-0.125l-2.25-1.5l-2.75-1.375l-2.75-1.25l-3-1L116.75,12l-3.25-0.875L113.125,11l-7.625-1l-3.75-0.25L97.5,9.5z"/>
					<path d="M101.75,11.25"/>
					<path style="&st3;" d="M141.688,26.375c1.979,0,3.562,1.861,3.562,4.188s-1.583,4.188-3.562,4.188s-3.562-1.861-3.562-4.188s1.583-4.188,3.562-4.188z"/>
					<path style="&st1;" d="M141.688,24.875c2.812,0,5.062,2.528,5.062,5.688s-2.25,5.688-5.062,5.688s-5.062-2.528-5.062-5.688s2.25-5.688,5.062-5.688z M141.688,26.375c-1.979,0-3.562,1.861-3.562,4.188s1.583,4.188,3.562,4.188s3.562-1.861,3.562-4.188
						s-1.583-4.188-3.562-4.188z"/>
					<path style="&st3;" d="M97.5,99.375l4.25,0.25l3.75,0.25l7.625,1l3.25,0.875l3.375,1.25l3,1l2.75,1.25l2.75,1.375l2.25,1.5l1.75,1.75l1.75,1.75l1.25,1.75l1.125,1.875l0.5,2l0.25,2.125l-0.25,1.875l-0.5,2l-1.125,2l-1.25,1.875l-1.75,1.75l-1.75,1.625
						l-2.25,1.5l-2.75,1.375l-2.75,1.25l-3,1.125l-3.375,1l-3.25,0.875l-7.625,1.125l-3.75,0.375H97.5l2.25-4.75l1.5-5.125l1-4.875l0.25-5l-0.25-5.125l-1-5l-1.5-4.75l-2.25-5.125z"/>
					<path d="M97.5,99.375"/>
					<path d="M96.75,98.625"/>
					<path d="M138,140"/>
					<path style="&st1;" d="M101.75,100.375l3.75,0.25l7.5,1l3.125,0.875l3.375,1.25l3,1l2.75,1.25l2.75,1.375l2,1.375l1.75,1.75l1.75,1.75l1.25,1.75l1,1.625l0.375,1.75l0.25,2l-0.25,1.75L135.75,123l-1.125,2l-1.125,1.625l-1.75,1.75L130,130l-2,1.375l-2.75,1.375
						L122.5,134l-3,1.125l-3.375,1l-3.125,0.75L105.5,138l-3.75,0.375h-3l1.75-3.625l1.5-5.125v-0.375l1-4.875l0.25-5L103,114.25l-1-5V109l-1.5-4.75l-1.75-4l3,0.125z M97.5,98.625l-0.25,0.125L97,98.875l-0.125,0.25l-0.125,0.25l0.125,0.375l2.25,5.125l1.5,4.75
						l0.875,4.625l0.25,5.125l-0.25,5L100.625,129l-1.5,5.125l-2.25,4.75l-0.125,0.25l0.125,0.375L97,139.75l0.25,0.125h0.25h4.25l3.75-0.375l7.625-1.125h0.375l3.25-0.875l3.375-1l3-1.125l2.75-1.25l2.75-1.375l2.25-1.5l0.25-0.125l1.75-1.625l1.75-1.75l0.125-0.25
						l1.25-1.875l1.125-2l0.5-2v-0.375l0.25-1.875l-0.25-2.125V117l-0.5-2L136,113.125l-0.125-0.25l-1.25-1.75l-1.75-1.75l-1.75-1.75l-0.25-0.125l-2.25-1.5l-2.75-1.375l-2.75-1.25l-3-1l-3.375-1.25l-3.25-0.875l-0.375-0.125l-7.625-1l-3.75-0.25l-4.25-0.25z"/>
					<path d="M101.75,100.375"/>
					<path style="&st3;" d="M141.688,115.5c1.979,0,3.562,1.861,3.562,4.188s-1.583,4.188-3.562,4.188s-3.562-1.861-3.562-4.188s1.583-4.188,3.562-4.188z"/>
					<path style="&st1;" d="M141.688,114c2.812,0,5.062,2.527,5.062,5.688s-2.25,5.688-5.062,5.688s-5.062-2.527-5.062-5.688s2.25-5.688,5.062-5.688z M141.688,115.5c-1.979,0-3.562,1.861-3.562,4.188s1.583,4.188,3.562,4.188s3.562-1.861,3.562-4.188
						s-1.583-4.188-3.562-4.188z"/>
					<path style="&st1;" d="M146.75,30v1.5H192v22.25L40.375,83.125L40.25,83.25L40,83.375l-0.125,0.25l-0.125,0.25l-0.125,21.25l0.125,0.375l0.125,0.25l0.25,0.125h0.25h60.25v-1.5h-59.5L41.25,84.5l151.625-29.375h0.25l0.25-0.125l0.125-0.25v-0.375V30.75V30.5
						l-0.125-0.25l-0.25-0.125L192.75,30h-46"/>
					<path style="&st1;" d="M145.875,119.25v1.5h46h0.375l0.25-0.125l0.125-0.25V120V96.375v-0.25l-0.125-0.25l-0.25-0.125L192,95.625L40.375,66.25L40.25,46.375h59.5v-1.5H39.5L39.25,45L39,45.125l-0.125,0.25l-0.125,0.25l0.125,21.25L39,67.25l0.125,0.25
						l0.25,0.125H39.5L191.125,97v22.25h-45.25"/>
					<path style="&st1;" d="M99.25,16.125v-1.5H31v1.5h68.25"/>
					<path style="&st1;" d="M99.375,134.5V133h-68.25v1.5h68.25"/>
					<text transform="matrix(1 0 0 1 9 21.375)"><tspan x="0" y="0" style="&st0;">S</tspan></text>
					<text transform="matrix(1 0 0 1 8 139.75)"><tspan x="0" y="0" style="&st0;">R</tspan></text>
					<text transform="matrix(1 0 0 1 203 36.875)"><tspan x="0" y="0" style="&st0;">QB</tspan></text>
					<text transform="matrix(1 0 0 1 203 126)"><tspan x="0" y="0" style="&st0;">Q</tspan></text>
				</g>
			</g>
		</g>
	</g>
</svg>
