<?xml version="1.0" encoding="iso-8859-1"?>
<!-- Generator: Adobe Illustrator 9.0, SVG Export Plug-In  -->
<!DOCTYPE svg PUBLIC "-//W3C//DTD SVG 20000303 Stylable//EN"   "http://www.w3.org/TR/2000/03/WD-SVG-20000303/DTD/svg-20000303-stylable.dtd" [
	<!ENTITY st0 "font-size:6.9542;">
	<!ENTITY st1 "font-size:10.8176;">
	<!ENTITY st2 "font-family:'Helvetica';font-weight:bold;">
	<!ENTITY st3 "fill-rule:evenodd;clip-rule:evenodd;">
	<!ENTITY st4 "fill:none;stroke:#FFFFFF;stroke-width:0;stroke-miterlimit:10;">
	<!ENTITY st5 "fill:none;">
	<!ENTITY st6 "fill-rule:evenodd;clip-rule:evenodd;fill:#FFFFFF;">
	<!ENTITY st7 "font-family:'Helvetica';">
	<!ENTITY st8 "fill-rule:nonzero;clip-rule:nonzero;stroke:#000000;stroke-miterlimit:4;">
	<!ENTITY st9 "stroke:none;">
	<!ENTITY st10 "font-size:13.9084;">
	<!ENTITY st11 "clip-path:url(#aiclp1);">
]>
<svg  width="430pt" height="114.21pt" viewBox="0 0 430 114.21" xml:space="preserve">
	<g id="Calque_x0020_1" style="&st8; &st2; &st1;">
		<g style="&st9;">
			<g>
				<clipPath id="aiclp1" style="&st5;">
					<path d="M0,114.165V0h430v114.165H0z"/>
				</clipPath>
				<g style="&st11;">
					<path style="&st6;" d="M75.337,7.92l3.284,0.192l2.897,0.195L87.41,9.08l2.511,0.675l2.608,0.966l2.318,0.772l2.125,0.966l2.124,1.062l1.739,1.16l1.352,1.352l1.352,1.354l0.967,1.352l0.869,1.45l0.387,1.543l0.192,1.643l-0.192,1.449l-0.387,1.546
						l-0.869,1.544l-0.967,1.45l-1.352,1.353l-1.352,1.254l-1.739,1.16l-2.124,1.062l-2.125,0.965l-2.318,0.869l-2.608,0.773l-2.511,0.675l-5.893,0.87l-2.897,0.29h-3.284l1.739-3.67l1.159-3.958l0.772-3.769l0.195-3.863l-0.195-3.96l-0.772-3.862l-1.159-3.671
						l-1.739-3.96z"/>
					<path style="&st4;" d="M75.337,7.92"/>
					<path style="&st4;" d="M74.757,7.341"/>
					<path style="&st4;" d="M106.631,39.311"/>
					<path style="&st3;" d="M78.621,8.692l2.897,0.194l5.795,0.772l2.416,0.676l2.606,0.966l2.319,0.773l2.125,0.966l2.126,1.062l1.545,1.062l1.352,1.351l1.353,1.354l0.965,1.351l0.772,1.256l0.29,1.353l0.193,1.544l-0.193,1.353l-0.29,1.447l-0.869,1.547
						l-0.869,1.256l-1.353,1.353l-1.352,1.255l-1.545,1.062l-2.126,1.062l-2.125,0.965l-2.319,0.871l-2.606,0.771l-2.416,0.58l-5.795,0.869l-2.897,0.291h-2.318l1.352-2.802l1.16-3.96v-0.288l0.773-3.769l0.193-3.863l-0.193-3.96l-0.773-3.862v-0.195l-1.16-3.669
						l-1.352-3.092l2.318,0.097z M75.337,7.341l-0.193,0.096l-0.192,0.096l-0.097,0.194L74.757,7.92l0.097,0.291l1.739,3.959l1.16,3.669l0.675,3.574l0.193,3.96l-0.193,3.863l-0.675,3.574l-1.16,3.961l-1.739,3.67l-0.097,0.192l0.097,0.291l0.097,0.193l0.192,0.096
						h0.193h3.284l2.897-0.289l5.893-0.869h0.29l2.511-0.676l2.608-0.772l2.317-0.87l2.125-0.965l2.125-1.063l1.738-1.159l0.192-0.096l1.354-1.256l1.352-1.351l0.097-0.194l0.965-1.449l0.869-1.545l0.387-1.545v-0.291l0.194-1.449l-0.194-1.643v-0.192l-0.387-1.545
						l-0.869-1.45l-0.096-0.193l-0.966-1.352l-1.352-1.352l-1.354-1.353l-0.192-0.095l-1.738-1.16l-2.125-1.063l-2.125-0.967l-2.317-0.771l-2.608-0.967L87.7,8.596L87.41,8.5l-5.893-0.772l-2.897-0.194l-3.284-0.192z"/>
					<path style="&st4;" d="M78.621,8.692"/>
					<path style="&st6;" d="M109.479,20.379c1.53,0,2.753,1.439,2.753,3.236c0,1.797-1.224,3.236-2.753,3.236c-1.528,0-2.752-1.439-2.752-3.236c0-1.797,1.224-3.236,2.752-3.236z"/>
					<path style="&st3;" d="M109.479,19.22c2.175,0,3.913,1.953,3.913,4.395c0,2.441-1.738,4.396-3.913,4.396c-2.172,0-3.912-1.954-3.912-4.396c0-2.442,1.74-4.395,3.912-4.395z M109.479,20.379c-1.528,0-2.752,1.439-2.752,3.236c0,1.797,1.224,3.236,2.752,3.236
						c1.53,0,2.753-1.439,2.753-3.236c0-1.797-1.224-3.236-2.753-3.236z"/>
					<path style="&st6;" d="M75.337,76.784l3.284,0.197l2.897,0.191l5.893,0.771l2.511,0.678l2.608,0.965l2.318,0.771l2.125,0.967l2.124,1.062l1.739,1.158l1.352,1.354l1.352,1.352l0.967,1.351l0.869,1.45l0.387,1.547l0.192,1.641l-0.192,1.449l-0.387,1.545
						l-0.869,1.547l-0.967,1.445l-1.352,1.354l-1.352,1.255l-1.739,1.159l-2.124,1.064l-2.125,0.965l-2.318,0.869l-2.608,0.773l-2.511,0.677l-5.893,0.868l-2.897,0.288h-3.284l1.739-3.669l1.159-3.962l0.772-3.766l0.195-3.863l-0.195-3.96l-0.772-3.864l-1.159-3.671
						l-1.739-3.96z"/>
					<path style="&st4;" d="M75.337,76.784"/>
					<path style="&st4;" d="M74.757,76.206"/>
					<path style="&st4;" d="M106.631,108.178"/>
					<path style="&st3;" d="M78.621,77.559l2.897,0.192l5.795,0.773l2.416,0.677l2.606,0.966l2.319,0.772l2.125,0.964l2.126,1.064l1.545,1.06l1.352,1.355l1.353,1.352l0.965,1.354l0.772,1.256l0.29,1.351l0.193,1.545l-0.193,1.352l-0.29,1.45l-0.869,1.545
						l-0.869,1.255l-1.353,1.352l-1.352,1.257l-1.545,1.062l-2.126,1.062l-2.125,0.965l-2.319,0.871l-2.606,0.771l-2.416,0.579l-5.795,0.868l-2.897,0.292h-2.318l1.352-2.802l1.16-3.961v-0.29l0.773-3.766l0.193-3.863l-0.193-3.96l-0.773-3.864v-0.193l-1.16-3.669
						l-1.352-3.09l2.318,0.096z M75.337,76.206l-0.193,0.095l-0.192,0.098l-0.097,0.194l-0.097,0.191l0.097,0.291l1.739,3.959l1.16,3.67l0.675,3.575l0.193,3.96l-0.193,3.863l-0.675,3.575l-1.16,3.956l-1.739,3.673l-0.097,0.192l0.097,0.29l0.097,0.193l0.192,0.097
						h0.193h3.284l2.897-0.29l5.893-0.868h0.29l2.511-0.678l2.608-0.771l2.317-0.869l2.125-0.969l2.125-1.06l1.738-1.158l0.192-0.097l1.354-1.256l1.352-1.352l0.097-0.196l0.965-1.446l0.869-1.546l0.387-1.544v-0.291l0.194-1.449l-0.194-1.641v-0.194l-0.387-1.545
						l-0.869-1.448l-0.096-0.192l-0.966-1.353l-1.352-1.352l-1.354-1.354l-0.192-0.099l-1.738-1.159l-2.125-1.061l-2.125-0.967l-2.317-0.773l-2.608-0.963L87.7,77.463l-0.29-0.099l-5.893-0.771l-2.897-0.194l-3.284-0.192z"/>
					<path style="&st4;" d="M78.621,77.559"/>
					<path style="&st6;" d="M109.479,89.247c1.53,0,2.753,1.437,2.753,3.232c0,1.8-1.224,3.236-2.753,3.236c-1.528,0-2.752-1.437-2.752-3.236c0-1.796,1.224-3.232,2.752-3.232z"/>
					<path style="&st3;" d="M109.479,88.088c2.175,0,3.913,1.95,3.913,4.392c0,2.445-1.738,4.395-3.913,4.395c-2.172,0-3.912-1.949-3.912-4.395c0-2.441,1.74-4.392,3.912-4.392z M109.479,89.247c-1.528,0-2.752,1.437-2.752,3.232c0,1.8,1.224,3.236,2.752,3.236
						c1.53,0,2.753-1.437,2.753-3.236c0-1.796-1.224-3.232-2.753-3.232z"/>
					<path style="&st3;" d="M113.392,23.18v1.16h34.964v17.192L31.197,64.229L31.1,64.327l-0.191,0.097l-0.098,0.192l-0.096,0.193l-0.098,16.419l0.098,0.29l0.096,0.192l0.194,0.099h0.192h46.556v-1.16H31.777l0.097-15.356l117.158-22.698h0.192l0.195-0.098
						l0.097-0.191v-0.292V23.76v-0.192l-0.097-0.194l-0.195-0.097l-0.288-0.097h-35.544"/>
					<path style="&st3;" d="M112.715,92.144v1.16h35.544h0.29l0.194-0.1l0.096-0.19v-0.291V74.466v-0.191l-0.096-0.194l-0.194-0.098l-0.193-0.095L31.197,51.19L31.1,35.833h45.976v-1.16H30.521l-0.192,0.098l-0.195,0.097l-0.096,0.192l-0.097,0.193l0.097,16.42
						l0.096,0.289l0.097,0.194l0.193,0.096h0.097L147.68,74.95v17.193h-34.965"/>
					<path style="&st3;" d="M76.69,12.459V11.3H23.954v1.159H76.69"/>
					<path style="&st3;" d="M76.786,103.925v-1.157H24.05v1.157h52.735"/>
					<text transform="matrix(1 0 0 1 6.9536 16.5156)"><tspan x="0" y="0" style="&st10;">S</tspan></text>
					<text transform="matrix(1 0 0 1 6.1821 107.9824)"><tspan x="0" y="0" style="&st10;">R</tspan></text>
					<text transform="matrix(1 0 0 1 156.8564 28.4927)"><tspan x="0" y="0" style="&st10;">QB</tspan></text>
					<text transform="matrix(1 0 0 1 156.8564 97.3584)"><tspan x="0" y="0" style="&st10;">Q</tspan></text>
					<text transform="matrix(1 0 0 1 378.3262 45.395)"><tspan x="0" y="0" style="&st7;">hold</tspan></text>
					<text transform="matrix(1 0 0 1 319.4082 45.395)"><tspan x="0" y="0" style="&st7;">QB</tspan></text>
					<text transform="matrix(1 0 0 1 335.0557 48.4863)"><tspan x="0" y="0" style="&st7; &st0;">n</tspan></text>
					<text transform="matrix(1 0 0 1 284.0605 45.395)"><tspan x="0" y="0" style="&st7;">Q</tspan></text>
					<text transform="matrix(1 0 0 1 292.4629 48.4863)"><tspan x="0" y="0" style="&st7; &st0;">n</tspan></text>
					<text transform="matrix(1 0 0 1 255.9521 45.395)"><tspan x="0" y="0">0</tspan></text>
					<text transform="matrix(1 0 0 1 230.4541 45.395)"><tspan x="0" y="0">0</tspan></text>
					<text transform="matrix(1 0 0 1 361.2324 100.7412)"><tspan x="0" y="0" style="&st7;">not allowed</tspan></text>
					<text transform="matrix(1 0 0 1 326.1689 100.7412)"><tspan x="0" y="0" style="&st7;">0</tspan></text>
					<text transform="matrix(1 0 0 1 287.1494 100.7412)"><tspan x="0" y="0" style="&st7;">0</tspan></text>
					<text transform="matrix(1 0 0 1 255.9521 100.7412)"><tspan x="0" y="0">1</tspan></text>
					<text transform="matrix(1 0 0 1 230.4541 100.7412)"><tspan x="0" y="0">1</tspan></text>
					<text transform="matrix(1 0 0 1 376.5869 82.291)"><tspan x="0" y="0" style="&st7;">reset</tspan></text>
					<text transform="matrix(1 0 0 1 326.1689 82.291)"><tspan x="0" y="0" style="&st7;">1</tspan></text>
					<text transform="matrix(1 0 0 1 287.1494 82.291)"><tspan x="0" y="0" style="&st7;">0</tspan></text>
					<text transform="matrix(1 0 0 1 255.9521 82.291)"><tspan x="0" y="0">1</tspan></text>
					<text transform="matrix(1 0 0 1 230.4541 82.291)"><tspan x="0" y="0">0</tspan></text>
					<text transform="matrix(1 0 0 1 381.3184 63.8428)"><tspan x="0" y="0" style="&st7;">set</tspan></text>
					<text transform="matrix(1 0 0 1 326.1689 63.8428)"><tspan x="0" y="0" style="&st7;">0</tspan></text>
					<text transform="matrix(1 0 0 1 287.1494 63.8428)"><tspan x="0" y="0" style="&st7;">1</tspan></text>
					<text transform="matrix(1 0 0 1 255.9521 63.8428)"><tspan x="0" y="0">0</tspan></text>
					<text transform="matrix(1 0 0 1 230.4541 63.8428)"><tspan x="0" y="0">1</tspan></text>
					<text transform="matrix(1 0 0 1 363.0664 24.5317)"><tspan x="0" y="0">Operation</tspan></text>
					<text transform="matrix(1 0 0 1 314.9668 24.5317)"><tspan x="0" y="0">QB</tspan></text>
					<text transform="matrix(1 0 0 1 331.1924 27.623)"><tspan x="0" y="0" style="&st0;">n+1</tspan></text>
					<text transform="matrix(1 0 0 1 279.9062 24.5317)"><tspan x="0" y="0">Q</tspan></text>
					<text transform="matrix(1 0 0 1 288.3086 27.623)"><tspan x="0" y="0" style="&st0;">n+1</tspan></text>
					<text transform="matrix(1 0 0 1 254.9854 24.5317)"><tspan x="0" y="0">R</tspan></text>
					<text transform="matrix(1 0 0 1 229.875 24.5317)"><tspan x="0" y="0">S</tspan></text>
					<path style="&st3;" d="M220.795,10.915v0.773h206.694v-0.773H220.795"/>
					<path style="&st3;" d="M221.181,31.776v0.772h205.921v-0.772H221.181"/>
					<path style="&st3;" d="M221.181,68.672v0.773h205.921v-0.773H221.181"/>
					<path style="&st3;" d="M221.181,87.12v0.774h205.921V87.12H221.181"/>
					<path style="&st3;" d="M220.795,105.568v0.774h206.694v-0.774H220.795"/>
					<path style="&st3;" d="M221.567,10.915h-0.772v95.428h0.772V10.915"/>
					<path style="&st3;" d="M427.489,10.915h-0.774v95.428h0.774V10.915"/>
					<path style="&st3;" d="M221.181,50.225v0.772h205.921v-0.772H221.181"/>
				</g>
			</g>
		</g>
	</g>
</svg>
