<?xml version="1.0" encoding="iso-8859-1"?>
<!-- Generator: Adobe Illustrator 9.0, SVG Export Plug-In  -->
<!DOCTYPE svg PUBLIC "-//W3C//DTD SVG 20000303 Stylable//EN"   "http://www.w3.org/TR/2000/03/WD-SVG-20000303/DTD/svg-20000303-stylable.dtd" [
	<!ENTITY st0 "fill-rule:nonzero;clip-rule:nonzero;">
	<!ENTITY st1 "font-size:11.9611;">
	<!ENTITY st2 "fill:#FFFFFF;">
	<!ENTITY st3 "font-family:'Helvetica';">
	<!ENTITY st4 "fill-rule:nonzero;clip-rule:nonzero;fill:none;">
	<!ENTITY st5 "fill-rule:evenodd;clip-rule:evenodd;stroke:none;">
	<!ENTITY st6 "fill-rule:nonzero;clip-rule:nonzero;stroke:#000000;stroke-miterlimit:4;">
	<!ENTITY st7 "fill-rule:nonzero;clip-rule:nonzero;fill:none;stroke:#FFFFFF;stroke-width:0;stroke-miterlimit:10;">
	<!ENTITY st8 "clip-path:url(#aiclp1);">
]>
<svg  width="248.567pt" height="185.023pt" viewBox="0 0 248.567 185.023" xml:space="preserve">
	<g id="Calque_x0020_1" style="&st6; &st3; &st1;">
		<g style="&st5;">
			<g>
				<clipPath id="aiclp1" style="&st4;">
					<path d="M0,185.023V0h248.567v185.023H0z"/>
				</clipPath>
				<g style="&st8;">
					<path d="M148.673,38.5v-1.122h-11.307l-0.187,0.094l-0.187,0.093l-0.094,0.187l-0.093,0.187v6.821h-9.812v-6.821v-0.187l-0.093-0.187l-0.187-0.093l-0.281-0.094h-9.812V38.5h9.251v6.821l0.093,0.28l0.094,0.187l0.187,0.094h0.187h10.934h0.28l0.187-0.094
						l0.094-0.187v-0.28V38.5h10.747"/>
					<path d="M137.459,47.471V46.35h-11.307v1.121h11.307"/>
					<path d="M132.787,47.19h-1.122v10.092h1.122V47.19"/>
					<path d="M114.939,37.378V38.5h11.307h0.28l0.187-0.093l0.093-0.187v-0.28v-6.822h9.812v6.822l0.094,0.28l0.093,0.187l0.187,0.093h0.187h9.812v-1.122h-9.251v-6.822V30.37l-0.093-0.186l-0.187-0.094l-0.28-0.093h-10.934l-0.187,0.093l-0.187,0.094l-0.093,0.186
						l-0.094,0.187v6.822h-10.747"/>
					<path d="M126.152,28.501v1.122h11.307v-1.122h-11.307"/>
					<path d="M131.619,24.109c1.375,0,2.477,1.142,2.477,2.57c0,1.427-1.101,2.57-2.477,2.57c-1.375,0-2.477-1.143-2.477-2.57c0-1.428,1.102-2.57,2.477-2.57z M131.619,25.23c-0.752,0-1.355,0.644-1.355,1.449c0,0.804,0.603,1.448,1.355,1.448
						c0.753,0,1.355-0.644,1.355-1.448c0-0.805-0.602-1.449-1.355-1.449z"/>
					<path d="M132.133,16.82h-1.121v7.85h1.121v-7.85"/>
					<path d="M148.486,107.557v-1.122H137.18l-0.187,0.093l-0.187,0.093l-0.093,0.187l-0.094,0.187v6.822h-9.812v-6.822v-0.187l-0.093-0.187l-0.187-0.093l-0.28-0.093h-9.812v1.122h9.251v6.821l0.094,0.281l0.093,0.187l0.187,0.093h0.187h10.934h0.28l0.187-0.093
						l0.093-0.187v-0.281v-6.821h10.747"/>
					<path d="M137.272,116.527v-1.121h-11.307v1.121h11.307"/>
					<path d="M132.601,116.247h-1.121v10.093h1.121v-10.093"/>
					<path d="M114.752,106.436v1.122h11.307h0.28l0.187-0.094l0.093-0.187v-0.28v-6.822h9.812v6.822l0.094,0.28l0.093,0.187l0.187,0.094h0.187h9.812v-1.122h-9.251v-6.821v-0.187l-0.093-0.187l-0.187-0.093l-0.28-0.094h-10.934l-0.187,0.094l-0.187,0.093
						l-0.094,0.187l-0.093,0.187v6.821h-10.747"/>
					<path d="M125.965,97.558v1.122h11.307v-1.122h-11.307"/>
					<path d="M131.433,93.166c1.375,0,2.476,1.142,2.476,2.57s-1.101,2.57-2.476,2.57c-1.375,0-2.477-1.142-2.477-2.57s1.102-2.57,2.477-2.57z M131.433,94.287c-0.753,0-1.355,0.644-1.355,1.449s0.603,1.448,1.355,1.448c0.752,0,1.354-0.644,1.354-1.448
						s-0.602-1.449-1.354-1.449z"/>
					<path d="M131.946,85.877h-1.121v7.85h1.121v-7.85"/>
					<path d="M145.248,37.409v1.122h101.108v-1.122H145.248"/>
					<path d="M144.406,106.466v1.122h101.109v-1.122H144.406"/>
					<path style="&st2;" d="M212.403,107.183l-26.258-12.522v25.137l26.258-12.615"/>
					<path style="&st7;" d="M212.403,107.183"/>
					<path style="&st7;" d="M185.585,93.82"/>
					<path style="&st7;" d="M213.806,120.826"/>
					<path d="M186.426,94.194l-0.841-0.374v0.841v25.137v0.935l0.841-0.374l26.258-12.615l1.028-0.561l-1.028-0.467l-26.258-12.522z M211.096,107.183l-24.39,11.774V95.596l24.39,11.587z"/>
					<path style="&st7;" d="M186.426,94.194"/>
					<path style="&st2;" d="M216.469,103.726c1.842,0,3.317,1.599,3.317,3.598s-1.476,3.598-3.317,3.598c-1.843,0-3.317-1.599-3.317-3.598s1.475-3.598,3.317-3.598z"/>
					<path d="M216.469,102.604c2.466,0,4.438,2.098,4.438,4.719c0,2.621-1.973,4.719-4.438,4.719s-4.439-2.098-4.439-4.719c0-2.622,1.974-4.719,4.439-4.719z M216.469,103.726c-1.843,0-3.317,1.599-3.317,3.598s1.475,3.598,3.317,3.598
						c1.842,0,3.317-1.599,3.317-3.598s-1.476-3.598-3.317-3.598z"/>
					<path style="&st2;" d="M211.655,38.22l-26.258-12.522v25.137l26.258-12.615"/>
					<path style="&st7;" d="M211.655,38.22"/>
					<path style="&st7;" d="M184.837,24.856"/>
					<path style="&st7;" d="M213.058,51.863"/>
					<path d="M185.678,25.23l-0.841-0.374v0.841v25.137v0.935l0.841-0.374l26.259-12.615l1.027-0.561l-1.027-0.467L185.678,25.23z M210.349,38.22l-24.391,11.774V26.632l24.391,11.587z"/>
					<path style="&st7;" d="M185.678,25.23"/>
					<path style="&st2;" d="M215.722,34.762c1.842,0,3.316,1.599,3.316,3.598c0,1.999-1.475,3.597-3.316,3.597c-1.843,0-3.318-1.598-3.318-3.597c0-1.999,1.476-3.598,3.318-3.598z"/>
					<path d="M215.722,33.641c2.466,0,4.438,2.098,4.438,4.719c0,2.621-1.973,4.719-4.438,4.719c-2.467,0-4.439-2.098-4.439-4.719c0-2.622,1.973-4.719,4.439-4.719z M215.722,34.762c-1.843,0-3.318,1.599-3.318,3.598c0,1.999,1.476,3.597,3.318,3.597
						c1.842,0,3.316-1.598,3.316-3.597c0-1.999-1.475-3.598-3.316-3.598z"/>
					<path d="M127.087,38.5v-1.122H96.063l-0.187,0.094l-0.187,0.093l-0.093,0.187l-0.093,0.187v128.582l0.093,0.28l0.093,0.187l0.187,0.094h0.187H203.06v-1.121H96.624V38.5h30.463"/>
					<path style="&st2;" d="M176.52,166.241l-26.258-12.522v25.138l26.258-12.615"/>
					<path style="&st7;" d="M176.52,166.241"/>
					<path style="&st7;" d="M149.701,152.879"/>
					<path style="&st7;" d="M177.922,179.885"/>
					<path d="M150.542,153.252l-0.841-0.373v0.84v25.138v0.935l0.841-0.374l26.258-12.615l1.028-0.561l-1.028-0.468l-26.258-12.521z M175.212,166.241l-24.389,11.774v-23.362l24.389,11.588z"/>
					<path style="&st7;" d="M150.542,153.252"/>
					<path style="&st2;" d="M180.585,162.784c1.843,0,3.317,1.598,3.317,3.597s-1.475,3.599-3.317,3.599s-3.317-1.6-3.317-3.599s1.475-3.597,3.317-3.597z"/>
					<path d="M180.585,161.662c2.467,0,4.438,2.098,4.438,4.719c0,2.622-1.972,4.719-4.438,4.719c-2.466,0-4.438-2.097-4.438-4.719c0-2.621,1.973-4.719,4.438-4.719z M180.585,162.784c-1.843,0-3.317,1.598-3.317,3.597s1.475,3.599,3.317,3.599
						s3.317-1.6,3.317-3.599s-1.475-3.597-3.317-3.597z"/>
					<path d="M1.869,106.436v1.122H118.49v-1.122H1.869"/>
					<path style="&st2;" d="M41.303,106.809L15.045,94.287v25.137l26.258-12.615"/>
					<path style="&st7;" d="M41.303,106.809"/>
					<path style="&st7;" d="M14.484,93.447"/>
					<path style="&st7;" d="M42.705,120.452"/>
					<path d="M15.325,93.82l-0.841-0.374v0.84v25.137v0.934l0.841-0.373l26.259-12.615l1.027-0.561l-1.027-0.467L15.325,93.82z M39.995,106.809l-24.389,11.774V95.222l24.389,11.587z"/>
					<path style="&st7;" d="M15.325,93.82"/>
					<path style="&st2;" d="M45.368,103.352c1.843,0,3.317,1.599,3.317,3.598c0,1.999-1.474,3.598-3.317,3.598c-1.843,0-3.317-1.599-3.317-3.598c0-1.999,1.475-3.598,3.317-3.598z"/>
					<path d="M45.368,102.23c2.466,0,4.439,2.097,4.439,4.719c0,2.622-1.973,4.719-4.439,4.719c-2.466,0-4.438-2.097-4.438-4.719c0-2.622,1.972-4.719,4.438-4.719z M45.368,103.352c-1.843,0-3.317,1.599-3.317,3.598c0,1.999,1.475,3.598,3.317,3.598
						c1.843,0,3.317-1.599,3.317-3.598c0-1.999-1.474-3.598-3.317-3.598z"/>
					<text transform="matrix(1 0 0 1 134.9365 14.5776)"><tspan x="0" y="0" style="&st0;">P1</tspan></text>
					<text transform="matrix(1 0 0 1 138.394 87.2788)"><tspan x="0" y="0" style="&st0;">P2</tspan></text>
					<path d="M163.251,38.061h-1.121v13.522h1.121V38.061"/>
					<path d="M156.429,50.676v1.122h12.616v-1.122h-12.616"/>
					<path d="M156.336,55.255v1.121h12.615v-1.121h-12.615"/>
					<path d="M163.251,55.909h-1.121v12.522h1.121V55.909"/>
					<path d="M156.429,68.244v1.122h12.616v-1.122h-12.616"/>
					<path d="M163.251,106.996h-1.121v12.522h1.121v-12.522"/>
					<path d="M156.429,119.612v1.121h12.616v-1.121h-12.616"/>
					<path d="M156.336,124.189v1.122h12.615v-1.122h-12.615"/>
					<path d="M163.251,124.844h-1.121v12.522h1.121v-12.522"/>
					<path d="M156.429,137.179v1.122h12.616v-1.122h-12.616"/>
					<path d="M66.253,107.463h-1.122v12.522h1.122v-12.522"/>
					<path d="M59.432,120.078v1.122h12.616v-1.122H59.432"/>
					<path d="M59.338,124.657v1.121h12.615v-1.121H59.338"/>
					<path d="M66.253,125.312h-1.122v12.521h1.122v-12.521"/>
					<path d="M59.432,137.646v1.121h12.616v-1.121H59.432"/>
					<text transform="matrix(1 0 0 1 77.3735 135.3105)"><tspan x="0" y="0" style="&st0;">C</tspan></text>
					<text transform="matrix(1 0 0 1 19.5303 111.855)"><tspan x="0" y="0" style="&st0;">1</tspan></text>
					<text transform="matrix(1 0 0 1 172.502 64.478)"><tspan x="0" y="0" style="&st0;">C1</tspan></text>
					<text transform="matrix(1 0 0 1 172.502 136.6182)"><tspan x="0" y="0" style="&st0;">C2</tspan></text>
				</g>
			</g>
		</g>
	</g>
</svg>
