<?xml version="1.0" encoding="iso-8859-1"?>
<!-- Generator: Adobe Illustrator 9.0, SVG Export Plug-In  -->
<!DOCTYPE svg PUBLIC "-//W3C//DTD SVG 20000303 Stylable//EN"   "http://www.w3.org/TR/2000/03/WD-SVG-20000303/DTD/svg-20000303-stylable.dtd" [
	<!ENTITY st0 "fill-rule:nonzero;clip-rule:nonzero;">
	<!ENTITY st1 "font-size:11.1819;">
	<!ENTITY st2 "fill:#FFFFFF;">
	<!ENTITY st3 "font-family:'Helvetica';">
	<!ENTITY st4 "fill-rule:nonzero;clip-rule:nonzero;fill:none;">
	<!ENTITY st5 "fill-rule:evenodd;clip-rule:evenodd;stroke:none;">
	<!ENTITY st6 "fill-rule:nonzero;clip-rule:nonzero;stroke:#000000;stroke-miterlimit:4;">
	<!ENTITY st7 "clip-path:url(#aiclp1);">
]>
<svg  width="350.056pt" height="176.736pt" viewBox="0 0 350.056 176.736" xml:space="preserve">
	<g id="Calque_x0020_1" style="&st6; &st3; &st1;">
		<g style="&st5;">
			<g>
				<clipPath id="aiclp1" style="&st4;">
					<path d="M0,176.736V0h350.056v176.736H0z"/>
				</clipPath>
				<g style="&st7;">
					<path d="M314.957,76.565h-0.933v14.909h0.933V76.565"/>
					<path d="M318.685,76.565h-0.934v14.909h0.934V76.565"/>
					<path d="M314.491,77.031v-0.932H303.31v0.932h11.182"/>
					<path d="M314.491,91.94v-0.932H303.31v0.932h11.182"/>
					<path style="&st2;" d="M321.169,81.301c1.424,0,2.562,1.139,2.562,2.562c0,1.424-1.139,2.563-2.562,2.563s-2.562-1.139-2.562-2.563c0-1.423,1.139-2.562,2.562-2.562z"/>
					<path d="M321.169,80.37c1.94,0,3.494,1.553,3.494,3.494c0,1.941-1.554,3.495-3.494,3.495c-1.941,0-3.494-1.553-3.494-3.495c0-1.941,1.553-3.494,3.494-3.494z M321.169,81.301c-1.424,0-2.562,1.139-2.562,2.562c0,1.424,1.139,2.563,2.562,2.563
						s2.562-1.139,2.562-2.563c0-1.423-1.139-2.562-2.562-2.562z"/>
					<path d="M313.946,128.669h0.933v-14.91h-0.933v14.91"/>
					<path d="M317.675,128.669h0.932v-14.91h-0.932v14.91"/>
					<path d="M314.413,129.135v-0.933H303.23v0.933h11.183"/>
					<path d="M314.413,114.226v-0.932H303.23v0.932h11.183"/>
					<path d="M318.296,120.905v0.931h11.725v-0.931h-11.725"/>
					<path d="M49.697,54.201v0.932h14.909v-0.932H49.697"/>
					<path d="M49.697,50.473v0.932h14.909v-0.932H49.697"/>
					<path d="M50.163,54.745h-0.932v11.182h0.932V54.745"/>
					<path d="M65.072,54.667h-0.932v11.182h0.932V54.667"/>
					<path d="M56.686,50.94h0.932V39.214h-0.932V50.94"/>
					<path d="M9.085,53.813L8.62,54.589l18.636,11.182l0.466-0.776L9.085,53.813"/>
					<path d="M8.62,76.176l0.465,0.777l18.637-11.182l-0.466-0.776L8.62,76.176"/>
					<path d="M9.318,54.201H8.387v22.364h0.932V54.201"/>
					<path d="M31.216,61.19c2.33,0,4.193,1.863,4.193,4.193c0,2.329-1.864,4.193-4.193,4.193c-2.329,0-4.193-1.864-4.193-4.193c0-2.33,1.864-4.193,4.193-4.193z M31.216,62.122c-1.812,0-3.261,1.449-3.261,3.262c0,1.811,1.45,3.261,3.261,3.261
						c1.812,0,3.262-1.45,3.262-3.261c0-1.812-1.45-3.262-3.262-3.262z"/>
					<path d="M91.085,53.813l-0.465,0.776l18.636,11.182l0.466-0.776L91.085,53.813"/>
					<path d="M90.62,76.176l0.465,0.777l18.637-11.182l-0.466-0.776L90.62,76.176"/>
					<path d="M91.319,54.201h-0.932v22.364h0.932V54.201"/>
					<path d="M113.216,61.19c2.33,0,4.193,1.863,4.193,4.193c0,2.329-1.863,4.193-4.193,4.193c-2.329,0-4.193-1.864-4.193-4.193c0-2.33,1.864-4.193,4.193-4.193z M113.216,62.122c-1.811,0-3.261,1.449-3.261,3.262c0,1.811,1.45,3.261,3.261,3.261
						c1.812,0,3.262-1.45,3.262-3.261c0-1.812-1.45-3.262-3.262-3.262z"/>
					<path d="M113.449,80.68l-0.466-0.776L94.347,91.085l0.466,0.777l18.636-11.182"/>
					<path d="M112.983,103.044l0.466-0.776L94.813,91.085l-0.466,0.777l18.636,11.182"/>
					<path d="M113.683,80.292h-0.932v22.364h0.932V80.292"/>
					<path d="M90.853,87.281c2.33,0,4.193,1.864,4.193,4.193c0,2.329-1.863,4.193-4.193,4.193c-2.329,0-4.193-1.864-4.193-4.193c0-2.33,1.864-4.193,4.193-4.193z M90.853,88.212c-1.812,0-3.261,1.449-3.261,3.262c0,1.812,1.45,3.261,3.261,3.261
						c1.812,0,3.262-1.449,3.262-3.261c0-1.812-1.449-3.262-3.262-3.262z"/>
					<path d="M34.943,64.917v0.932h14.909v-0.932H34.943"/>
					<path d="M64.762,64.917v0.932h26.091v-0.932H64.762"/>
					<path d="M80.137,65.383h-0.932v26.091h0.932V65.383"/>
					<path d="M79.671,91.008v0.932h7.455v-0.932h-7.455"/>
					<path d="M113.216,91.008v0.932h14.91v-0.932h-14.91"/>
					<path d="M127.66,91.474h0.932V65.383h-0.932v26.091"/>
					<path d="M135.581,65.849v-0.932h-18.637v0.932h18.637"/>
					<path d="M8.853,65.849v-0.932H1.397v0.932h7.455"/>
					<path d="M299.581,21.121v-0.932h-18.637v0.932h18.637"/>
					<path d="M299.581,50.94v-0.932h-18.637v0.932h18.637"/>
					<path d="M299.581,20.189v0.932l1.553,0.078l1.398,0.233l1.32,0.311l1.397,0.543l1.242,0.622l1.087,0.621v0.078l1.166,0.854l1.086,0.932l0.932,1.087l0.855,1.087l0.698,1.087l0.621,1.32l0.466,1.398l0.389,1.32l0.154,1.397l0.078,1.476h0.933l-0.078-1.476
						l-0.233-1.475v-0.233l-0.388-1.398l-0.466-1.398l-0.621-1.32l-0.776-1.242l-0.078-0.155l-0.854-1.087l-0.932-1.087l-1.088-0.932l-1.164-0.854l-0.156-0.078l-1.242-0.776l-1.242-0.621l-1.396-0.544l-1.477-0.31L302.61,20.5l-1.477-0.233l-1.553-0.078"/>
					<path d="M299.581,50.008v0.932l1.553-0.078l1.477-0.233h0.154l1.477-0.388l1.396-0.466l1.242-0.622l1.242-0.776l0.156-0.078l1.164-0.854l1.088-0.932l0.932-1.087l0.854-1.165l0.078-0.155l0.776-1.243l0.621-1.242l0.466-1.398l0.388-1.475v-0.156l0.233-1.475
						l0.078-1.553h-0.933l-0.078,1.553l-0.154,1.398l-0.389,1.32l-0.466,1.397l-0.621,1.243l-0.698,1.087l-0.855,1.165l-0.932,1.087l-1.086,0.932l-1.166,0.854l-1.087,0.699l-1.242,0.621l-1.397,0.466l-1.32,0.388l-1.398,0.155l-1.553,0.078"/>
					<path d="M281.411,20.655h-0.932v29.818h0.932V20.655"/>
					<path d="M318.218,31.372c2.329,0,4.193,1.863,4.193,4.193c0,2.33-1.864,4.193-4.193,4.193c-2.33,0-4.193-1.863-4.193-4.193c0-2.33,1.863-4.193,4.193-4.193z M318.218,32.303c-1.812,0-3.261,1.449-3.261,3.261c0,1.812,1.448,3.261,3.261,3.261
						s3.262-1.45,3.262-3.261c0-1.812-1.449-3.261-3.262-3.261z"/>
					<path d="M273.489,27.644v0.932h7.455v-0.932h-7.455"/>
					<path d="M273.489,42.553v0.932h7.455v-0.932h-7.455"/>
					<path d="M273.024,87.281v0.932h14.909v-0.932h-14.909"/>
					<path d="M272.714,83.553v0.932h14.91v-0.932h-14.91"/>
					<path d="M288.089,87.747h-0.932v11.182h0.932V87.747"/>
					<path style="&st2;" d="M280.013,78.506c1.425,0,2.562,1.139,2.562,2.562c0,1.423-1.138,2.562-2.562,2.562c-1.423,0-2.562-1.139-2.562-2.562c0-1.424,1.14-2.562,2.562-2.562z"/>
					<path d="M280.013,77.575c1.941,0,3.495,1.553,3.495,3.494s-1.554,3.494-3.495,3.494s-3.494-1.553-3.494-3.494s1.553-3.494,3.494-3.494z M280.013,78.506c-1.423,0-2.562,1.139-2.562,2.562c0,1.423,1.14,2.562,2.562,2.562c1.425,0,2.562-1.139,2.562-2.562
						c0-1.424-1.138-2.562-2.562-2.562z"/>
					<path d="M273.335,116.323v0.932h14.91v-0.932h-14.91"/>
					<path d="M273.335,120.05v0.932h14.91v-0.932h-14.91"/>
					<path d="M272.87,116.789h0.931l0.155-29.042h-0.932l-0.154,29.042"/>
					<path d="M287.778,116.789h0.932v-11.182h-0.932v11.182"/>
					<path d="M281.255,120.671h-0.931v11.726h0.931v-11.726"/>
					<path d="M288.399,98.463v0.932h14.91v-0.932h-14.91"/>
					<path d="M288.399,105.917v0.932h14.91v-0.932h-14.91"/>
					<path d="M302.843,98.928h0.932v-7.454h-0.932v7.454"/>
					<path d="M302.843,113.838h0.932v-7.455h-0.932v7.455"/>
					<path d="M324.12,83.941v0.932h5.279v-0.932h-5.279"/>
					<path d="M329.866,84.02h-0.932v37.273h0.932V84.02"/>
					<path d="M302.843,76.565h0.932V65.383h-0.932v11.182"/>
					<path d="M299.581,64.917v0.932h7.455v-0.932h-7.455"/>
					<path d="M299.194,65.15l0.854,0.466l3.727-7.455l-0.854-0.466l-3.727,7.455"/>
					<path d="M306.648,65.616l0.854-0.466l-3.729-7.455l-0.854,0.466l3.728,7.455"/>
					<path d="M303.774,128.747h-0.932v11.183h0.932v-11.183"/>
					<path d="M299.581,139.463v0.931h7.455v-0.931h-7.455"/>
					<path d="M300.048,139.696l-0.854,0.466l3.727,7.455l0.854-0.467l-3.727-7.454"/>
					<path d="M307.503,140.162l-0.854-0.466l-3.728,7.454l0.854,0.467l3.729-7.455"/>
					<path d="M273.489,103.122v-0.932h-11.181v0.932h11.181"/>
					<path d="M261.843,102.656h0.932V43.019h-0.932v59.637"/>
					<path d="M273.489,43.485v-0.932h-29.817v0.932h29.817"/>
					<path d="M244.138,24.383h-0.932v52.182h0.932V24.383"/>
					<path d="M206.399,12.735v0.932h14.909v-0.932h-14.909"/>
					<path d="M206.399,9.008v0.932h14.909V9.008h-14.909"/>
					<path d="M206.864,13.201h-0.931v11.182h0.931V13.201"/>
					<path d="M221.774,13.201h-0.932v11.182h0.932V13.201"/>
					<path d="M213.388,9.473h0.932v-7.92h-0.932v7.92"/>
					<path d="M206.477,34.555v0.932h14.909v-0.932h-14.909"/>
					<path d="M206.477,38.282v0.932h14.909v-0.932h-14.909"/>
					<path d="M206.011,35.021h0.932V23.839h-0.932v11.182"/>
					<path d="M220.921,35.021h0.931V23.839h-0.931v11.182"/>
					<path d="M213.776,38.205c1.941,0,3.494,1.553,3.494,3.495c0,1.941-1.553,3.494-3.494,3.494s-3.495-1.553-3.495-3.494c0-1.941,1.554-3.495,3.495-3.495z M213.776,39.137c-1.425,0-2.562,1.139-2.562,2.562c0,1.423,1.138,2.562,2.562,2.562
						c1.423,0,2.562-1.139,2.562-2.562c0-1.424-1.14-2.562-2.562-2.562z"/>
					<path d="M206.399,63.208v0.932h14.909v-0.932h-14.909"/>
					<path d="M206.399,59.481v0.932h14.909v-0.932h-14.909"/>
					<path d="M206.864,63.674h-0.931v11.182h0.931V63.674"/>
					<path d="M221.774,63.674h-0.932v11.182h0.932V63.674"/>
					<path d="M213.388,59.947h0.932v-7.92h-0.932v7.92"/>
					<path d="M206.477,85.029v0.932h14.909v-0.932h-14.909"/>
					<path d="M206.477,88.756v0.932h14.909v-0.932h-14.909"/>
					<path d="M206.011,85.495h0.932V74.313h-0.932v11.182"/>
					<path d="M220.921,85.495h0.931V74.313h-0.931v11.182"/>
					<path d="M213.776,88.678c1.941,0,3.494,1.553,3.494,3.494c0,1.942-1.553,3.495-3.494,3.495s-3.495-1.553-3.495-3.495c0-1.941,1.554-3.494,3.495-3.494z M213.776,89.61c-1.425,0-2.562,1.139-2.562,2.562c0,1.424,1.138,2.563,2.562,2.563
						c1.423,0,2.562-1.139,2.562-2.563c0-1.423-1.14-2.562-2.562-2.562z"/>
					<path d="M221.309,23.917v0.932h22.363v-0.932h-22.363"/>
					<path d="M221.309,76.099v0.932h22.363v-0.932h-22.363"/>
					<path d="M206.399,24.848v-0.932h-11.182v0.932h11.182"/>
					<path d="M206.399,77.031v-0.932h-11.182v0.932h11.182"/>
					<path d="M321.945,35.099v0.932h18.637v-0.932h-18.637"/>
					<path d="M341.048,35.564h-0.932v67.091h0.932V35.564"/>
					<path d="M340.582,103.122v-0.932h-11.183v0.932h11.183"/>
					<path d="M340.582,35.099v0.932h7.454v-0.932h-7.454"/>
					<path d="M169.359,12.812l-0.466,0.776l18.636,11.182l0.466-0.776l-18.636-11.182"/>
					<path d="M168.893,35.176l0.466,0.776l18.636-11.182l-0.466-0.776l-18.636,11.182"/>
					<path d="M169.592,13.201h-0.932v22.364h0.932V13.201"/>
					<path d="M191.489,20.189c2.33,0,4.193,1.864,4.193,4.193c0,2.329-1.863,4.193-4.193,4.193c-2.329,0-4.192-1.864-4.192-4.193c0-2.33,1.863-4.193,4.192-4.193z M191.489,21.121c-1.812,0-3.261,1.45-3.261,3.262c0,1.812,1.449,3.261,3.261,3.261
						c1.812,0,3.262-1.45,3.262-3.261c0-1.812-1.449-3.262-3.262-3.262z"/>
					<path d="M169.359,64.995l-0.466,0.776l18.636,11.182l0.466-0.777l-18.636-11.182"/>
					<path d="M168.893,87.358l0.466,0.777l18.636-11.182l-0.466-0.777l-18.636,11.182"/>
					<path d="M169.592,65.383h-0.932v22.363h0.932V65.383"/>
					<path d="M191.489,72.372c2.33,0,4.193,1.863,4.193,4.193c0,2.33-1.863,4.193-4.193,4.193c-2.329,0-4.192-1.864-4.192-4.193c0-2.33,1.863-4.193,4.192-4.193z M191.489,73.303c-1.812,0-3.261,1.45-3.261,3.262s1.449,3.262,3.261,3.262
						c1.812,0,3.262-1.45,3.262-3.262s-1.449-3.262-3.262-3.262z"/>
					<path d="M169.126,24.848v-0.932h-7.455v0.932h7.455"/>
					<path d="M169.126,77.031v-0.932h-7.455v0.932h7.455"/>
					<text transform="matrix(1 0 0 1 10.7158 168.6597)"><tspan x="0" y="0" style="&st0;">a) Simple conflictual latch</tspan></text>
					<text transform="matrix(1 0 0 1 231.2471 171.689)"><tspan x="0" y="0" style="&st0;">b) Multi-clock latch</tspan></text>
				</g>
			</g>
		</g>
	</g>
</svg>
