<?xml version="1.0" encoding="iso-8859-1"?>
<!-- Generator: Adobe Illustrator 9.0, SVG Export Plug-In  -->
<!DOCTYPE svg PUBLIC "-//W3C//DTD SVG 20000303 Stylable//EN"   "http://www.w3.org/TR/2000/03/WD-SVG-20000303/DTD/svg-20000303-stylable.dtd" [
	<!ENTITY st0 "font-size:10.7771;">
	<!ENTITY st1 "fill-rule:nonzero;clip-rule:nonzero;">
	<!ENTITY st2 "font-family:'Helvetica';">
	<!ENTITY st3 "fill-rule:nonzero;clip-rule:nonzero;fill:none;">
	<!ENTITY st4 "fill-rule:evenodd;clip-rule:evenodd;stroke:none;">
	<!ENTITY st5 "fill-rule:nonzero;clip-rule:nonzero;stroke:#000000;stroke-miterlimit:4;">
	<!ENTITY st6 "clip-path:url(#aiclp1);">
]>
<svg  width="348.16pt" height="159.656pt" viewBox="0 0 348.16 159.656" xml:space="preserve">
	<g id="Calque_x0020_1" style="&st5; &st2; &st0;">
		<g style="&st4;">
			<g>
				<clipPath id="aiclp1" style="&st3;">
					<path d="M0,159.635V0h348.16v159.635H0z"/>
				</clipPath>
				<g style="&st6;">
					<path d="M73.344,22.377v0.898h14.37v-0.898h-14.37"/>
					<path d="M73.344,18.785v0.898h14.37v-0.898h-14.37"/>
					<path d="M73.793,22.826h-0.898v10.777h0.898V22.826"/>
					<path d="M88.163,22.826h-0.898v10.777h0.898V22.826"/>
					<path d="M80.08,19.234h0.898V7.933H80.08v11.301"/>
					<path d="M73.494,33.604v-0.898H37.57v0.898h35.924"/>
					<path d="M12.648,22.003l-0.449,0.749l17.962,10.777l0.449-0.749L12.648,22.003"/>
					<path d="M12.199,43.557l0.449,0.749L30.61,33.529l-0.449-0.749L12.199,43.557"/>
					<path d="M12.873,22.377h-0.898v21.555h0.898V22.377"/>
					<path d="M33.978,29.113c2.245,0,4.042,1.796,4.042,4.041c0,2.246-1.796,4.042-4.042,4.042c-2.246,0-4.042-1.796-4.042-4.042c0-2.245,1.796-4.041,4.042-4.041z M33.978,30.011c-1.746,0-3.143,1.397-3.143,3.143s1.397,3.143,3.143,3.143
						c1.747,0,3.143-1.397,3.143-3.143s-1.396-3.143-3.143-3.143z"/>
					<path d="M73.344,61.893v0.898h14.37v-0.898h-14.37"/>
					<path d="M73.344,58.301v0.898h14.37v-0.898h-14.37"/>
					<path d="M73.793,62.417h-0.898v10.777h0.898V62.417"/>
					<path d="M88.163,62.342h-0.898V73.12h0.898V62.342"/>
					<path d="M80.08,58.75h0.898V47.449H80.08V58.75"/>
					<path d="M73.494,73.718V72.82H55.532v0.898h17.962"/>
					<path d="M55.981,33.154h-0.897V72.67h0.897V33.154"/>
					<path d="M73.344,101.41v0.898h14.37v-0.898h-14.37"/>
					<path d="M73.344,97.817v0.898h14.37v-0.898h-14.37"/>
					<path d="M73.793,101.858h-0.898v10.777h0.898v-10.777"/>
					<path d="M88.163,101.858h-0.898v10.777h0.898v-10.777"/>
					<path d="M80.08,98.266h0.898v-11.3H80.08v11.3"/>
					<path d="M73.494,113.235v-0.899H37.57v0.899h35.924"/>
					<path d="M12.648,101.634l-0.449,0.749l17.962,10.777l0.449-0.749l-17.961-10.777"/>
					<path d="M12.199,123.188l0.449,0.748l17.961-10.777l-0.449-0.749l-17.962,10.777"/>
					<path d="M12.873,102.008h-0.898v21.555h0.898v-21.555"/>
					<path d="M33.978,108.744c2.245,0,4.042,1.796,4.042,4.041s-1.796,4.042-4.042,4.042c-2.246,0-4.042-1.797-4.042-4.042s1.796-4.041,4.042-4.041z M33.978,109.642c-1.746,0-3.143,1.397-3.143,3.143c0,1.747,1.397,3.143,3.143,3.143
						c1.747,0,3.143-1.396,3.143-3.143c0-1.746-1.396-3.143-3.143-3.143z"/>
					<path d="M102.233,73.718V72.82h-14.37v0.898h14.37"/>
					<path d="M102.233,113.235v-0.899h-14.37v0.899h14.37"/>
					<path d="M102.682,73.269h-0.898v38.917h0.898V73.269"/>
					<path d="M123.787,33.604v-0.898H87.863v0.898h35.924"/>
					<path d="M123.787,94.674v-0.898h-21.554v0.898h21.554"/>
					<path d="M124.012,22.003l-0.449,0.749l17.962,10.777l0.449-0.749l-17.962-10.777"/>
					<path d="M123.562,43.557l0.449,0.749l17.962-10.777l-0.449-0.749l-17.962,10.777"/>
					<path d="M124.236,22.377h-0.898v21.555h0.898V22.377"/>
					<path d="M145.342,29.113c2.245,0,4.041,1.796,4.041,4.041c0,2.246-1.796,4.042-4.041,4.042c-2.246,0-4.042-1.796-4.042-4.042c0-2.245,1.796-4.041,4.042-4.041z M145.342,30.011c-1.747,0-3.144,1.397-3.144,3.143s1.397,3.143,3.144,3.143
						c1.746,0,3.143-1.397,3.143-3.143s-1.396-3.143-3.143-3.143z"/>
					<path d="M124.012,83.073l-0.449,0.749l17.962,10.777l0.449-0.749l-17.962-10.777"/>
					<path d="M123.562,104.627l0.449,0.749l17.962-10.777l-0.449-0.749l-17.962,10.777"/>
					<path d="M124.236,83.447h-0.898v21.555h0.898V83.447"/>
					<path d="M145.342,90.184c2.245,0,4.041,1.796,4.041,4.041c0,2.246-1.796,4.041-4.041,4.041c-2.246,0-4.042-1.795-4.042-4.041c0-2.245,1.796-4.041,4.042-4.041z M145.342,91.081c-1.747,0-3.144,1.397-3.144,3.144c0,1.747,1.397,3.144,3.144,3.144
						c1.746,0,3.143-1.397,3.143-3.144c0-1.746-1.396-3.144-3.143-3.144z"/>
					<path d="M12.424,33.604v-0.898H1.646v0.898h10.777"/>
					<path d="M12.424,113.235v-0.899H1.646v0.899h10.777"/>
					<path d="M159.711,33.604v-0.898h-10.777v0.898h10.777"/>
					<path d="M159.711,94.674v-0.898h-10.777v0.898h10.777"/>
					<path d="M260.148,12.199v0.898h14.369v-0.898h-14.369"/>
					<path d="M260.148,8.607v0.897h14.369V8.607h-14.369"/>
					<path d="M260.596,12.648h-0.897v10.777h0.897V12.648"/>
					<path d="M274.966,12.648h-0.898v10.777h0.898V12.648"/>
					<path d="M266.884,9.056h0.896V1.422h-0.896v7.634"/>
					<path d="M260.296,23.425v-0.898h-35.923v0.898h35.923"/>
					<path d="M199.452,11.825l-0.449,0.748l17.962,10.777l0.449-0.749l-17.962-10.777"/>
					<path d="M199.002,33.379l0.449,0.748l17.962-10.777l-0.449-0.749l-17.962,10.777"/>
					<path d="M199.675,12.199h-0.898v21.554h0.898V12.199"/>
					<path d="M220.781,18.935c2.246,0,4.042,1.796,4.042,4.042c0,2.245-1.796,4.042-4.042,4.042c-2.244,0-4.041-1.796-4.041-4.042c0-2.246,1.797-4.042,4.041-4.042z M220.781,19.833c-1.746,0-3.143,1.397-3.143,3.144c0,1.747,1.396,3.143,3.143,3.143
						s3.145-1.396,3.145-3.143c0-1.746-1.398-3.144-3.145-3.144z"/>
					<path d="M260.148,58.9v0.898h14.369V58.9h-14.369"/>
					<path d="M260.148,55.308v0.897h14.369v-0.897h-14.369"/>
					<path d="M260.596,59.349h-0.897v10.777h0.897V59.349"/>
					<path d="M274.966,59.349h-0.898v10.777h0.898V59.349"/>
					<path d="M260.296,70.725v-0.898h-17.961v0.898h17.961"/>
					<path d="M242.785,22.976h-0.898v46.701h0.898V22.976"/>
					<path d="M260.148,105.002v0.898h14.369v-0.898h-14.369"/>
					<path d="M260.148,101.41v0.898h14.369v-0.898h-14.369"/>
					<path d="M260.596,105.451h-0.897v10.777h0.897v-10.777"/>
					<path d="M274.966,105.451h-0.898v10.777h0.898v-10.777"/>
					<path d="M260.296,117.426v-0.898h-35.923v0.898h35.923"/>
					<path d="M199.452,105.825l-0.449,0.749l17.962,10.777l0.449-0.747l-17.962-10.778"/>
					<path d="M199.002,127.379l0.449,0.748l17.962-10.777l-0.449-0.747l-17.962,10.776"/>
					<path d="M199.675,106.199h-0.898v21.555h0.898v-21.555"/>
					<path d="M220.781,112.935c2.246,0,4.042,1.796,4.042,4.042c0,2.244-1.796,4.041-4.042,4.041c-2.244,0-4.041-1.797-4.041-4.041c0-2.246,1.797-4.042,4.041-4.042z M220.781,113.833c-1.746,0-3.143,1.398-3.143,3.145s1.396,3.143,3.143,3.143
						s3.145-1.396,3.145-3.143s-1.398-3.145-3.145-3.145z"/>
					<path d="M289.037,70.725v-0.898h-14.37v0.898h14.37"/>
					<path d="M289.037,117.426v-0.898h-14.37v0.898h14.37"/>
					<path d="M289.486,70.275h-0.898v46.102h0.898V70.275"/>
					<path d="M310.591,23.425v-0.898h-35.925v0.898h35.925"/>
					<path d="M310.591,95.272v-0.898h-21.555v0.898h21.555"/>
					<path d="M310.815,11.825l-0.448,0.748l17.961,10.777l0.449-0.749l-17.962-10.777"/>
					<path d="M310.367,33.379l0.448,0.748l17.962-10.777l-0.449-0.749l-17.961,10.777"/>
					<path d="M311.039,12.199h-0.896v21.554h0.896V12.199"/>
					<path d="M332.144,18.935c2.246,0,4.042,1.796,4.042,4.042c0,2.245-1.796,4.042-4.042,4.042c-2.244,0-4.041-1.796-4.041-4.042c0-2.246,1.797-4.042,4.041-4.042z M332.144,19.833c-1.746,0-3.143,1.397-3.143,3.144c0,1.747,1.396,3.143,3.143,3.143
						c1.748,0,3.144-1.396,3.144-3.143c0-1.746-1.396-3.144-3.144-3.144z"/>
					<path d="M310.815,83.672l-0.448,0.749l17.961,10.777l0.449-0.748l-17.962-10.777"/>
					<path d="M310.367,105.227l0.448,0.749l17.962-10.778l-0.449-0.748l-17.961,10.777"/>
					<path d="M311.039,84.046h-0.896v21.555h0.896V84.046"/>
					<path d="M332.144,90.782c2.246,0,4.042,1.796,4.042,4.041s-1.796,4.042-4.042,4.042c-2.244,0-4.041-1.797-4.041-4.042s1.797-4.041,4.041-4.041z M332.144,91.68c-1.746,0-3.143,1.396-3.143,3.143s1.396,3.144,3.143,3.144c1.748,0,3.144-1.397,3.144-3.144
						s-1.396-3.143-3.144-3.143z"/>
					<path d="M199.228,23.425v-0.898h-10.777v0.898h10.777"/>
					<path d="M199.228,117.426v-0.898h-10.777v0.898h10.777"/>
					<path d="M346.514,23.425v-0.898h-10.777v0.898h10.777"/>
					<path d="M346.514,95.272v-0.898h-10.777v0.898h10.777"/>
					<path d="M260.222,33.229v0.898h14.369v-0.898h-14.369"/>
					<path d="M260.222,36.822v0.898h14.369v-0.898h-14.369"/>
					<path d="M259.773,33.678h0.898V22.901h-0.898v10.777"/>
					<path d="M274.143,33.678h0.897V22.901h-0.897v10.777"/>
					<path d="M260.296,79.93v0.898h14.37V79.93h-14.37"/>
					<path d="M260.296,83.522v0.898h14.37v-0.898h-14.37"/>
					<path d="M259.847,80.379h0.898V69.602h-0.898v10.777"/>
					<path d="M274.217,80.379h0.898V69.602h-0.898v10.777"/>
					<path d="M260.373,126.631v0.897h14.369v-0.897h-14.369"/>
					<path d="M260.373,130.223v0.898h14.369v-0.898h-14.369"/>
					<path d="M259.923,127.08h0.898v-10.776h-0.898v10.776"/>
					<path d="M274.292,127.08h0.898v-10.776h-0.898v10.776"/>
					<path d="M267.033,55.308h0.898v-7.634h-0.898v7.634"/>
					<path d="M267.183,101.559h0.897v-7.634h-0.897v7.634"/>
					<path d="M267.257,36.747c1.871,0,3.369,1.497,3.369,3.368c0,1.871-1.498,3.368-3.369,3.368s-3.367-1.497-3.367-3.368c0-1.871,1.496-3.368,3.367-3.368z M267.257,37.645c-1.372,0-2.47,1.097-2.47,2.47c0,1.372,1.098,2.47,2.47,2.47
						c1.373,0,2.469-1.098,2.469-2.47c0-1.373-1.096-2.47-2.469-2.47z"/>
					<path d="M267.632,83.522c1.871,0,3.367,1.497,3.367,3.368s-1.496,3.368-3.367,3.368s-3.368-1.497-3.368-3.368s1.497-3.368,3.368-3.368z M267.632,84.42c-1.373,0-2.471,1.097-2.471,2.47c0,1.372,1.098,2.47,2.471,2.47c1.371,0,2.469-1.098,2.469-2.47
						c0-1.373-1.098-2.47-2.469-2.47z"/>
					<path d="M268.006,130.298c1.871,0,3.368,1.497,3.368,3.367c0,1.871-1.497,3.368-3.368,3.368s-3.368-1.497-3.368-3.368c0-1.87,1.497-3.367,3.368-3.367z M268.006,131.196c-1.372,0-2.47,1.098-2.47,2.47s1.098,2.47,2.47,2.47s2.469-1.098,2.469-2.47
						s-1.097-2.47-2.469-2.47z"/>
					<text transform="matrix(1 0 0 1 39.2915 154.8462)"><tspan x="0" y="0" style="&st1;">a) Pass-transistor</tspan></text>
					<text transform="matrix(1 0 0 1 223.1011 154.1724)"><tspan x="0" y="0" style="&st1;">b) Transfer-gate</tspan></text>
				</g>
			</g>
		</g>
	</g>
</svg>
