<?xml version="1.0" encoding="iso-8859-1"?>
<!-- Generator: Adobe Illustrator 9.0, SVG Export Plug-In  -->
<!DOCTYPE svg PUBLIC "-//W3C//DTD SVG 20000303 Stylable//EN"   "http://www.w3.org/TR/2000/03/WD-SVG-20000303/DTD/svg-20000303-stylable.dtd" [
	<!ENTITY st0 "font-size:10.1125;">
	<!ENTITY st1 "fill-rule:nonzero;clip-rule:nonzero;">
	<!ENTITY st2 "font-size:11.3765;">
	<!ENTITY st3 "font-size:15.1687;">
	<!ENTITY st4 "fill:#FFFFFF;">
	<!ENTITY st5 "font-family:'Helvetica';">
	<!ENTITY st6 "fill-rule:nonzero;clip-rule:nonzero;fill:none;">
	<!ENTITY st7 "fill-rule:evenodd;clip-rule:evenodd;stroke:none;">
	<!ENTITY st8 "fill-rule:nonzero;clip-rule:nonzero;stroke:#000000;stroke-miterlimit:4;">
	<!ENTITY st9 "clip-path:url(#aiclp1);">
]>
<svg  width="223.423pt" height="99.544pt" viewBox="0 0 223.423 99.544" xml:space="preserve">
	<g id="Calque_x0020_1" style="&st8; &st5; &st2;">
		<g style="&st7;">
			<g>
				<clipPath id="aiclp1" style="&st6;">
					<path d="M0,99.544V0h223.423v99.544H0z"/>
				</clipPath>
				<g style="&st9;">
					<path d="M56.25,21.173h-0.948v15.168h0.948V21.173"/>
					<path d="M52.459,21.173h-0.948v15.168h0.948V21.173"/>
					<path d="M55.777,20.699v0.948h11.376v-0.948H55.777"/>
					<path d="M55.777,35.868v0.948h11.376v-0.948H55.777"/>
					<path style="&st4;" d="M48.982,25.992c1.448,0,2.607,1.159,2.607,2.607s-1.159,2.607-2.607,2.607s-2.607-1.159-2.607-2.607s1.159-2.607,2.607-2.607z"/>
					<path d="M48.982,25.044c1.975,0,3.555,1.58,3.555,3.555s-1.58,3.556-3.555,3.556c-1.975,0-3.555-1.581-3.555-3.556s1.581-3.555,3.555-3.555z M48.982,25.992c-1.448,0-2.607,1.159-2.607,2.607s1.159,2.607,2.607,2.607s2.607-1.159,2.607-2.607
						s-1.159-2.607-2.607-2.607z"/>
					<path d="M55.224,74.185h0.948V59.016h-0.948v15.169"/>
					<path d="M51.432,74.185h0.948V59.016h-0.948v15.169"/>
					<path d="M55.698,73.71v0.949h11.376V73.71H55.698"/>
					<path d="M55.698,58.542v0.948h11.376v-0.948H55.698"/>
					<path d="M51.906,67.231v-0.947h-11.93v0.947h11.93"/>
					<path d="M97.807,33.182v-0.949H82.638v0.949h15.168"/>
					<path d="M98.281,29.231v-0.948H83.112v0.948h15.169"/>
					<path d="M83.586,32.708h-0.948v11.376h0.948V32.708"/>
					<path style="&st4;" d="M90.854,23.148c1.448,0,2.606,1.159,2.606,2.607s-1.158,2.607-2.606,2.607s-2.607-1.159-2.607-2.607s1.159-2.607,2.607-2.607z"/>
					<path d="M90.854,22.2c1.976,0,3.556,1.58,3.556,3.555s-1.58,3.555-3.556,3.555s-3.556-1.58-3.556-3.555s1.58-3.555,3.556-3.555z M90.854,23.148c-1.448,0-2.607,1.159-2.607,2.607s1.159,2.607,2.607,2.607s2.606-1.159,2.606-2.607s-1.158-2.607-2.606-2.607z"/>
					<path d="M97.648,62.571v-0.948H82.48v0.948h15.168"/>
					<path d="M97.648,66.363v-0.949H82.48v0.949h15.168"/>
					<path d="M97.176,62.097h0.946l-0.157-29.547h-0.948l0.159,29.547"/>
					<path d="M82.48,62.254h0.948V50.878H82.48v11.376"/>
					<path d="M90.539,66.047H89.59v11.93h0.949v-11.93"/>
					<path d="M83.112,44.4v-0.948H66.837V44.4h16.275"/>
					<path d="M82.322,51.984v-0.948H67.153v0.948h15.169"/>
					<path d="M66.679,43.926h0.948v-7.584h-0.948v7.584"/>
					<path d="M66.679,59.095h0.948V51.51h-0.948v7.584"/>
					<path d="M44.4,29.231v-0.948h-3.792v0.948H44.4"/>
					<path d="M41.082,28.757h-0.948V66.68h0.948V28.757"/>
					<path d="M66.679,21.173h0.948V9.796h-0.948v11.376"/>
					<path d="M70.945,10.27V9.323h-7.584v0.947h7.584"/>
					<path d="M70.551,10.034l0.869-0.475l-3.793-7.584l-0.869,0.474l3.792,7.584"/>
					<path d="M62.966,9.559l0.869,0.475l3.792-7.584l-0.869-0.474l-3.792,7.584"/>
					<path d="M67.627,74.263h-0.948V85.64h0.948V74.263"/>
					<path d="M70.945,86.114v-0.949h-7.584v0.949h7.584"/>
					<path d="M71.42,85.878l-0.869-0.475l-3.792,7.584l0.869,0.474l3.793-7.583"/>
					<path d="M63.835,85.403l-0.869,0.475l3.792,7.583l0.869-0.474l-3.792-7.584"/>
					<path d="M40.608,47.402v-0.948H29.231v0.948h11.376"/>
					<path d="M142.997,47.402v-0.948H97.49v0.948h45.507"/>
					<text transform="matrix(1 0 0 1 4.8193 52.5371)"><tspan x="0" y="0" style="&st1; &st3;">D</tspan></text>
					<text transform="matrix(1 0 0 1 84.6919 14.7734)"><tspan x="0" y="0" style="&st1;">CK</tspan></text>
					<text transform="matrix(1 0 0 1 86.9043 94.4092)"><tspan x="0" y="0" style="&st1;">CK</tspan></text>
					<path d="M86.114,0.948v0.948h15.169V0.948H86.114"/>
					<path d="M132.094,46.928h-0.947v11.376h0.947V46.928"/>
					<path d="M120.244,57.831v0.948h22.753v-0.948h-22.753"/>
					<path d="M120.244,65.415v0.949h22.753v-0.949h-22.753"/>
					<path d="M132.094,65.89h-0.947v11.376h0.947V65.89"/>
					<path d="M127.828,76.792v0.947h7.584v-0.947h-7.584"/>
					<path d="M128.302,77.028l-0.868,0.475l3.791,7.584l0.869-0.475l-3.792-7.584"/>
					<path d="M135.887,77.503l-0.869-0.475l-3.793,7.584l0.869,0.475l3.793-7.584"/>
					<path d="M143.392,20.699l-0.79-0.553l-11.85,17.697l0.789,0.553l11.851-17.697"/>
					<path d="M128.697,36.341l-0.869,6.794l6.004-3.397l-5.135-3.397"/>
					<text transform="matrix(1 0 0 1 124.8262 13.5884)"><tspan x="0" y="0" style="&st1; &st0;">Dynamic Latch Node</tspan></text>
				</g>
			</g>
		</g>
	</g>
</svg>
