<?xml version="1.0" encoding="iso-8859-1"?>
<!-- Generator: Adobe Illustrator 9.0, SVG Export Plug-In  -->
<!DOCTYPE svg PUBLIC "-//W3C//DTD SVG 20000303 Stylable//EN"   "http://www.w3.org/TR/2000/03/WD-SVG-20000303/DTD/svg-20000303-stylable.dtd" [
	<!ENTITY st0 "fill-rule:nonzero;clip-rule:nonzero;">
	<!ENTITY st1 "font-size:15.5077;">
	<!ENTITY st2 "fill:#FFFFFF;">
	<!ENTITY st3 "font-family:'Helvetica';">
	<!ENTITY st4 "fill-rule:nonzero;clip-rule:nonzero;fill:none;">
	<!ENTITY st5 "fill-rule:evenodd;clip-rule:evenodd;stroke:none;">
	<!ENTITY st6 "fill-rule:nonzero;clip-rule:nonzero;stroke:#000000;stroke-miterlimit:4;">
	<!ENTITY st7 "font-family:'Symbol';">
	<!ENTITY st8 "fill-rule:nonzero;clip-rule:nonzero;fill:none;stroke:#000000;stroke-width:1.5;stroke-miterlimit:10;">
	<!ENTITY st9 "font-size:9.0462;">
	<!ENTITY st10 "clip-path:url(#aiclp1);">
]>
<svg  width="360.938pt" height="147pt" viewBox="0 0 360.938 147" xml:space="preserve">
	<g id="Calque_x0020_1" style="&st6; &st3; &st9;">
		<g style="&st5;">
			<g>
				<clipPath id="aiclp1" style="&st4;">
					<path d="M0,147V0h360.938v147H0z"/>
				</clipPath>
				<g style="&st10;">
					<path d="M263.687,29.077v-0.969H41.773v0.969h221.914"/>
					<path d="M65.632,125.435h0.991v-15.507h-0.991v15.507"/>
					<path d="M61.67,125.435h0.99v-15.507h-0.99v15.507"/>
					<path d="M66.128,124.95v0.97h11.888v-0.97H66.128"/>
					<path d="M66.128,109.442v0.97h11.888v-0.97H66.128"/>
					<path d="M62.165,118.327v-0.97H49.699v0.97h12.466"/>
					<path d="M117.312,35.942l-0.495,0.808l19.813,11.631l0.496-0.808l-19.814-11.631"/>
					<path d="M116.818,59.204l0.495,0.807l19.814-11.63l-0.496-0.808l-19.813,11.631"/>
					<path d="M117.561,36.346h-0.99v23.262h0.99V36.346"/>
					<path d="M140.842,43.615c2.477,0,4.458,1.938,4.458,4.362c0,2.423-1.981,4.362-4.458,4.362s-4.458-1.939-4.458-4.362c0-2.423,1.981-4.362,4.458-4.362z M140.842,44.585c-1.926,0-3.467,1.507-3.467,3.392s1.541,3.392,3.467,3.392s3.467-1.507,3.467-3.392
						s-1.541-3.392-3.467-3.392z"/>
					<path d="M66.706,20.758h-0.991v15.507h0.991V20.758"/>
					<path d="M62.743,20.758h-0.991v15.507h0.991V20.758"/>
					<path d="M66.211,20.273v0.969h11.888v-0.969H66.211"/>
					<path d="M66.211,35.781v0.969h11.888v-0.969H66.211"/>
					<path style="&st2;" d="M59.111,25.685c1.513,0,2.724,1.185,2.724,2.666s-1.211,2.665-2.724,2.665c-1.514,0-2.725-1.185-2.725-2.665s1.211-2.666,2.725-2.666z"/>
					<path d="M59.111,24.715c2.063,0,3.715,1.616,3.715,3.635s-1.651,3.635-3.715,3.635c-2.064,0-3.715-1.616-3.715-3.635s1.651-3.635,3.715-3.635z M59.111,25.685c-1.514,0-2.725,1.185-2.725,2.666s1.211,2.665,2.725,2.665c1.513,0,2.724-1.185,2.724-2.665
						s-1.211-2.666-2.724-2.666z"/>
					<path style="&st8;" d="M57.129,98.861V59.123h40.618v39.738H57.129z"/>
					<text transform="matrix(1.0221 0 0 1 66.3755 82.3037)"><tspan x="0" y="0" style="&st0;">Logic</tspan></text>
					<path d="M77.934,36.346h-0.991v23.262h0.991V36.346"/>
					<path d="M77.934,98.377h-0.991v11.631h0.991V98.377"/>
					<path d="M77.934,125.516h-0.991v11.631h0.991v-11.631"/>
					<path d="M73.476,136.662v0.969h7.925v-0.969h-7.925"/>
					<path d="M73.971,136.904l-0.908,0.484l3.963,7.754l0.908-0.484l-3.963-7.754"/>
					<path d="M81.896,137.389l-0.908-0.484l-3.963,7.754l0.908,0.484l3.962-7.754"/>
					<path d="M76.943,20.839h0.991V9.208h-0.991v11.631"/>
					<path d="M73.476,8.723v0.969h7.925V8.723h-7.925"/>
					<path d="M73.062,8.965l0.908,0.485l3.963-7.754l-0.908-0.485l-3.963,7.754"/>
					<path d="M80.988,9.45l0.908-0.485l-3.962-7.754l-0.908,0.485l3.963,7.754"/>
					<path d="M77.438,47.492v0.969h39.627v-0.969H77.438"/>
					<path d="M144.805,47.492v0.969h7.925v-0.969h-7.925"/>
					<path d="M153.225,47.977h-0.991v23.262h0.991V47.977"/>
					<path d="M152.73,70.754v0.969h7.926v-0.969h-7.926"/>
					<path d="M42.269,28.592h-0.991v89.169h0.991V28.592"/>
					<path d="M259.723,118.246v-0.969H21.96v0.969h237.763"/>
					<path d="M168.664,125.435h0.991v-15.507h-0.991v15.507"/>
					<path d="M164.701,125.435h0.99v-15.507h-0.99v15.507"/>
					<path d="M169.159,124.95v0.97h11.888v-0.97h-11.888"/>
					<path d="M169.159,109.442v0.97h11.888v-0.97h-11.888"/>
					<path d="M165.196,118.327v-0.97H152.73v0.97h12.466"/>
					<path d="M220.343,35.942l-0.495,0.808l19.813,11.631l0.496-0.808l-19.814-11.631"/>
					<path d="M219.848,59.204l0.495,0.807l19.814-11.63l-0.496-0.808l-19.813,11.631"/>
					<path d="M220.591,36.346h-0.99v23.262h0.99V36.346"/>
					<path d="M243.873,43.615c2.477,0,4.459,1.938,4.459,4.362c0,2.423-1.982,4.362-4.459,4.362s-4.458-1.939-4.458-4.362c0-2.423,1.981-4.362,4.458-4.362z M243.873,44.585c-1.927,0-3.467,1.507-3.467,3.392s1.54,3.392,3.467,3.392c1.926,0,3.468-1.507,3.468-3.392
						s-1.542-3.392-3.468-3.392z"/>
					<path d="M169.736,20.758h-0.99v15.507h0.99V20.758"/>
					<path d="M165.774,20.758h-0.991v15.507h0.991V20.758"/>
					<path d="M169.242,20.273v0.969h11.888v-0.969h-11.888"/>
					<path d="M169.242,35.781v0.969h11.888v-0.969h-11.888"/>
					<path style="&st2;" d="M162.142,25.685c1.513,0,2.724,1.185,2.724,2.666s-1.211,2.665-2.724,2.665c-1.514,0-2.725-1.185-2.725-2.665s1.211-2.666,2.725-2.666z"/>
					<path d="M162.142,24.715c2.063,0,3.715,1.616,3.715,3.635s-1.651,3.635-3.715,3.635c-2.064,0-3.715-1.616-3.715-3.635s1.651-3.635,3.715-3.635z M162.142,25.685c-1.514,0-2.725,1.185-2.725,2.666s1.211,2.665,2.725,2.665c1.513,0,2.724-1.185,2.724-2.665
						s-1.211-2.666-2.724-2.666z"/>
					<path style="&st8;" d="M160.16,98.861V59.123h40.618v39.738H160.16z"/>
					<text transform="matrix(1.0221 0 0 1 169.4062 82.3037)"><tspan x="0" y="0" style="&st0;">Logic</tspan></text>
					<path d="M180.964,36.346h-0.99v23.262h0.99V36.346"/>
					<path d="M180.964,98.377h-0.99v11.631h0.99V98.377"/>
					<path d="M180.964,125.516h-0.99v11.631h0.99v-11.631"/>
					<path d="M176.506,136.662v0.969h7.925v-0.969h-7.925"/>
					<path d="M177.001,136.904l-0.908,0.484l3.962,7.754l0.908-0.484l-3.963-7.754"/>
					<path d="M184.926,137.389l-0.907-0.484l-3.963,7.754l0.908,0.484l3.962-7.754"/>
					<path d="M179.974,20.839h0.99V9.208h-0.99v11.631"/>
					<path d="M176.506,8.723v0.969h7.925V8.723h-7.925"/>
					<path d="M176.094,8.965l0.908,0.485l3.963-7.754l-0.908-0.485l-3.962,7.754"/>
					<path d="M184.019,9.45l0.907-0.485l-3.962-7.754l-0.908,0.485l3.963,7.754"/>
					<path d="M180.469,47.492v0.969h39.626v-0.969h-39.626"/>
					<path d="M247.835,47.492v0.969h7.926v-0.969h-7.926"/>
					<path d="M256.255,47.977h-0.99v23.262h0.99V47.977"/>
					<path d="M255.761,70.754v0.969h7.926v-0.969h-7.926"/>
					<path d="M271.695,125.435h0.99v-15.507h-0.99v15.507"/>
					<path d="M267.732,125.435h0.99v-15.507h-0.99v15.507"/>
					<path d="M272.189,124.95v0.97h11.889v-0.97h-11.889"/>
					<path d="M272.189,109.442v0.97h11.889v-0.97h-11.889"/>
					<path d="M268.227,118.327v-0.97h-12.466v0.97h12.466"/>
					<path d="M323.375,35.942l-0.495,0.808l19.813,11.631l0.496-0.808l-19.814-11.631"/>
					<path d="M322.879,59.204l0.495,0.807l19.814-11.63l-0.496-0.808l-19.813,11.631"/>
					<path d="M323.623,36.346h-0.99v23.262h0.99V36.346"/>
					<path d="M346.904,43.615c2.477,0,4.459,1.938,4.459,4.362c0,2.423-1.982,4.362-4.459,4.362s-4.459-1.939-4.459-4.362c0-2.423,1.982-4.362,4.459-4.362z M346.904,44.585c-1.928,0-3.467,1.507-3.467,3.392s1.539,3.392,3.467,3.392
						c1.926,0,3.467-1.507,3.467-3.392s-1.541-3.392-3.467-3.392z"/>
					<path d="M272.767,20.758h-0.99v15.507h0.99V20.758"/>
					<path d="M268.805,20.758h-0.991v15.507h0.991V20.758"/>
					<path d="M272.273,20.273v0.969h11.888v-0.969h-11.888"/>
					<path d="M272.273,35.781v0.969h11.888v-0.969h-11.888"/>
					<path style="&st2;" d="M265.172,25.685c1.513,0,2.724,1.185,2.724,2.666s-1.211,2.665-2.724,2.665c-1.515,0-2.724-1.185-2.724-2.665s1.209-2.666,2.724-2.666z"/>
					<path d="M265.172,24.715c2.063,0,3.715,1.616,3.715,3.635s-1.651,3.635-3.715,3.635s-3.716-1.616-3.716-3.635s1.652-3.635,3.716-3.635z M265.172,25.685c-1.515,0-2.724,1.185-2.724,2.666s1.209,2.665,2.724,2.665c1.513,0,2.724-1.185,2.724-2.665
						s-1.211-2.666-2.724-2.666z"/>
					<path style="&st8;" d="M263.191,98.861V59.123h40.617v39.738h-40.617z"/>
					<text transform="matrix(1.0221 0 0 1 272.437 82.3037)"><tspan x="0" y="0" style="&st0;">Logic</tspan></text>
					<path d="M283.996,36.346h-0.991v23.262h0.991V36.346"/>
					<path d="M283.996,98.377h-0.991v11.631h0.991V98.377"/>
					<path d="M283.996,125.516h-0.991v11.631h0.991v-11.631"/>
					<path d="M279.537,136.662v0.969h7.926v-0.969h-7.926"/>
					<path d="M280.033,136.904l-0.908,0.484l3.963,7.754l0.908-0.484l-3.963-7.754"/>
					<path d="M287.958,137.389l-0.907-0.484l-3.963,7.754l0.908,0.484l3.962-7.754"/>
					<path d="M283.004,20.839h0.991V9.208h-0.991v11.631"/>
					<path d="M279.537,8.723v0.969h7.926V8.723h-7.926"/>
					<path d="M279.125,8.965l0.908,0.485l3.963-7.754l-0.908-0.485l-3.963,7.754"/>
					<path d="M287.05,9.45l0.907-0.485l-3.962-7.754l-0.908,0.485l3.963,7.754"/>
					<path d="M283.5,47.492v0.969h39.626v-0.969H283.5"/>
					<path d="M350.867,47.492v0.969h7.926v-0.969h-7.926"/>
					<text transform="matrix(1.0221 0 0 1 4.9531 121.7197)"><tspan x="0" y="0" style="&st0; &st7; &st1;">&#x3C6;</tspan></text>
				</g>
			</g>
		</g>
	</g>
</svg>
