<?xml version="1.0" encoding="iso-8859-1"?>
<!-- Generator: Adobe Illustrator 9.0, SVG Export Plug-In  -->
<!DOCTYPE svg PUBLIC "-//W3C//DTD SVG 20000303 Stylable//EN"   "http://www.w3.org/TR/2000/03/WD-SVG-20000303/DTD/svg-20000303-stylable.dtd" [
	<!ENTITY st0 "fill-rule:nonzero;clip-rule:nonzero;">
	<!ENTITY st1 "font-family:'Helvetica';">
	<!ENTITY st2 "fill-rule:nonzero;clip-rule:nonzero;fill:none;">
	<!ENTITY st3 "fill-rule:evenodd;clip-rule:evenodd;stroke:none;">
	<!ENTITY st4 "fill-rule:nonzero;clip-rule:nonzero;stroke:#000000;stroke-miterlimit:4;">
	<!ENTITY st5 "font-size:9.1328;">
	<!ENTITY st6 "clip-path:url(#aiclp1);">
]>
<svg  width="173.809pt" height="133.281pt" viewBox="0 0 173.809 133.281" xml:space="preserve">
	<g id="Calque_x0020_1" style="&st4; &st1; &st5;">
		<g style="&st3;">
			<g>
				<clipPath id="aiclp1" style="&st2;">
					<path d="M0,133.281V0h173.809v133.281H0z"/>
				</clipPath>
				<g style="&st6;">
					<path d="M115.943,73.134h0.857V59.435h-0.857v13.699"/>
					<path d="M112.52,73.134h0.855V59.435h-0.855v13.699"/>
					<path d="M116.372,72.706v0.856h10.274v-0.856h-10.274"/>
					<path d="M116.372,59.006v0.856h10.274v-0.856h-10.274"/>
					<path d="M112.947,66.712v-0.856h-7.278v0.856h7.278"/>
					<path d="M37.673,18.336h-0.856v13.699h0.856V18.336"/>
					<path d="M34.248,18.336h-0.856v13.699h0.856V18.336"/>
					<path d="M37.244,17.909v0.857H47.52v-0.857H37.244"/>
					<path d="M37.244,31.608v0.856H47.52v-0.856H37.244"/>
					<path d="M31.108,21.833c1.785,0,3.211,1.427,3.211,3.21c0,1.784-1.427,3.211-3.211,3.211c-1.783,0-3.21-1.427-3.21-3.211c0-1.783,1.427-3.21,3.21-3.21z M31.108,22.689c-1.308,0-2.354,1.046-2.354,2.354c0,1.308,1.046,2.355,2.354,2.355
						c1.309,0,2.355-1.047,2.355-2.355c0-1.308-1.046-2.354-2.355-2.354z"/>
					<path d="M78.271,114.232h0.856v-13.7h-0.856v13.7"/>
					<path d="M74.846,114.232h0.856v-13.7h-0.856v13.7"/>
					<path d="M78.699,113.804v0.856h10.274v-0.856H78.699"/>
					<path d="M78.699,100.104v0.857h10.274v-0.857H78.699"/>
					<path d="M75.274,107.811v-0.857h-7.278v0.857h7.278"/>
					<path d="M57.294,73.134h0.856V59.435h-0.856v13.699"/>
					<path d="M60.719,73.134h0.856V59.435h-0.856v13.699"/>
					<path d="M57.723,73.562v-0.856H47.448v0.856h10.275"/>
					<path d="M57.723,59.863v-0.856H47.448v0.856h10.275"/>
					<path d="M61.147,65.856v0.856h7.278v-0.856h-7.278"/>
					<path d="M47.947,73.206h-0.856V83.48h0.856V73.206"/>
					<path d="M47.52,83.051v0.857h78.771v-0.857H47.52"/>
					<path d="M125.861,83.48h0.856V73.206h-0.856V83.48"/>
					<path d="M89.045,83.48h-0.856v17.124h0.856V83.48"/>
					<path d="M89.045,114.303h-0.856v10.274h0.856v-10.274"/>
					<path d="M85.192,124.148v0.857h6.849v-0.857h-6.849"/>
					<path d="M85.621,124.363l-0.785,0.428l3.425,6.85l0.785-0.428l-3.424-6.85"/>
					<path d="M92.47,124.791l-0.786-0.428l-3.424,6.85l0.785,0.428l3.425-6.85"/>
					<path d="M47.091,59.506h0.856V32.108h-0.856v27.398"/>
					<path d="M136.922,18.336h-0.856v13.699h0.856V18.336"/>
					<path d="M140.346,18.336h-0.855v13.699h0.855V18.336"/>
					<path d="M136.492,18.766v-0.857h-10.273v0.857h10.273"/>
					<path d="M136.492,32.464v-0.856h-10.273v0.856h10.273"/>
					<path d="M142.629,21.833c1.783,0,3.211,1.427,3.211,3.21c0,1.784-1.428,3.211-3.211,3.211s-3.211-1.427-3.211-3.211c0-1.783,1.428-3.21,3.211-3.21z M142.629,22.689c-1.309,0-2.354,1.046-2.354,2.354c0,1.308,1.045,2.355,2.354,2.355s2.354-1.047,2.354-2.355
						c0-1.308-1.046-2.354-2.354-2.354z"/>
					<path d="M125.861,59.506h0.856V32.108h-0.856v27.398"/>
					<path d="M68.068,65.927v0.856h6.85v-0.856h-6.85"/>
					<path d="M74.632,66.07l0.571,0.643l23.973-20.548l-0.57-0.643L74.632,66.07"/>
					<path d="M98.892,45.379v0.856h27.399v-0.856H98.892"/>
					<path d="M105.741,66.784v-0.856h-6.85v0.856h6.85"/>
					<path d="M98.606,66.712l0.57-0.643L75.203,45.521l-0.571,0.643l23.974,20.548"/>
					<path d="M47.52,45.379v0.856h27.398v-0.856H47.52"/>
					<path d="M47.091,18.408h0.856V6.778h-0.856v11.63"/>
					<path d="M50.373,6.921L47.52,1.284l-2.783,5.637h5.637"/>
					<path d="M125.861,18.408h0.856V6.778h-0.856v11.63"/>
					<path d="M129.144,6.921l-2.853-5.637l-2.784,5.637h5.637"/>
					<text transform="matrix(1 0 0 1 24.1162 48.5181)"><tspan x="0" y="0" style="&st0;">OUT</tspan></text>
					<text transform="matrix(1 0 0 1 130.4277 49.1602)"><tspan x="0" y="0" style="&st0;">OUTB</tspan></text>
					<text transform="matrix(1 0 0 1 4.0664 28.6826)"><tspan x="0" y="0" style="&st0;">SEN</tspan></text>
					<text transform="matrix(1 0 0 1 150.9766 27.9692)"><tspan x="0" y="0" style="&st0;">SEN</tspan></text>
					<text transform="matrix(1 0 0 1 41.7393 110.1641)"><tspan x="0" y="0" style="&st0;">SEN</tspan></text>
				</g>
			</g>
		</g>
	</g>
</svg>
