<?xml version="1.0" encoding="iso-8859-1"?>
<!-- Generator: Adobe Illustrator 9.0, SVG Export Plug-In  -->
<!DOCTYPE svg PUBLIC "-//W3C//DTD SVG 20000303 Stylable//EN"   "http://www.w3.org/TR/2000/03/WD-SVG-20000303/DTD/svg-20000303-stylable.dtd" [
	<!ENTITY st0 "stroke:#64A7CD;">
	<!ENTITY st1 "font-size:6.7012;">
	<!ENTITY st2 "font-size:10.4241;">
	<!ENTITY st3 "fill:#000000;stroke:none;">
	<!ENTITY st4 "fill:#199698;">
	<!ENTITY st5 "font-size:17.8699;">
	<!ENTITY st6 "fill-rule:evenodd;clip-rule:evenodd;fill:#000000;stroke:none;">
	<!ENTITY st7 "fill-rule:nonzero;clip-rule:nonzero;">
	<!ENTITY st8 "font-size:11.9132;">
	<!ENTITY st9 "fill-rule:nonzero;clip-rule:nonzero;fill:none;stroke:#FFFFFF;stroke-width:0;">
	<!ENTITY st10 "stroke-miterlimit:10;">
	<!ENTITY st11 "fill-rule:evenodd;clip-rule:evenodd;">
	<!ENTITY st12 "fill:#FFFFFF;">
	<!ENTITY st13 "fill-rule:nonzero;clip-rule:nonzero;fill:none;stroke:#7F7F7F;stroke-width:1.125;stroke-miterlimit:4;">
	<!ENTITY st14 "fill:none;">
	<!ENTITY st15 "fill-rule:evenodd;clip-rule:evenodd;fill:#FFFFFF;stroke:none;">
	<!ENTITY st16 "font-size:8.1903;">
	<!ENTITY st17 "font-family:'Helvetica';font-style:italic;">
	<!ENTITY st18 "fill-rule:evenodd;clip-rule:evenodd;fill:#FFFFFF;">
	<!ENTITY st19 "font-family:'Helvetica';">
	<!ENTITY st20 "fill-rule:nonzero;clip-rule:nonzero;fill:none;">
	<!ENTITY st21 "stroke:none;">
	<!ENTITY st22 "stroke:#808080;stroke-width:0.5;">
	<!ENTITY st23 "font-size:13.4024;">
	<!ENTITY st24 "clip-path:url(#aiclp1);">
	<!ENTITY st25 "clip-path:url(#aiclp2);">
	<!ENTITY st26 "clip-path:url(#aiclp3);">
	<!ENTITY st27 "clip-path:url(#aiclp4);">
]>
<svg  width="385.318pt" height="301.182pt" viewBox="0 0 385.318 301.182" xml:space="preserve">
	<g id="Calque_x0020_1" style="&st13; &st19; &st8;">
		<g style="&st10;">
			<g style="&st6;">
				<clipPath id="aiclp1" style="&st20;">
					<path d="M0,301.182V0h385.318v301.182H0z"/>
				</clipPath>
				<g style="&st24;">
					<path d="M196.848,212.02v1.115h18.705v-1.115h-18.705"/>
					<path d="M214.997,212.576h1.116v-14.985h-1.116v14.985"/>
					<path d="M237.333,212.576h1.119v-14.985h-1.119v14.985"/>
					<path d="M215.553,197.034v1.117h22.342v-1.117h-22.342"/>
					<path d="M215.553,193.311v1.116h22.342v-1.116h-22.342"/>
					<path d="M226.726,185.866c2.377,0,4.278,1.902,4.278,4.28c0,2.38-1.901,4.281-4.278,4.281c-2.381,0-4.282-1.901-4.282-4.281c0-2.378,1.901-4.28,4.282-4.28z M226.726,186.982c-1.761,0-3.168,1.406-3.168,3.164c0,1.759,1.407,3.165,3.168,3.165
						c1.758,0,3.163-1.406,3.163-3.165c0-1.757-1.405-3.164-3.163-3.164z"/>
					<path d="M237.895,212.02v1.115h67.29v-1.115h-67.29"/>
					<path d="M271.539,209.411c1.782,0,3.21,1.405,3.21,3.165s-1.428,3.166-3.21,3.166c-1.785,0-3.212-1.406-3.212-3.166s1.427-3.165,3.212-3.165z"/>
					<path d="M271.539,208.296c2.405,0,4.326,1.901,4.326,4.28s-1.921,4.281-4.326,4.281c-2.407,0-4.329-1.902-4.329-4.281s1.922-4.28,4.329-4.28z M271.539,209.411c-1.785,0-3.212,1.405-3.212,3.165s1.427,3.166,3.212,3.166c1.782,0,3.21-1.406,3.21-3.166
						s-1.428-3.165-3.21-3.165z"/>
					<path d="M225.606,186.423h1.119V90.28h-1.119v96.143"/>
					<path style="&st9;" d="M225.606,186.423"/>
					<path style="&st9;" d="M304.625,189.217"/>
					<path style="&st9;" d="M343.715,236.123"/>
					<path d="M305.463,189.681l-0.838-0.464v0.929v44.86v1.023l0.838-0.557l37.321-22.431l0.839-0.466l-0.839-0.465l-37.321-22.431z M341.48,212.576l-35.737,21.501v-42.906l35.737,21.405z"/>
					<path style="&st9;" d="M305.463,189.681"/>
					<path d="M348.089,206.434c3.413,0,6.144,2.729,6.144,6.143c0,3.412-2.73,6.144-6.144,6.144c-3.412,0-6.143-2.731-6.143-6.144c0-3.413,2.73-6.143,6.143-6.143z M348.089,207.551c-2.791,0-5.025,2.234-5.025,5.025c0,2.792,2.234,5.025,5.025,5.025
						c2.794,0,5.028-2.233,5.028-5.025c0-2.791-2.234-5.025-5.028-5.025z"/>
					<path style="&st9;" d="M307.882,248.966"/>
					<path style="&st9;" d="M346.882,295.875"/>
					<path d="M345.671,250.923v42.904l-35.648-21.497l35.648-21.407z M308.626,271.864l-0.744,0.466l0.744,0.464l37.322,22.432l0.838,0.559v-1.023V249.9v-0.935l-0.838,0.469l-37.322,22.43z"/>
					<path style="&st9;" d="M345.671,250.923"/>
					<path d="M303.277,266.186c3.437,0,6.188,2.731,6.188,6.145s-2.752,6.142-6.188,6.142c-3.441,0-6.192-2.729-6.192-6.142s2.751-6.145,6.192-6.145z M303.277,267.305c-2.82,0-5.074,2.231-5.074,5.025c0,2.792,2.254,5.025,5.074,5.025
						c2.817,0,5.07-2.233,5.07-5.025c0-2.794-2.253-5.025-5.07-5.025z"/>
					<path d="M272.143,212.576h-1.117v59.754h1.117v-59.754"/>
					<path d="M271.586,271.771v1.116h26.057v-1.116h-26.057"/>
					<path d="M346.228,271.771v1.116h33.602v-1.116h-33.602"/>
					<path d="M353.674,212.02v1.115h26.155v-1.115h-26.155"/>
					<path d="M380.385,212.576h-1.116v59.754h1.116v-59.754"/>
					<text transform="matrix(1 0 0 1 5.771 208.2964)"><tspan x="0" y="0" style="&st7;">data</tspan></text>
					<text transform="matrix(1 0 0 1 236.8701 92.979)"><tspan x="0" y="0" style="&st7;">ck</tspan></text>
					<text transform="matrix(1 0 0 1 258.2754 204.4805)"><tspan x="0" y="0" style="&st7;">mem</tspan></text>
					<text transform="matrix(1 0 0 1 220.9551 221.4189)"><tspan x="0" y="0" style="&st7; &st5;">M</tspan></text>
					<path style="&st4;" d="M274.654,186.331l0.095,1.676l2.884-0.282l1.489-0.184h0.279l1.49-0.373l1.303-0.466l1.303-0.559l1.117-0.837l0.279-0.186l1.118-1.116l0.465-0.559l0.185-0.278l0.374-0.746l0.372-0.837l0.372-0.932l0.559-2.141l0.558-2.14l0.464-2.233
						l0.653-2.048l0.28-0.931l0.37-0.836l0.375-0.746l0.37-0.466l1.024-0.931l0.93-0.652l1.304-0.65l1.303-0.373l1.396-0.373l1.118-0.186l3.071-0.278l-0.093-1.676l-2.979,0.279l-1.398,0.279h-0.37l-1.396,0.372l-1.304,0.373l-1.303,0.651l-1.211,0.838l-0.276,0.186
						l-1.027,1.023l-0.464,0.652l-0.186,0.278l-0.466,0.747l-0.373,0.835l-0.278,0.933l-0.651,2.046l-0.464,2.233l-0.56,2.141l-0.561,2.141l-0.37,0.931l-0.371,0.837l-0.373,0.652l-0.278,0.464l-1.119,1.026l-0.837,0.65l-1.304,0.558l-1.303,0.466l-1.488,0.372
						l-1.119,0.094l-2.979,0.279"/>
					<path style="&st4;" d="M291.782,181.398l-2.144-9.401l-6.234,7.352l8.378,2.049"/>
					<path style="&st4;" d="M355.629,163.714l-0.094,1.675l2.979,0.28l1.118,0.187l1.489,0.372l1.301,0.373l1.305,0.651l0.837,0.652l1.116,0.932l0.279,0.464l0.374,0.744l0.37,0.838l0.374,0.931l0.558,2.048l0.558,2.232l0.465,2.141l0.653,2.142l0.28,0.931
						l0.371,0.837l0.463,0.744l0.188,0.281l0.467,0.557l1.023,1.117l0.277,0.188l1.212,0.837l1.301,0.557l1.304,0.465l1.398,0.372h0.369l1.396,0.188l2.979,0.278l0.092-1.674l-3.071-0.28l-1.114-0.093l-1.396-0.373l-1.303-0.465l-1.305-0.558l-0.929-0.652
						l-1.025-1.024l-0.373-0.465l-0.37-0.652l-0.374-0.837l-0.28-0.931l-0.649-2.141l-0.465-2.14l-0.559-2.233l-0.561-2.048l-0.371-0.93l-0.373-0.839l-0.369-0.743l-0.187-0.28l-0.468-0.65l-1.115-1.024l-0.281-0.187l-1.116-0.836l-1.302-0.652l-1.303-0.372
						l-1.49-0.373h-0.28l-1.488-0.279l-2.885-0.279"/>
					<path style="&st4;" d="M364.284,172.463l6.141,7.353l2.235-9.4l-8.376,2.048"/>
					<path d="M299.319,174.417v1.49l49.981,0.279v-1.488l-49.981-0.28"/>
					<path d="M299.508,171.067l-8.19,4.094l8.19,4.187v-8.281"/>
					<path d="M349.301,179.537l8.283-4.002l-8.189-4.095l-0.094,8.097"/>
					<text transform="matrix(1 0 0 1 314.8643 166.7856)"><tspan x="0" y="0" style="&st7; &st2;">t</tspan></text>
					<text transform="matrix(1 0 0 1 321.1934 169.7627)"><tspan x="0" y="0" style="&st7; &st1;">LOOP</tspan></text>
					<text transform="matrix(1 0 0 1 313.0029 218.0674)"><tspan x="0" y="0" style="&st7; &st5;">F</tspan></text>
					<path d="M17.126,211.926v1.116h156.918v-1.116H17.126"/>
					<path style="&st12;" d="M226.351,159.433l22.432-37.323h-44.861l22.43,37.323"/>
					<path style="&st9;" d="M226.351,159.433"/>
					<path style="&st9;" d="M202.99,121.552"/>
					<path style="&st9;" d="M249.9,160.642"/>
					<path d="M249.246,122.39l0.56-0.837h-1.023h-44.861h-0.931l0.465,0.837l22.431,37.322l0.465,0.837l0.466-0.837l22.43-37.322z M226.351,158.409l-21.405-35.74h42.905l-21.5,35.74z"/>
					<path style="&st9;" d="M249.246,122.39"/>
					<path style="&st12;" d="M226.351,159.992c2.792,0,5.026,2.234,5.026,5.025c0,2.793-2.234,5.026-5.026,5.026c-2.793,0-5.027-2.233-5.027-5.026c0-2.791,2.234-5.025,5.027-5.025z"/>
					<path d="M226.351,158.874c3.413,0,6.144,2.73,6.144,6.143c0,3.413-2.73,6.143-6.144,6.143c-3.412,0-6.142-2.729-6.142-6.143c0-3.413,2.729-6.143,6.142-6.143z M226.351,159.992c-2.793,0-5.027,2.234-5.027,5.025c0,2.793,2.234,5.026,5.027,5.026
						c2.792,0,5.026-2.233,5.026-5.026c0-2.791-2.234-5.025-5.026-5.025z"/>
					<path style="&st12;" d="M184.469,212.391l-37.321-22.43v44.859l37.321-22.429"/>
					<path style="&st9;" d="M184.469,212.391"/>
					<path style="&st9;" d="M146.588,189.029"/>
					<path style="&st9;" d="M185.679,235.939"/>
					<path d="M147.426,189.495l-0.838-0.466v0.931v44.859v1.024l0.838-0.559l37.322-22.429l0.837-0.466l-0.837-0.465l-37.322-22.431z M183.445,212.391l-35.74,21.501v-42.907l35.74,21.406z"/>
					<path style="&st9;" d="M147.426,189.495"/>
					<path style="&st12;" d="M190.053,207.364c2.793,0,5.026,2.234,5.026,5.027c0,2.792-2.233,5.025-5.026,5.025c-2.792,0-5.025-2.233-5.025-5.025c0-2.793,2.233-5.027,5.025-5.027z"/>
					<path d="M190.053,206.248c3.412,0,6.143,2.73,6.143,6.143c0,3.413-2.73,6.143-6.143,6.143c-3.414,0-6.142-2.729-6.142-6.143c0-3.412,2.729-6.143,6.142-6.143z M190.053,207.364c-2.792,0-5.025,2.234-5.025,5.027c0,2.792,2.233,5.025,5.025,5.025
						c2.793,0,5.026-2.233,5.026-5.025c0-2.793-2.233-5.027-5.026-5.027z"/>
					<path style="&st12;" d="M90.465,212.856l-37.32-22.432v44.86l37.32-22.429"/>
					<path style="&st9;" d="M90.465,212.856"/>
					<path style="&st9;" d="M52.585,189.495"/>
					<path style="&st9;" d="M91.677,236.404"/>
					<path d="M53.423,189.96l-0.838-0.465v0.93v44.86v1.024l0.838-0.559l37.322-22.431l0.837-0.464l-0.837-0.466l-37.322-22.43z M89.442,212.856l-35.739,21.499v-42.907l35.739,21.408z"/>
					<path style="&st9;" d="M53.423,189.96"/>
					<path style="&st12;" d="M96.051,207.829c2.792,0,5.025,2.234,5.025,5.028c0,2.792-2.233,5.024-5.025,5.024s-5.026-2.232-5.026-5.024c0-2.794,2.234-5.028,5.026-5.028z"/>
					<path d="M96.051,206.714c3.412,0,6.143,2.729,6.143,6.143c0,3.411-2.73,6.143-6.143,6.143c-3.413,0-6.143-2.731-6.143-6.143c0-3.413,2.73-6.143,6.143-6.143z M96.051,207.829c-2.792,0-5.026,2.234-5.026,5.028c0,2.792,2.234,5.024,5.026,5.024
						s5.025-2.232,5.025-5.024c0-2.794-2.233-5.028-5.025-5.028z"/>
				</g>
			</g>
			<g style="&st22;">
				<clipPath id="aiclp2" style="&st21;">
					<path d="M41.79,140.911V5.119h111.779v135.792H41.79z"/>
				</clipPath>
				<g style="&st25;">
					<path style="&st15;" d="M43.651,139.143V6.887H151.8v132.256H43.651z"/>
					<path d="M46.815,10.051h95.119"/>
					<path d="M141.934,10.051v125.461"/>
					<path d="M141.934,135.513H46.815"/>
					<path d="M46.815,135.513V10.051"/>
				</g>
			</g>
			<g>
				<clipPath id="aiclp3" style="&st21;">
					<path d="M47.001,135.793V10.238h95.306v125.555H47.001z"/>
				</clipPath>
				<g style="&st26;">
					<path d="M46.629,136.165l1.209-4.84"/>
					<path d="M47.839,131.325l1.21-4.841"/>
					<path style="&st0;" d="M46.629,135.327l1.209-4.747"/>
					<path style="&st0;" d="M47.839,130.58l1.21-4.84"/>
					<path d="M49.049,126.484l1.117-4.839"/>
					<path d="M50.167,121.645l1.209-5.025"/>
					<path style="&st0;" d="M49.049,125.74l1.117-4.933"/>
					<path style="&st0;" d="M50.167,120.807l1.209-5.026"/>
					<path d="M51.376,116.619l1.209-5.026"/>
					<path d="M52.585,111.593l1.21-5.026"/>
					<path style="&st0;" d="M51.376,115.781l1.209-5.026"/>
					<path style="&st0;" d="M52.585,110.755l1.21-5.025"/>
					<path d="M53.795,106.567l1.21-5.025"/>
					<path d="M55.005,101.542l1.118-4.933"/>
					<path style="&st0;" d="M53.795,105.73l1.21-5.027"/>
					<path style="&st0;" d="M55.005,100.703l1.118-4.839"/>
					<path d="M56.123,96.609l1.209-4.84"/>
					<path d="M57.332,91.77l1.21-4.747"/>
					<path style="&st0;" d="M56.123,95.864l1.209-4.838"/>
					<path style="&st0;" d="M57.332,91.025l1.21-4.84"/>
					<path d="M58.542,87.022l1.116-4.747"/>
					<path d="M59.659,82.275l1.211-4.56"/>
					<path style="&st0;" d="M58.542,86.186l1.116-4.748"/>
					<path style="&st0;" d="M59.659,81.438l1.211-4.467"/>
					<path d="M60.87,77.715l1.209-4.374"/>
					<path d="M62.079,73.341l1.209-4.189"/>
					<path style="&st0;" d="M60.87,76.971l1.209-4.468"/>
					<path style="&st0;" d="M62.079,72.503l1.209-4.188"/>
					<path d="M63.288,69.152L64.5,65.15"/>
					<path d="M64.5,65.15l1.209-3.909"/>
					<path style="&st0;" d="M63.288,68.315l1.211-4.001"/>
					<path style="&st0;" d="M64.5,64.313l1.209-3.91"/>
					<path d="M65.709,61.241l1.117-3.723"/>
					<path d="M66.826,57.519l1.209-3.537"/>
					<path style="&st0;" d="M65.709,60.403l1.117-3.722"/>
					<path style="&st0;" d="M66.826,56.681l1.209-3.537"/>
					<path d="M68.035,53.981l1.211-3.35"/>
					<path d="M69.246,50.631l1.209-3.072"/>
					<path style="&st0;" d="M68.035,53.145l1.211-3.257"/>
					<path style="&st0;" d="M69.246,49.888l1.209-3.166"/>
					<path d="M70.456,47.56l1.21-2.884"/>
					<path d="M71.666,44.675l1.117-2.701"/>
					<path style="&st0;" d="M70.456,46.722l1.21-2.885"/>
					<path style="&st0;" d="M71.666,43.837l1.117-2.699"/>
					<path d="M72.783,41.975l1.117-2.512"/>
					<path d="M73.899,39.463l1.21-2.42"/>
					<path style="&st0;" d="M72.783,41.138l1.117-2.513"/>
					<path style="&st0;" d="M73.899,38.625l1.21-2.419"/>
					<path d="M75.109,37.042l1.21-2.233"/>
					<path d="M76.319,34.809l1.209-2.048"/>
					<path style="&st0;" d="M75.109,36.206l1.21-2.234"/>
					<path style="&st0;" d="M76.319,33.972l1.209-1.955"/>
					<path d="M77.529,32.761l1.21-1.861"/>
					<path d="M78.739,30.9l1.211-1.769"/>
					<path style="&st0;" d="M77.529,32.017l1.21-1.955"/>
					<path style="&st0;" d="M78.739,30.062l1.211-1.768"/>
					<path d="M79.95,29.131l1.209-1.674"/>
					<path d="M81.159,27.457l1.209-1.49"/>
					<path style="&st0;" d="M79.95,28.294l1.209-1.581"/>
					<path style="&st0;" d="M81.159,26.713l1.209-1.49"/>
					<path d="M82.368,25.967l1.117-1.397"/>
					<path d="M83.485,24.57l1.211-1.209"/>
					<path style="&st0;" d="M82.368,25.223l1.117-1.489"/>
					<path style="&st0;" d="M83.485,23.733l1.211-1.21"/>
					<path d="M84.696,23.361l1.209-1.211"/>
					<path d="M85.906,22.15l1.209-1.023"/>
					<path style="&st0;" d="M84.696,22.523l1.209-1.118"/>
					<path style="&st0;" d="M85.906,21.406l1.209-1.024"/>
					<path d="M87.115,21.127l1.21-0.837"/>
					<path d="M88.325,20.29l1.117-0.931"/>
					<path style="&st0;" d="M87.115,20.382l1.21-0.93"/>
					<path style="&st0;" d="M88.325,19.452l1.117-0.93"/>
					<path d="M89.442,19.359l1.118-0.838"/>
					<path d="M90.56,18.521l1.21-0.651"/>
					<path style="&st0;" d="M89.442,18.521l1.118-0.745"/>
					<path style="&st0;" d="M90.56,17.776l1.21-0.745"/>
					<path d="M91.77,17.871l1.209-0.745"/>
					<path d="M92.979,17.126l1.21-0.56"/>
					<path style="&st0;" d="M91.77,17.032l1.209-0.651"/>
					<path style="&st0;" d="M92.979,16.381l1.21-0.651"/>
					<path d="M94.189,16.566l1.21-0.558"/>
					<path d="M95.399,16.008l1.21-0.466"/>
					<path style="&st0;" d="M94.189,15.729l1.21-0.465"/>
					<path style="&st0;" d="M95.399,15.265l1.21-0.56"/>
					<path d="M96.609,15.542l1.117-0.464"/>
					<path d="M97.726,15.078l1.209-0.465"/>
					<path style="&st0;" d="M96.609,14.705l1.117-0.464"/>
					<path style="&st0;" d="M97.726,14.241l1.209-0.373"/>
					<path d="M98.935,14.613l2.42-0.652"/>
					<path style="&st0;" d="M98.935,13.868l2.42-0.745"/>
					<path d="M101.355,13.961l2.421-0.652"/>
					<path style="&st0;" d="M101.355,13.123l2.421-0.559"/>
					<path d="M103.776,13.309l2.326-0.464"/>
					<path style="&st0;" d="M103.776,12.564l2.326-0.557"/>
					<path d="M106.102,12.845l2.327-0.373"/>
					<path style="&st0;" d="M106.102,12.007l2.327-0.372"/>
					<path d="M108.429,12.472l2.42-0.373"/>
					<path style="&st0;" d="M108.429,11.635l2.42-0.28"/>
					<path d="M110.849,12.099l2.419-0.28"/>
					<path style="&st0;" d="M110.849,11.355l2.419-0.373"/>
					<path d="M113.268,11.819l2.328-0.184"/>
					<path style="&st0;" d="M113.268,10.982l2.328-0.187"/>
					<path d="M115.596,11.635l2.419-0.188"/>
					<path style="&st0;" d="M115.596,10.796l2.419-0.185"/>
					<path d="M118.015,11.448l2.421-0.093"/>
					<path style="&st0;" d="M118.015,10.611l2.421-0.093"/>
					<path d="M120.436,11.355l2.233-0.093"/>
					<path style="&st0;" d="M120.436,10.518l2.233-0.094"/>
					<path d="M122.669,11.262l2.42-0.094"/>
					<path style="&st0;" d="M122.669,10.424l2.42-0.093"/>
					<path d="M125.089,11.168l2.419-0.186"/>
					<path style="&st0;" d="M125.089,10.331l2.419-0.093"/>
					<path d="M127.509,10.982l2.42-0.092"/>
					<path style="&st0;" d="M127.509,10.238l2.42-0.093"/>
					<path d="M129.929,10.89h2.327"/>
					<path style="&st0;" d="M129.929,10.145h2.327"/>
					<path d="M132.256,10.89l1.209-0.094"/>
					<path d="M133.465,10.796h1.21"/>
					<path style="&st0;" d="M132.256,10.145l1.209-0.094"/>
					<path style="&st0;" d="M133.465,10.051h1.21"/>
					<path d="M134.676,10.796h2.418"/>
					<path style="&st0;" d="M134.676,10.051h2.418"/>
					<path d="M137.094,10.796l1.024-0.093"/>
					<path d="M138.119,10.703h1.21"/>
					<path style="&st0;" d="M137.094,10.051l1.024-0.093"/>
					<path style="&st0;" d="M138.119,9.958h1.21"/>
					<path d="M139.329,10.703h2.42"/>
					<path style="&st0;" d="M139.329,9.958h2.42"/>
				</g>
			</g>
			<g style="&st3;">
				<clipPath id="aiclp4" style="&st14;">
					<path d="M0,301.182V0h385.318v301.182H0z"/>
				</clipPath>
				<g style="&st27;">
					<path style="&st11;" d="M46.815,29.783v1.489l32.11,0.092v-1.49l-32.11-0.092"/>
					<path style="&st11;" d="M47.281,73.062v1.489l14.798-0.093V72.97l-14.798,0.092"/>
					<path style="&st11;" d="M63.103,73.62h-1.488l0.093,61.521h1.489L63.103,73.62"/>
					<path style="&st11;" d="M80.042,30.528h-1.489v104.799h1.489V30.528"/>
					<path style="&st11;" d="M70.176,113.083v1.488h2.048v-1.488h-2.048"/>
					<path style="&st11;" d="M70.363,109.732l-8.191,4.188l8.191,4.095v-8.282"/>
					<path style="&st11;" d="M72.224,117.922l8.19-4.002l-8.097-4.095l-0.093,8.097"/>
					<text transform="matrix(1 0 0 1 24.0117 14.6128)"><tspan x="0" y="0">V</tspan></text>
					<text transform="matrix(1 0 0 1 31.9238 17.5908)"><tspan x="0" y="0" style="&st16;">DD</tspan></text>
					<text transform="matrix(1 0 0 1 9.5864 36.4834)"><tspan x="0" y="0">V</tspan></text>
					<text transform="matrix(1 0 0 1 17.4985 39.4629)"><tspan x="0" y="0" style="&st16;">DD</tspan></text>
					<text transform="matrix(1 0 0 1 29.4102 36.4834)"><tspan x="0" y="0">-V</tspan></text>
					<text transform="matrix(1 0 0 1 41.3237 39.4629)"><tspan x="0" y="0" style="&st16;">T</tspan></text>
					<text transform="matrix(1 0 0 1 15.1699 79.2979)"><tspan x="0" y="0">V</tspan></text>
					<text transform="matrix(1 0 0 1 23.082 82.2754)"><tspan x="0" y="0" style="&st16;">DD</tspan></text>
					<text transform="matrix(1 0 0 1 34.9946 79.2979)"><tspan x="0" y="0">/2</tspan></text>
					<path style="&st18;" d="M165.669,60.217v-21.5h144.076v21.5H165.669z"/>
					<text transform="matrix(1 0 0 1 171.0669 54.4468)"><tspan x="0" y="0" style="&st17; &st23;">rising transition of com</tspan></text>
					<text transform="matrix(1 0 0 1 56.5874 147.2402)"><tspan x="0" y="0" style="&st2;">t</tspan></text>
					<text transform="matrix(1 0 0 1 59.4731 150.2178)"><tspan x="0" y="0" style="&st1;">1</tspan></text>
					<text transform="matrix(1 0 0 1 75.8545 147.4258)"><tspan x="0" y="0" style="&st2;">t</tspan></text>
					<text transform="matrix(1 0 0 1 78.7388 150.4043)"><tspan x="0" y="0" style="&st1;">2</tspan></text>
					<text transform="matrix(1 0 0 1 237.2402 183.0728)"><tspan x="0" y="0">com</tspan></text>
				</g>
			</g>
		</g>
	</g>
</svg>
