<?xml version="1.0" encoding="iso-8859-1"?>
<!-- Generator: Adobe Illustrator 9.0, SVG Export Plug-In  -->
<!DOCTYPE svg PUBLIC "-//W3C//DTD SVG 20000303 Stylable//EN"   "http://www.w3.org/TR/2000/03/WD-SVG-20000303/DTD/svg-20000303-stylable.dtd" [
	<!ENTITY st0 "font-size:10.0006;">
	<!ENTITY st1 "font-size:10.3078;">
	<!ENTITY st2 "fill:#000000;stroke:none;">
	<!ENTITY st3 "font-size:11.9993;">
	<!ENTITY st4 "fill-rule:nonzero;clip-rule:nonzero;fill:none;stroke:#000000;stroke-miterlimit:4;">
	<!ENTITY st5 "stroke-miterlimit:10;">
	<!ENTITY st6 "fill:#FFFFFF;">
	<!ENTITY st7 "font-family:'Helvetica';">
	<!ENTITY st8 "font-size:14;">
]>
<svg  width="461.599pt" height="192.399pt" viewBox="0 0 461.599 192.399" xml:space="preserve">
	<g id="Calque_x0020_1" style="&st4; &st7; &st1;">
		<g style="&st5;">
			<path d="M85.04,40.521V29.184"/>
			<path d="M102.047,40.521V29.184"/>
			<path d="M85.04,29.184h17.008"/>
			<path d="M85.04,24.932h17.008"/>
			<path d="M96.378,22.097c0,1.565-1.269,2.835-2.834,2.835s-2.835-1.27-2.835-2.835s1.27-2.834,2.835-2.834s2.834,1.269,2.834,2.834z"/>
			<path d="M85.04,40.521V51.86"/>
			<path d="M102.047,40.522V51.86"/>
			<path d="M85.04,51.86h17.008"/>
			<path d="M85.04,56.112h17.008"/>
			<path d="M102.047,40.522h55.275"/>
			<path d="M117.638,40.522v68.031"/>
			<path d="M117.638,108.554h21.26"/>
			<path d="M144.567,102.884V91.546"/>
			<path d="M161.575,102.884V91.546"/>
			<path d="M144.567,91.546h17.008"/>
			<path d="M144.567,87.294h17.008"/>
			<path d="M155.906,84.459c0,1.565-1.27,2.835-2.835,2.835s-2.834-1.27-2.834-2.835s1.269-2.835,2.834-2.835s2.835,1.27,2.835,2.835z"/>
			<path d="M144.567,114.223v11.339"/>
			<path d="M161.575,114.223v11.339"/>
			<path d="M144.567,125.562h17.008"/>
			<path d="M144.567,129.813h17.008"/>
			<path d="M138.897,102.884v11.339"/>
			<path d="M138.897,102.884h5.669"/>
			<path d="M138.897,114.223h5.669"/>
			<path d="M161.575,102.884h57.402"/>
			<path d="M161.575,114.223h36.85"/>
			<path d="M177.166,73.12h11.338"/>
			<path d="M177.166,90.128h11.338"/>
			<path d="M188.504,73.12v17.008"/>
			<path d="M192.756,73.12v17.008"/>
			<path d="M195.59,84.459c-1.565,0-2.834-1.27-2.834-2.835s1.269-2.834,2.834-2.834s2.834,1.269,2.834,2.834s-1.269,2.835-2.834,2.835z"/>
			<path d="M218.977,73.12h11.338"/>
			<path d="M218.977,90.128h11.338"/>
			<path d="M230.315,73.12v17.008"/>
			<path d="M234.567,73.12v17.008"/>
			<path d="M237.401,84.459c-1.565,0-2.834-1.27-2.834-2.835s1.269-2.835,2.834-2.835s2.834,1.27,2.834,2.835s-1.269,2.835-2.834,2.835z"/>
			<path d="M177.166,90.128v12.756"/>
			<path d="M218.977,90.128v12.756"/>
			<path d="M198.425,143.986h11.338"/>
			<path d="M198.425,126.979h11.338"/>
			<path d="M209.764,143.986v-17.008"/>
			<path d="M214.016,143.986v-17.008"/>
			<path d="M198.425,114.223v12.756"/>
			<path d="M177.166,60.364V73.12"/>
			<path d="M218.977,60.364V73.12"/>
			<path d="M198.425,143.986v12.756"/>
			<path d="M198.425,173.75h11.338"/>
			<path d="M198.425,156.742h11.338"/>
			<path d="M209.764,173.75v-17.008"/>
			<path d="M214.016,173.75v-17.008"/>
			<path d="M198.425,173.75l0,12.757"/>
			<path d="M174.331,60.364H180"/>
			<path d="M174.331,60.364l2.835-5.669"/>
			<path d="M180,60.364l-2.834-5.669"/>
			<path d="M216.142,60.364h5.669"/>
			<path d="M216.142,60.364l2.835-5.669"/>
			<path d="M221.811,60.364l-2.834-5.669"/>
			<path d="M195.591,186.507h5.669"/>
			<path d="M195.591,186.507l2.834,5.669"/>
			<path d="M201.26,186.507l-2.834,5.669"/>
			<path d="M185.669,40.521l-28.347,17.185V23.338l28.347,17.184z"/>
			<path d="M194.173,40.522c0,2.348-1.904,4.252-4.252,4.252s-4.252-1.904-4.252-4.252c0-2.349,1.904-4.252,4.252-4.252s4.252,1.903,4.252,4.252z"/>
			<path d="M60.945,40.698L32.599,57.883V23.515l28.346,17.184z"/>
			<path d="M69.449,40.698c0,2.349-1.903,4.252-4.252,4.252c-2.348,0-4.252-1.903-4.252-4.252c0-2.348,1.904-4.252,4.252-4.252c2.349,0,4.252,1.904,4.252,4.252z"/>
			<path d="M69.449,40.698l15.591-0.177"/>
			<path d="M17.008,40.786l15.591-0.176"/>
			<path d="M194.173,40.698h72.283"/>
			<path d="M240.236,81.624h12.047"/>
			<path d="M214.016,135.482h38.268"/>
			<path d="M252.283,135.482V40.786"/>
			<path d="M266.457,40.256V28.918"/>
			<path d="M283.465,40.256V28.917"/>
			<path d="M266.457,28.918l17.009-0.001"/>
			<path d="M266.457,24.666l17.008-0.001"/>
			<path d="M277.795,21.831c0,1.565-1.27,2.835-2.834,2.835c-1.566,0-2.836-1.27-2.836-2.835s1.27-2.835,2.836-2.835c1.564,0,2.834,1.27,2.834,2.835z"/>
			<path d="M266.457,40.256v11.339"/>
			<path d="M283.465,40.256v11.339"/>
			<path d="M266.457,51.595h17.009"/>
			<path d="M266.457,55.847h17.008"/>
			<path d="M324.567,15.985V50.53"/>
			<path d="M324.567,16.162h22.678"/>
			<path d="M324.567,50.53h22.678"/>
			<path d="M347.245,16.162c9.49,0,17.184,7.693,17.184,17.184s-7.693,17.185-17.184,17.185"/>
			<path d="M333.071,105.453l28.348,17.184V88.269l-28.348,17.185z"/>
			<path d="M324.567,105.453c0,2.348,1.904,4.252,4.252,4.252c2.35,0,4.252-1.904,4.252-4.252c0-2.349-1.902-4.252-4.252-4.252c-2.348,0-4.252,1.903-4.252,4.252z"/>
			<path d="M345.827,89.153V70.02"/>
			<path style="&st6;" d="M350.079,92.697c0,2.348-1.902,4.252-4.252,4.252c-2.348,0-4.252-1.904-4.252-4.252c0-2.349,1.904-4.252,4.252-4.252c2.35,0,4.252,1.903,4.252,4.252z"/>
			<path d="M345.827,133.091v-19.134"/>
			<path d="M324.567,105.453h-24.094"/>
			<path d="M300.473,105.453V40.252"/>
			<path d="M372.756,33.258h21.26"/>
			<path d="M382.057,33.258v72.195"/>
			<path d="M382.057,105.453h-20.639"/>
			<text transform="matrix(1 0 0 1 0 44.7656)"><tspan x="0" y="0" style="&st2; &st8;">D</tspan></text>
			<text transform="matrix(1 0 0 1 450.7095 37.9951)"><tspan x="0" y="0" style="&st2; &st8;">Q</tspan></text>
			<text transform="matrix(1 0 0 1 78.7876 72.9443)"><tspan x="0" y="0" style="&st2; &st3;">ICKN</tspan></text>
			<text transform="matrix(1 0 0 1 142.8574 145.4824)"><tspan x="0" y="0" style="&st2; &st3;">ICK</tspan></text>
			<text transform="matrix(1 0 0 1 138.8574 75.7793)"><tspan x="0" y="0" style="&st2; &st3;">ICKN</tspan></text>
			<path d="M422.362,33.346L394.016,50.53V16.162l28.346,17.184z"/>
			<path d="M430.866,33.346c0,2.349-1.902,4.252-4.252,4.252c-2.348,0-4.252-1.903-4.252-4.252c0-2.348,1.904-4.252,4.252-4.252c2.35,0,4.252,1.904,4.252,4.252z"/>
			<path d="M430.866,33.346l15.592-0.088"/>
			<path d="M198.425,81.259l2.834,0.354"/>
			<path d="M201.26,81.428V68.444"/>
			<text transform="matrix(1 0 0 1 195.5908 65.7793)"><tspan x="0" y="0" style="&st2; &st0;">RN</tspan></text>
			<text transform="matrix(1 0 0 1 219.6851 169.2432)"><tspan x="0" y="0" style="&st2; &st0;">RN</tspan></text>
			<text transform="matrix(0.9702 0 -0.2425 0.9702 65.1968 30.5127)"><tspan x="0" y="0" style="&st2;">tp0</tspan></text>
			<text transform="matrix(0.9702 0 -0.2425 0.9702 65.1968 54.6074)"><tspan x="0" y="0" style="&st2;">tn0</tspan></text>
			<text transform="matrix(0.9702 0 -0.2425 0.9702 167.2441 85.7881)"><tspan x="0" y="0" style="&st2;">tp2</tspan></text>
			<text transform="matrix(0.9702 0 -0.2425 0.9702 188.5039 169.4102)"><tspan x="0" y="0" style="&st2;">tn2</tspan></text>
			<text transform="matrix(1 0 0 1 120.2109 34.8525)"><tspan x="0" y="0" style="&st2; &st0;">master</tspan></text>
			<text transform="matrix(1 0 0 1 289.1333 37.0039)"><tspan x="0" y="0" style="&st2; &st0;">slave</tspan></text>
			<text transform="matrix(0.9702 0 -0.2425 0.9702 121.8896 97.127)"><tspan x="0" y="0" style="&st2;">tp1</tspan></text>
			<text transform="matrix(0.9702 0 -0.2425 0.9702 121.8896 126.8906)"><tspan x="0" y="0" style="&st2;">tn1</tspan></text>
			<text transform="matrix(0.9702 0 -0.2425 0.9702 209.7637 85.7881)"><tspan x="0" y="0" style="&st2;">tp3</tspan></text>
			<text transform="matrix(0.9702 0 -0.2425 0.9702 188.5039 139.6465)"><tspan x="0" y="0" style="&st2;">tn3</tspan></text>
			<path style="&st6;" d="M372.756,33.004c0,2.349-1.904,4.252-4.252,4.252s-4.252-1.903-4.252-4.252c0-2.348,1.904-4.252,4.252-4.252s4.252,1.904,4.252,4.252z"/>
			<text transform="matrix(1 0 0 1 82.7876 11.999)"><tspan x="0" y="0" style="&st2; &st3;">ICK</tspan></text>
			<path d="M283.465,40.61l41.102-0.088"/>
			<path d="M324.567,26.349h-18.426"/>
		</g>
	</g>
</svg>
