<?xml version="1.0" encoding="iso-8859-1"?>
<!-- Generator: Adobe Illustrator 9.0, SVG Export Plug-In  -->
<!DOCTYPE svg PUBLIC "-//W3C//DTD SVG 20000303 Stylable//EN"   "http://www.w3.org/TR/2000/03/WD-SVG-20000303/DTD/svg-20000303-stylable.dtd" [
	<!ENTITY st0 "font-family:'Helvetica';font-style:italic;font-weight:bold;">
	<!ENTITY st1 "font-size:6.3171;">
	<!ENTITY st2 "fill:#169133;">
	<!ENTITY st3 "fill-rule:nonzero;clip-rule:nonzero;fill:#169133;">
	<!ENTITY st4 "fill-rule:nonzero;clip-rule:nonzero;">
	<!ENTITY st5 "font-size:11.2304;">
	<!ENTITY st6 "fill:#FB0F0C;">
	<!ENTITY st7 "fill-rule:nonzero;clip-rule:nonzero;fill:#FB0F0C;">
	<!ENTITY st8 "fill:#FFFFFF;">
	<!ENTITY st9 "font-family:'Helvetica';">
	<!ENTITY st10 "fill-rule:nonzero;clip-rule:nonzero;fill:none;">
	<!ENTITY st11 "fill-rule:evenodd;clip-rule:evenodd;stroke:none;">
	<!ENTITY st12 "fill-rule:nonzero;clip-rule:nonzero;stroke:#000000;stroke-miterlimit:4;">
	<!ENTITY st13 "font-family:'Symbol';">
	<!ENTITY st14 "fill-rule:nonzero;clip-rule:nonzero;fill:none;stroke:#FFFFFF;stroke-width:0;stroke-miterlimit:10;">
	<!ENTITY st15 "font-size:9.8266;">
	<!ENTITY st16 "clip-path:url(#aiclp1);">
]>
<svg  width="455.882pt" height="153.014pt" viewBox="0 0 455.882 153.014" xml:space="preserve">
	<g id="Calque_x0020_1" style="&st12; &st9; &st15;">
		<g style="&st11;">
			<g>
				<clipPath id="aiclp1" style="&st10;">
					<path d="M0,153.014V0h455.882v153.014H0z"/>
				</clipPath>
				<g style="&st16;">
					<path d="M395.87,35.796v-1.052h-17.022l-0.173,0.088l-0.177,0.087l-0.088,0.176l-0.086,0.176v8.422h-15.355v-8.422v-0.176l-0.086-0.176l-0.177-0.087l-0.264-0.088h-14.738v1.052h14.211v8.424l0.089,0.262l0.088,0.176l0.176,0.089h0.175h16.405h0.265
						l0.176-0.089l0.089-0.176V44.22v-8.424h16.493"/>
					<path d="M378.761,46.675v-1.052h-17.02v1.052h17.02"/>
					<path d="M371.305,46.5h-1.055v12.284h1.055V46.5"/>
					<path d="M345.247,34.744v1.052h17.021h0.264l0.175-0.086l0.088-0.176v-0.263v-8.424h15.353v8.424l0.09,0.263l0.088,0.176l0.174,0.086h0.177h14.739v-1.052h-14.213v-8.423v-0.175l-0.089-0.175l-0.176-0.088l-0.262-0.088h-16.407l-0.176,0.088l-0.177,0.088
						l-0.085,0.175l-0.088,0.175v8.423h-16.495"/>
					<path d="M361.742,23.864v1.053h17.02v-1.053h-17.02"/>
					<path d="M369.945,18.6c1.876,0,3.377,1.327,3.377,2.984c0,1.658-1.501,2.983-3.377,2.983c-1.878,0-3.379-1.325-3.379-2.983c0-1.657,1.501-2.984,3.379-2.984z M369.945,19.654c-1.293,0-2.327,0.857-2.327,1.93s1.034,1.93,2.327,1.93
						c1.291,0,2.324-0.857,2.324-1.93s-1.033-1.93-2.324-1.93z"/>
					<path d="M370.25,9.476h-1.052v9.562h1.052V9.476"/>
					<path d="M396.659,107.391v-1.055H379.64l-0.178,0.089l-0.175,0.088l-0.087,0.177l-0.089,0.174v8.423h-15.354v-8.423v-0.174l-0.088-0.177l-0.174-0.088l-0.264-0.089h-14.741v1.055h14.215v8.423l0.088,0.263l0.089,0.176l0.175,0.087h0.175h16.408h0.262
						l0.176-0.087l0.086-0.176v-0.263v-8.423h16.495"/>
					<path d="M379.902,118.27v-1.054h-17.02v1.054h17.02"/>
					<path d="M372.445,118.094h-1.053v12.283h1.053v-12.283"/>
					<path d="M346.037,106.336v1.055h17.021h0.262l0.177-0.087l0.09-0.176v-0.265V98.44h15.351v8.423l0.089,0.265l0.087,0.176l0.176,0.087h0.175h14.741v-1.055H379.99v-8.422v-0.176l-0.088-0.175l-0.177-0.087l-0.263-0.088h-16.405l-0.175,0.088l-0.177,0.087
						l-0.089,0.175l-0.086,0.176v8.422h-16.494"/>
					<path d="M362.882,95.459v1.052h17.02v-1.052h-17.02"/>
					<path d="M371.083,90.193c1.876,0,3.38,1.325,3.38,2.983c0,1.658-1.504,2.984-3.38,2.984s-3.378-1.326-3.378-2.984c0-1.658,1.502-2.983,3.378-2.983z M371.083,91.247c-1.29,0-2.323,0.858-2.323,1.93c0,1.073,1.033,1.93,2.323,1.93
						c1.293,0,2.326-0.857,2.326-1.93c0-1.072-1.033-1.93-2.326-1.93z"/>
					<path d="M371.392,81.069h-1.054v9.563h1.054v-9.563"/>
					<path d="M371.305,56.766h-1.055v25.27h1.055v-25.27"/>
					<path d="M396.747,34.568h-1.051l-0.089,72.206h1.052l0.088-72.206"/>
					<path d="M369.637,10.704V9.652H267.335v1.052h102.302"/>
					<path d="M372.181,130.64v-1.051h-66.855v1.051h66.855"/>
					<path d="M348.404,35.796v-1.052h-81.156v1.052h81.156"/>
					<path d="M349.37,107.391v-1.055h-81.858v1.055h81.858"/>
					<path d="M429.385,71.506v-1.053h-33.689v1.053h33.689"/>
					<path d="M306.466,10.002h-1.053v119.587h1.053V10.002"/>
					<path d="M306.29,8.072c1.219,0,2.193,0.974,2.193,2.193c0,1.219-0.975,2.193-2.193,2.193c-1.217,0-2.191-0.975-2.191-2.193c0-1.219,0.975-2.193,2.191-2.193z"/>
					<path d="M306.29,7.545c1.512,0,2.721,1.21,2.721,2.721s-1.209,2.719-2.721,2.719c-1.51,0-2.719-1.208-2.719-2.719s1.209-2.721,2.719-2.721z M306.29,8.072c-1.217,0-2.191,0.974-2.191,2.193c0,1.219,0.975,2.193,2.191,2.193c1.219,0,2.193-0.975,2.193-2.193
						c0-1.219-0.975-2.193-2.193-2.193z"/>
					<path d="M370.25,71.242v-1.053h-64.749v1.053h64.749"/>
					<path d="M370.338,68.26c1.218,0,2.193,0.974,2.193,2.193c0,1.219-0.976,2.193-2.193,2.193s-2.193-0.975-2.193-2.193c0-1.219,0.976-2.193,2.193-2.193z"/>
					<path d="M370.338,67.732c1.512,0,2.72,1.209,2.72,2.721c0,1.511-1.208,2.719-2.72,2.719c-1.51,0-2.721-1.208-2.721-2.719c0-1.511,1.211-2.721,2.721-2.721z M370.338,68.26c-1.218,0-2.193,0.974-2.193,2.193c0,1.219,0.976,2.193,2.193,2.193
						s2.193-0.975,2.193-2.193c0-1.219-0.976-2.193-2.193-2.193z"/>
					<text transform="matrix(1 0 0 1 246.7168 12.1953)"><tspan x="0" y="0" style="&st4;">sel</tspan></text>
					<text transform="matrix(1 0 0 1 253.0347 36.3232)"><tspan x="0" y="0" style="&st4;">I</tspan></text>
					<text transform="matrix(1 0 0 1 255.7544 39.1309)"><tspan x="0" y="0" style="&st4; &st1;">0</tspan></text>
					<text transform="matrix(1 0 0 1 253.0347 110.0225)"><tspan x="0" y="0" style="&st4;">I</tspan></text>
					<text transform="matrix(1 0 0 1 255.7544 112.8291)"><tspan x="0" y="0" style="&st4; &st1;">1</tspan></text>
					<text transform="matrix(1 0 0 1 436.7563 74.4014)"><tspan x="0" y="0" style="&st4;">out</tspan></text>
					<path d="M306.115,68.698c1.219,0,2.195,0.975,2.195,2.193c0,1.219-0.977,2.193-2.195,2.193s-2.193-0.974-2.193-2.193c0-1.218,0.975-2.193,2.193-2.193z"/>
					<path d="M306.115,68.171c1.511,0,2.721,1.209,2.721,2.72c0,1.511-1.21,2.72-2.721,2.72c-1.509,0-2.719-1.208-2.719-2.72c0-1.511,1.21-2.72,2.719-2.72z M306.115,68.698c-1.219,0-2.193,0.975-2.193,2.193c0,1.219,0.975,2.193,2.193,2.193
						s2.195-0.974,2.195-2.193c0-1.218-0.977-2.193-2.195-2.193z"/>
					<path style="&st8;" d="M350.422,70.716l-24.654-11.757v23.602l24.654-11.845"/>
					<path style="&st14;" d="M350.422,70.716"/>
					<path style="&st14;" d="M325.243,58.169"/>
					<path style="&st14;" d="M351.738,83.526"/>
					<path d="M326.031,58.521l-0.788-0.352v0.79v23.602v0.877l0.788-0.35l24.655-11.846l0.965-0.526l-0.965-0.438l-24.655-11.756z M349.194,70.716l-22.9,11.056V59.837l22.9,10.878z"/>
					<path style="&st14;" d="M326.031,58.521"/>
					<path style="&st8;" d="M354.239,67.471c1.73,0,3.115,1.5,3.115,3.377s-1.385,3.377-3.115,3.377c-1.729,0-3.114-1.5-3.114-3.377s1.385-3.377,3.114-3.377z"/>
					<path d="M354.239,66.417c2.315,0,4.167,1.97,4.167,4.431s-1.852,4.431-4.167,4.431c-2.316,0-4.167-1.969-4.167-4.431s1.851-4.431,4.167-4.431z M354.239,67.471c-1.729,0-3.114,1.5-3.114,3.377s1.385,3.377,3.114,3.377c1.73,0,3.115-1.5,3.115-3.377
						s-1.385-3.377-3.115-3.377z"/>
					<path style="&st2;" d="M281.46,104.408v4.914h114.586h0.525l0.439-0.177l0.789-0.526l0.527-0.789l0.175-0.438v-0.527V73.436h9.212v-4.913h-11.668l-0.439,0.088l-0.526,0.088l-0.79,0.526l-0.526,0.79l-0.088,0.526l-0.087,0.439v33.428H281.46"/>
					<path style="&st2;" d="M407.625,79.314l16.495-8.247l-16.495-8.335v16.582"/>
					<path style="&st2;" d="M281.374,32.375v4.913h112.129v33.428l0.087,0.526l0.087,0.439l0.527,0.791l0.788,0.526l0.528,0.175h0.438h11.668V68.26h-9.211V34.832v-0.439l-0.177-0.525l-0.525-0.791l-0.789-0.526l-0.438-0.087l-0.527-0.088H281.374"/>
					<path style="&st2;" d="M407.539,79.051l16.582-8.335l-16.582-8.247v16.583"/>
					<path d="M159.77,35.796v-1.052h-17.021l-0.175,0.088l-0.176,0.087l-0.088,0.176l-0.087,0.176v8.422h-15.354v-8.422v-0.176l-0.087-0.176l-0.175-0.087l-0.263-0.088h-14.74v1.052h14.213v8.424l0.088,0.262l0.087,0.176l0.176,0.089h0.176h16.406h0.264l0.175-0.089
						l0.088-0.176V44.22v-8.424h16.494"/>
					<path d="M142.661,46.675v-1.052H125.64v1.052h17.021"/>
					<path d="M135.203,46.5h-1.053v12.284h1.053V46.5"/>
					<path d="M109.146,34.744v1.052h17.021h0.263l0.176-0.086l0.087-0.176v-0.263v-8.424h15.354v8.424l0.087,0.263l0.088,0.176l0.175,0.086h0.176h14.739v-1.052H143.1v-8.423v-0.175l-0.088-0.175l-0.176-0.088l-0.263-0.088h-16.407l-0.176,0.088l-0.175,0.088
						l-0.087,0.175l-0.088,0.175v8.423h-16.494"/>
					<path d="M125.64,23.864v1.053h17.021v-1.053H125.64"/>
					<path d="M133.843,18.6c1.877,0,3.379,1.327,3.379,2.984c0,1.658-1.502,2.983-3.379,2.983c-1.876,0-3.377-1.325-3.377-2.983c0-1.657,1.501-2.984,3.377-2.984z M133.843,19.654c-1.292,0-2.325,0.857-2.325,1.93s1.033,1.93,2.325,1.93
						c1.292,0,2.325-0.857,2.325-1.93s-1.033-1.93-2.325-1.93z"/>
					<path d="M134.15,9.476h-1.052v9.562h1.052V9.476"/>
					<path d="M160.559,107.391v-1.055h-17.02l-0.176,0.089l-0.175,0.088l-0.087,0.177l-0.088,0.174v8.423h-15.354v-8.423v-0.174l-0.089-0.177l-0.175-0.088l-0.264-0.089h-14.74v1.055h14.214v8.423l0.087,0.263l0.088,0.176l0.176,0.087h0.175h16.408h0.263
						l0.176-0.087l0.087-0.176v-0.263v-8.423h16.494"/>
					<path d="M143.801,118.27v-1.054H126.78v1.054h17.021"/>
					<path d="M136.344,118.094h-1.053v12.283h1.053v-12.283"/>
					<path d="M109.935,106.336v1.055h17.021h0.263l0.176-0.087l0.088-0.176v-0.265V98.44h15.354v8.423l0.087,0.265l0.088,0.176l0.175,0.087h0.175h14.74v-1.055h-14.213v-8.422v-0.176l-0.087-0.175l-0.176-0.087l-0.263-0.088h-16.406l-0.176,0.088l-0.175,0.087
						l-0.088,0.175l-0.088,0.176v8.422h-16.494"/>
					<path d="M126.78,95.459v1.052h17.021v-1.052H126.78"/>
					<path d="M134.983,90.193c1.877,0,3.378,1.325,3.378,2.983c0,1.658-1.5,2.984-3.378,2.984c-1.877,0-3.377-1.326-3.377-2.984c0-1.658,1.5-2.983,3.377-2.983z M134.983,91.247c-1.292,0-2.325,0.858-2.325,1.93c0,1.073,1.033,1.93,2.325,1.93
						s2.325-0.857,2.325-1.93c0-1.072-1.033-1.93-2.325-1.93z"/>
					<path d="M135.292,81.069h-1.054v9.563h1.054v-9.563"/>
					<path d="M135.203,56.766h-1.053v25.27h1.053v-25.27"/>
					<path d="M160.646,34.568h-1.052l-0.088,72.206h1.052l0.088-72.206"/>
					<path d="M133.536,10.704V9.652H31.234v1.052h102.302"/>
					<path d="M136.081,130.64v-1.051H69.225v1.051h66.856"/>
					<path d="M112.303,35.796v-1.052H31.147v1.052h81.156"/>
					<path d="M113.269,107.391v-1.055H31.41v1.055h81.859"/>
					<path d="M193.285,71.506v-1.053h-33.69v1.053h33.69"/>
					<path d="M70.365,10.002h-1.052v119.587h1.052V10.002"/>
					<path d="M70.189,8.072c1.219,0,2.194,0.974,2.194,2.193c0,1.219-0.975,2.193-2.194,2.193c-1.218,0-2.192-0.975-2.192-2.193c0-1.219,0.974-2.193,2.192-2.193z"/>
					<path d="M70.189,7.545c1.512,0,2.721,1.21,2.721,2.721s-1.209,2.719-2.721,2.719c-1.51,0-2.718-1.208-2.718-2.719s1.208-2.721,2.718-2.721z M70.189,8.072c-1.218,0-2.192,0.974-2.192,2.193c0,1.219,0.974,2.193,2.192,2.193c1.219,0,2.194-0.975,2.194-2.193
						c0-1.219-0.975-2.193-2.194-2.193z"/>
					<path d="M134.15,71.242v-1.053H31.147v1.053H134.15"/>
					<path d="M134.237,68.26c1.219,0,2.194,0.974,2.194,2.193c0,1.219-0.975,2.193-2.194,2.193c-1.218,0-2.194-0.975-2.194-2.193c0-1.219,0.976-2.193,2.194-2.193z"/>
					<path d="M134.237,67.732c1.512,0,2.72,1.209,2.72,2.721c0,1.511-1.208,2.719-2.72,2.719c-1.51,0-2.719-1.208-2.719-2.719c0-1.511,1.209-2.721,2.719-2.721z M134.237,68.26c-1.218,0-2.194,0.974-2.194,2.193c0,1.219,0.976,2.193,2.194,2.193
						c1.219,0,2.194-0.975,2.194-2.193c0-1.219-0.975-2.193-2.194-2.193z"/>
					<text transform="matrix(1 0 0 1 10.6167 12.1953)"><tspan x="0" y="0" style="&st4;">sel</tspan></text>
					<text transform="matrix(1 0 0 1 16.9326 36.3232)"><tspan x="0" y="0" style="&st4;">I</tspan></text>
					<text transform="matrix(1 0 0 1 19.6538 39.1309)"><tspan x="0" y="0" style="&st4; &st1;">0</tspan></text>
					<text transform="matrix(1 0 0 1 16.9326 110.0225)"><tspan x="0" y="0" style="&st4;">I</tspan></text>
					<text transform="matrix(1 0 0 1 19.6538 112.8291)"><tspan x="0" y="0" style="&st4; &st1;">1</tspan></text>
					<text transform="matrix(1 0 0 1 5.1768 74.0498)"><tspan x="0" y="0" style="&st4;">nsel</tspan></text>
					<text transform="matrix(1 0 0 1 200.6553 74.4014)"><tspan x="0" y="0" style="&st4;">out</tspan></text>
					<path style="&st6;" d="M56.415,103.793v4.914h103.793h0.526l0.439-0.177l0.79-0.523l0.526-0.793l0.176-0.439v-0.523V34.832v-0.439l-0.176-0.525l-0.526-0.791l-0.79-0.526l-0.439-0.087l-0.526-0.088H54.836v4.913h102.916v66.505H56.415"/>
					<path style="&st6;" d="M55.011,26.585l-16.583,8.334l16.583,8.247V26.585"/>
					<text transform="matrix(1 0 0 1 6.9312 147.2227)"><tspan x="0" y="0" style="&st7; &st0; &st5;">no correlation </tspan></text>
					<text transform="matrix(1 0 0 1 85.0171 147.2227)"><tspan x="0" y="0" style="&st7; &st13; &st5;">&#x21D2;</tspan></text>
					<text transform="matrix(1 0 0 1 96.0718 147.2227)"><tspan x="0" y="0" style="&st7; &st0; &st5;"> false current paths</tspan></text>
					<text transform="matrix(1 0 0 1 270.9321 147.2227)"><tspan x="0" y="0" style="&st3; &st0; &st5;">internal correlations </tspan></text>
					<text transform="matrix(1 0 0 1 382.1841 147.2227)"><tspan x="0" y="0" style="&st3; &st13; &st5;">&#x21D2;</tspan></text>
					<text transform="matrix(1 0 0 1 393.2378 147.2227)"><tspan x="0" y="0" style="&st3; &st0; &st5;"> OK</tspan></text>
				</g>
			</g>
		</g>
	</g>
</svg>
