<?xml version="1.0" encoding="iso-8859-1"?>
<!-- Generator: Adobe Illustrator 9.0, SVG Export Plug-In  -->
<!DOCTYPE svg PUBLIC "-//W3C//DTD SVG 20000303 Stylable//EN"   "http://www.w3.org/TR/2000/03/WD-SVG-20000303/DTD/svg-20000303-stylable.dtd" [
	<!ENTITY st0 "fill-rule:nonzero;clip-rule:nonzero;">
	<!ENTITY st1 "fill:#FFFFFF;">
	<!ENTITY st2 "font-family:'Helvetica';">
	<!ENTITY st3 "font-size:18;">
	<!ENTITY st4 "fill-rule:nonzero;clip-rule:nonzero;fill:none;">
	<!ENTITY st5 "fill-rule:evenodd;clip-rule:evenodd;stroke:none;">
	<!ENTITY st6 "fill-rule:nonzero;clip-rule:nonzero;stroke:#000000;stroke-miterlimit:4;">
	<!ENTITY st7 "fill-rule:nonzero;clip-rule:nonzero;fill:none;stroke:#FFFFFF;stroke-width:0;stroke-miterlimit:10;">
	<!ENTITY st8 "clip-path:url(#aiclp1);">
]>
<svg  width="234.75pt" height="148.5pt" viewBox="0 0 234.75 148.5" xml:space="preserve">
	<g id="Calque_x0020_1" style="&st6; &st2; &st3;">
		<g style="&st5;">
			<g>
				<clipPath id="aiclp1" style="&st4;">
					<path d="M0,148.5V0h234.75v148.5H0z"/>
				</clipPath>
				<g style="&st8;">
					<path d="M146.75,30.25v1.5H192V54L40.375,83.375L40.25,83.5L40,83.625l-0.125,0.25l-0.125,0.25l-0.125,21.25l0.125,0.375l0.125,0.25l0.25,0.125h0.25h60.25v-1.5h-59.5L41.25,84.75l151.625-29.375h0.25l0.25-0.125L193.5,55v-0.375V31v-0.25l-0.125-0.25
						l-0.25-0.125l-0.375-0.125h-46"/>
					<path d="M145.875,119.5v1.5h46h0.375l0.25-0.125l0.125-0.25v-0.375V96.625v-0.25l-0.125-0.25L192.25,96L192,95.875L40.375,66.5L40.25,46.625h59.5v-1.5H39.5l-0.25,0.125L39,45.375l-0.125,0.25l-0.125,0.25l0.125,21.25L39,67.5l0.125,0.25l0.25,0.125H39.5
						L191.125,97.25v22.25h-45.25"/>
					<path d="M99.25,16.375v-1.5H31v1.5h68.25"/>
					<path d="M99.375,134.75v-1.5h-68.25v1.5h68.25"/>
					<text transform="matrix(1 0 0 1 9 21.625)"><tspan x="0" y="0" style="&st0;">S</tspan></text>
					<text transform="matrix(1 0 0 1 8 140)"><tspan x="0" y="0" style="&st0;">R</tspan></text>
					<text transform="matrix(1 0 0 1 200.25 37.125)"><tspan x="0" y="0" style="&st0;">Q</tspan></text>
					<text transform="matrix(1 0 0 1 200.25 126.25)"><tspan x="0" y="0" style="&st0;">QB</tspan></text>
					<path style="&st1;" d="M141.688,115.75c1.979,0,3.562,1.861,3.562,4.188s-1.583,4.188-3.562,4.188s-3.562-1.861-3.562-4.188s1.583-4.188,3.562-4.188z"/>
					<path d="M141.688,114.25c2.812,0,5.062,2.527,5.062,5.688s-2.25,5.688-5.062,5.688s-5.062-2.527-5.062-5.688s2.25-5.688,5.062-5.688z M141.688,115.75c-1.979,0-3.562,1.861-3.562,4.188s1.583,4.188,3.562,4.188s3.562-1.861,3.562-4.188
						s-1.583-4.188-3.562-4.188z"/>
					<path style="&st7;" d="M99.125,98.25"/>
					<path style="&st7;" d="M137.5,141.125"/>
					<path d="M120.125,99.875l1.625,0.25l1.625,0.5l1.75,0.75l1.375,0.75l1.5,1l1.375,1.25l1.375,1.25l1.125,1.5L133,108.75l0.75,1.375L134.5,112l0.625,1.875l0.375,1.75l0.375,1.875v2.125v2.125l-0.375,2l-0.375,1.75l-0.625,1.875l-0.75,1.75l-0.75,1.5
						l-1.125,1.625l-1.125,1.375L129.375,135L128,136.25l-1.5,1l-1.375,0.75l-1.75,0.625l-1.625,0.5l-1.625,0.25l-1.875,0.125h-17.625V99.75h17.625l1.875,0.125z M118.25,98.25H99.875h-0.75V99v41.25V141h0.75h18.375l1.875-0.125l1.875-0.25l0.25-0.125L124,140
						l1.75-0.625l1.625-0.875l0.25-0.125l1.5-1l1.375-1.25l1.375-1.375l1.125-1.375l1.125-1.625l0.125-0.25l0.875-1.75l0.75-1.75l0.625-1.875l0.5-2v-0.375l0.375-2v-2.125V117.5l-0.375-2v-0.25l-0.5-2l-0.625-1.875l-0.75-1.875l-0.875-1.625l-0.125-0.25L133,106
						l-1.125-1.5l-1.375-1.25l-1.375-1.25l-1.5-1l-0.25-0.125L125.75,100L124,99.25l-1.75-0.5H122l-1.875-0.375l-1.875-0.125z"/>
					<path style="&st7;" d="M120.125,99.875"/>
					<path style="&st1;" d="M141.688,27.125c1.979,0,3.562,1.861,3.562,4.188s-1.583,4.188-3.562,4.188s-3.562-1.861-3.562-4.188s1.583-4.188,3.562-4.188z"/>
					<path d="M141.688,25.625c2.812,0,5.062,2.527,5.062,5.688S144.5,37,141.688,37s-5.062-2.527-5.062-5.688s2.25-5.688,5.062-5.688z M141.688,27.125c-1.979,0-3.562,1.861-3.562,4.188s1.583,4.188,3.562,4.188s3.562-1.861,3.562-4.188s-1.583-4.188-3.562-4.188z"
						/>
					<path style="&st7;" d="M99.125,9.625"/>
					<path style="&st7;" d="M137.5,52.5"/>
					<path d="M120.125,11.25l1.625,0.25l1.625,0.5l1.75,0.75l1.375,0.75l1.5,1l1.375,1.25L130.75,17l1.125,1.5L133,20.125l0.75,1.375l0.75,1.875l0.625,1.875L135.5,27l0.375,1.875V31v2.125l-0.375,2l-0.375,1.75L134.5,38.75l-0.75,1.75L133,42l-1.125,1.625
						L130.75,45l-1.375,1.375L128,47.625l-1.5,1l-1.375,0.75L123.375,50l-1.625,0.5l-1.625,0.25l-1.875,0.125h-17.625v-39.75h17.625l1.875,0.125z M118.25,9.625H99.875h-0.75v0.75v41.25v0.75h0.75h18.375l1.875-0.125L122,52l0.25-0.125l1.75-0.5l1.75-0.625
						l1.625-0.875l0.25-0.125l1.5-1l1.375-1.25l1.375-1.375L133,44.75l1.125-1.625l0.125-0.25l0.875-1.75l0.75-1.75L136.5,37.5l0.5-2v-0.375l0.375-2V31v-2.125l-0.375-2v-0.25l-0.5-2l-0.625-1.875l-0.75-1.875l-0.875-1.625L134.125,19L133,17.375l-1.125-1.5
						l-1.375-1.25l-1.375-1.25l-1.5-1l-0.25-0.125l-1.625-0.875l-1.75-0.75l-1.75-0.5H122l-1.875-0.375l-1.875-0.125z"/>
					<path style="&st7;" d="M120.125,11.25"/>
				</g>
			</g>
		</g>
	</g>
</svg>
