<?xml version="1.0" encoding="iso-8859-1"?>
<!-- Generator: Adobe Illustrator 9.0, SVG Export Plug-In  -->
<!DOCTYPE svg PUBLIC "-//W3C//DTD SVG 20000303 Stylable//EN"   "http://www.w3.org/TR/2000/03/WD-SVG-20000303/DTD/svg-20000303-stylable.dtd" [
	<!ENTITY st0 "fill-rule:nonzero;clip-rule:nonzero;">
	<!ENTITY st1 "font-family:'Helvetica';">
	<!ENTITY st2 "fill-rule:nonzero;clip-rule:nonzero;fill:none;">
	<!ENTITY st3 "fill-rule:evenodd;clip-rule:evenodd;stroke:none;">
	<!ENTITY st4 "fill-rule:nonzero;clip-rule:nonzero;stroke:#000000;stroke-miterlimit:4;">
	<!ENTITY st5 "font-size:9.2334;">
	<!ENTITY st6 "clip-path:url(#aiclp1);">
]>
<svg  width="95.509pt" height="93.2pt" viewBox="0 0 95.509 93.2" xml:space="preserve">
	<g id="Calque_x0020_1" style="&st4;">
		<g style="&st3;">
			<g>
				<clipPath id="aiclp1" style="&st2;">
					<path d="M0,93.2V0h95.509v93.2H0z"/>
				</clipPath>
				<g style="&st6;">
					<path d="M23.661,18.539h-0.866v13.85h0.866v-13.85"/>
					<path d="M20.198,18.539h-0.866v13.85h0.866v-13.85"/>
					<path d="M23.228,18.106v0.866h10.388v-0.866H23.228"/>
					<path d="M23.228,31.957v0.865h10.388v-0.865H23.228"/>
					<path d="M17.024,22.074c1.804,0,3.246,1.443,3.246,3.246c0,1.804-1.442,3.246-3.246,3.246s-3.246-1.442-3.246-3.246c0-1.803,1.442-3.246,3.246-3.246z M17.024,22.939c-1.323,0-2.38,1.058-2.38,2.38s1.058,2.381,2.38,2.381c1.322,0,2.38-1.059,2.38-2.381
						s-1.058-2.38-2.38-2.38z"/>
					<path d="M23.156,73.94h0.865V60.089h-0.865V73.94"/>
					<path d="M19.693,73.94h0.866V60.089h-0.866V73.94"/>
					<path d="M23.589,73.507v0.865h10.388v-0.865H23.589"/>
					<path d="M23.589,59.657v0.866h10.388v-0.866H23.589"/>
					<path d="M20.126,67.448v-0.866h-7.358v0.866h7.358"/>
					<path d="M34.049,74.012h-0.866v10.387h0.866V74.012"/>
					<path d="M30.153,83.966v0.866h6.925v-0.866h-6.925"/>
					<path d="M30.586,84.183l-0.793,0.433l3.462,6.925l0.794-0.433l-3.463-6.925"/>
					<path d="M37.511,84.616l-0.794-0.433l-3.462,6.925l0.794,0.433l3.462-6.925"/>
					<path d="M33.183,60.162h0.866v-27.7h-0.866v27.7"/>
					<path d="M2.453,45.878v0.866h58.863v-0.866H2.453"/>
					<text transform="matrix(1 0 0 1 65.5 50.4956)"><tspan x="0" y="0" style="&st0; &st1; &st5;">VOUT</tspan></text>
					<path d="M30.153,7.791v0.866h6.925V7.791h-6.925"/>
					<path d="M29.792,8.007l0.793,0.433l3.463-6.925l-0.794-0.433l-3.462,6.925"/>
					<path d="M36.717,8.44l0.794-0.433l-3.462-6.925l-0.794,0.433l3.462,6.925"/>
					<path d="M34.049,8.224h-0.866v10.388h0.866V8.224"/>
					<path d="M13.706,25.969v-0.866H2.453v0.866h11.253"/>
					<path d="M2.886,25.537H2.02v41.55h0.866v-41.55"/>
					<path d="M2.453,66.654v0.866H12.84v-0.866H2.453"/>
					<path d="M2.453,45.013c0.721,0,1.298,0.577,1.298,1.298S3.174,47.61,2.453,47.61c-0.722,0-1.299-0.577-1.299-1.298s0.577-1.298,1.299-1.298z"/>
					<path d="M2.453,44.147c1.202,0,2.164,0.961,2.164,2.164c0,1.202-0.962,2.164-2.164,2.164c-1.203,0-2.164-0.962-2.164-2.164c0-1.203,0.961-2.164,2.164-2.164z M2.453,45.013c-0.722,0-1.299,0.577-1.299,1.298s0.577,1.298,1.299,1.298
						c0.721,0,1.298-0.577,1.298-1.298s-0.578-1.298-1.298-1.298z"/>
					<path d="M33.616,45.013c0.721,0,1.298,0.577,1.298,1.298s-0.577,1.298-1.298,1.298s-1.298-0.577-1.298-1.298s0.577-1.298,1.298-1.298z"/>
					<path d="M33.616,44.147c1.203,0,2.164,0.961,2.164,2.164c0,1.202-0.961,2.164-2.164,2.164c-1.202,0-2.164-0.962-2.164-2.164c0-1.203,0.962-2.164,2.164-2.164z M33.616,45.013c-0.721,0-1.298,0.577-1.298,1.298s0.577,1.298,1.298,1.298s1.298-0.577,1.298-1.298
						s-0.577-1.298-1.298-1.298z"/>
				</g>
			</g>
		</g>
	</g>
</svg>
