<?xml version="1.0" encoding="iso-8859-1"?>
<!-- Generator: Adobe Illustrator 9.0, SVG Export Plug-In  -->
<!DOCTYPE svg PUBLIC "-//W3C//DTD SVG 20000303 Stylable//EN"   "http://www.w3.org/TR/2000/03/WD-SVG-20000303/DTD/svg-20000303-stylable.dtd" [
	<!ENTITY st0 "fill-rule:nonzero;clip-rule:nonzero;">
	<!ENTITY st1 "font-size:8.4447;">
	<!ENTITY st2 "font-family:'Helvetica';">
	<!ENTITY st3 "fill-rule:nonzero;clip-rule:nonzero;fill:none;">
	<!ENTITY st4 "fill-rule:evenodd;clip-rule:evenodd;stroke:none;">
	<!ENTITY st5 "fill-rule:nonzero;clip-rule:nonzero;stroke:#000000;stroke-miterlimit:4;">
	<!ENTITY st6 "font-family:'Symbol';">
	<!ENTITY st7 "clip-path:url(#aiclp1);">
]>
<svg  width="167.047pt" height="120.601pt" viewBox="0 0 167.047 120.601" xml:space="preserve">
	<g id="Calque_x0020_1" style="&st5; &st2; &st1;">
		<g style="&st4;">
			<g>
				<clipPath id="aiclp1" style="&st3;">
					<path d="M0,120.601V0h167.047v120.601H0z"/>
				</clipPath>
				<g style="&st7;">
					<path d="M65.051,54.957v0.792h12.666v-0.792H65.051"/>
					<path d="M65.051,51.791v0.791h12.666v-0.791H65.051"/>
					<path d="M65.447,55.353h-0.793v9.5h0.793v-9.5"/>
					<path d="M78.113,55.353h-0.791v9.5h0.791v-9.5"/>
					<path d="M70.988,109.254h0.792V23.289h-0.792v85.965"/>
					<path d="M65.051,64.853v-0.792H49.217v0.792h15.834"/>
					<path d="M27.247,54.627l-0.396,0.66l15.833,9.5l0.396-0.659l-15.834-9.5"/>
					<path d="M26.852,73.627l0.396,0.66l15.834-9.501l-0.396-0.659l-15.833,9.5"/>
					<path d="M27.445,54.957h-0.792v19h0.792v-19"/>
					<path d="M46.05,60.894c1.979,0,3.562,1.584,3.562,3.563s-1.583,3.562-3.562,3.562s-3.562-1.583-3.562-3.562s1.583-3.563,3.562-3.563z M46.05,61.686c-1.539,0-2.771,1.232-2.771,2.771c0,1.54,1.231,2.771,2.771,2.771s2.771-1.231,2.771-2.771
						c0-1.54-1.232-2.771-2.771-2.771z"/>
					<path d="M80.885,99.29v0.793h12.666V99.29H80.885"/>
					<path d="M80.885,96.124v0.791h12.666v-0.791H80.885"/>
					<path d="M81.28,99.687h-0.792v9.501h0.792v-9.501"/>
					<path d="M93.948,99.687h-0.793v9.501h0.793v-9.501"/>
					<path d="M86.822,96.124h0.791V45.457h-0.791v50.667"/>
					<path d="M80.885,109.716v-0.793H49.217v0.793h31.668"/>
					<path d="M27.247,99.489l-0.396,0.66l15.833,9.5l0.396-0.66l-15.834-9.5"/>
					<path d="M26.852,118.489l0.396,0.66l15.834-9.5l-0.396-0.66l-15.833,9.5"/>
					<path d="M27.445,99.819h-0.792v19h0.792v-19"/>
					<path d="M46.05,105.757c1.979,0,3.562,1.584,3.562,3.562s-1.583,3.562-3.562,3.562s-3.562-1.584-3.562-3.562s1.583-3.562,3.562-3.562z M46.05,106.548c-1.539,0-2.771,1.23-2.771,2.771c0,1.54,1.231,2.771,2.771,2.771s2.771-1.231,2.771-2.771
						c0-1.541-1.232-2.771-2.771-2.771z"/>
					<path d="M119.281,51.791h-0.791v57.001h0.791V51.791"/>
					<path d="M118.886,64.853v-0.792H77.717v0.792h41.169"/>
					<path d="M118.886,109.188v-0.792H93.551v0.792h25.335"/>
					<path d="M27.049,64.853v-0.792H14.383v0.792h12.666"/>
					<path d="M27.049,109.188v-0.792H14.383v0.792h12.666"/>
					<path d="M109.781,39.123h-0.791v12.668h0.791V39.123"/>
					<path d="M106.615,39.123h-0.793v12.668h0.793V39.123"/>
					<path d="M109.385,38.727v0.792h9.501v-0.792h-9.501"/>
					<path d="M109.385,51.394v0.792h9.501v-0.792h-9.501"/>
					<path d="M103.646,42.355c1.648,0,2.969,1.32,2.969,2.969c0,1.65-1.32,2.969-2.969,2.969c-1.651,0-2.971-1.319-2.971-2.969c0-1.649,1.319-2.969,2.971-2.969z M103.646,43.147c-1.211,0-2.178,0.968-2.178,2.177c0,1.209,0.967,2.177,2.178,2.177
						c1.209,0,2.176-0.968,2.176-2.177c0-1.209-0.967-2.177-2.176-2.177z"/>
					<path d="M115.719,7.06v0.792h6.334V7.06h-6.334"/>
					<path d="M115.39,7.257l0.726,0.396l3.166-6.333l-0.727-0.396l-3.165,6.334"/>
					<path d="M121.723,7.653l0.726-0.396l-3.167-6.334l-0.727,0.396l3.168,6.333"/>
					<path d="M119.281,29.689h-0.791v9.5h0.791v-9.5"/>
					<path d="M119.084,63.072c0.66,0,1.188,0.528,1.188,1.188s-0.527,1.188-1.188,1.188s-1.189-0.528-1.189-1.188s0.529-1.188,1.189-1.188z"/>
					<path d="M119.084,62.28c1.099,0,1.979,0.879,1.979,1.979c0,1.099-0.88,1.979-1.979,1.979c-1.1,0-1.979-0.88-1.979-1.979c0-1.1,0.88-1.979,1.979-1.979z M119.084,63.072c-0.66,0-1.189,0.528-1.189,1.188s0.529,1.188,1.189,1.188s1.188-0.528,1.188-1.188
						s-0.527-1.188-1.188-1.188z"/>
					<path d="M119.018,83.392c0.658,0,1.188,0.528,1.188,1.188c0,0.659-0.529,1.187-1.188,1.187c-0.66,0-1.188-0.527-1.188-1.187c0-0.66,0.527-1.188,1.188-1.188z"/>
					<path d="M119.018,82.6c1.099,0,1.979,0.88,1.979,1.979c0,1.099-0.88,1.979-1.979,1.979c-1.1,0-1.979-0.879-1.979-1.979c0-1.1,0.88-1.979,1.979-1.979z M119.018,83.392c-0.66,0-1.188,0.528-1.188,1.188c0,0.659,0.527,1.187,1.188,1.187
						c0.658,0,1.188-0.527,1.188-1.187c0-0.66-0.529-1.188-1.188-1.188z"/>
					<path d="M109.781,16.889h-0.791v12.667h0.791V16.889"/>
					<path d="M106.615,16.889h-0.793v12.667h0.793V16.889"/>
					<path d="M109.385,16.494v0.792h9.501v-0.792h-9.501"/>
					<path d="M109.385,29.161v0.792h9.501v-0.792h-9.501"/>
					<path d="M103.646,20.122c1.648,0,2.969,1.319,2.969,2.969c0,1.649-1.32,2.969-2.969,2.969c-1.651,0-2.971-1.32-2.971-2.969c0-1.649,1.319-2.969,2.971-2.969z M103.646,20.914c-1.211,0-2.178,0.968-2.178,2.177c0,1.209,0.967,2.177,2.178,2.177
						c1.209,0,2.176-0.968,2.176-2.177c0-1.209-0.967-2.177-2.176-2.177z"/>
					<path d="M119.281,7.455h-0.791v9.5h0.791v-9.5"/>
					<path d="M101.139,45.852V45.06H87.218v0.792h13.921"/>
					<path d="M100.941,23.685v-0.792H71.385v0.792h29.557"/>
					<path d="M55.55,63.335c0.66,0,1.188,0.527,1.188,1.188S56.21,65.71,55.55,65.71s-1.188-0.527-1.188-1.188s0.528-1.188,1.188-1.188z"/>
					<path d="M55.55,62.544c1.1,0,1.979,0.879,1.979,1.979s-0.879,1.979-1.979,1.979s-1.979-0.879-1.979-1.979s0.879-1.979,1.979-1.979z M55.55,63.335c-0.66,0-1.188,0.527-1.188,1.188s0.528,1.188,1.188,1.188s1.188-0.527,1.188-1.188s-0.528-1.188-1.188-1.188z"/>
					<path d="M55.154,80.291h0.792V64.457h-0.792v15.833"/>
					<path d="M87.218,80.687v-0.792H55.55v0.792h31.667"/>
					<path d="M87.218,78.839c0.659,0,1.188,0.527,1.188,1.188c0,0.66-0.528,1.188-1.188,1.188s-1.188-0.528-1.188-1.188c0-0.66,0.528-1.188,1.188-1.188z"/>
					<path d="M87.218,78.048c1.099,0,1.979,0.879,1.979,1.979s-0.881,1.979-1.979,1.979s-1.979-0.879-1.979-1.979s0.881-1.979,1.979-1.979z M87.218,78.839c-0.659,0-1.188,0.527-1.188,1.188c0,0.66,0.528,1.188,1.188,1.188s1.188-0.528,1.188-1.188
						c0-0.66-0.528-1.188-1.188-1.188z"/>
					<path d="M131.553,84.909v-0.792h-12.667v0.792h12.667"/>
					<text transform="matrix(1 0 0 1 3.8926 66.7661)"><tspan x="0" y="0" style="&st0;">A</tspan></text>
					<text transform="matrix(1 0 0 1 3.8926 111.1006)"><tspan x="0" y="0" style="&st0;">B</tspan></text>
					<text transform="matrix(1 0 0 1 140.6562 83.4575)"><tspan x="0" y="0" style="&st0;">A </tspan></text>
					<text transform="matrix(1 0 0 1 148.6406 83.4575)"><tspan x="0" y="0" style="&st0; &st6;">&#x2295;</tspan></text>
					<text transform="matrix(1 0 0 1 155.1055 83.4575)"><tspan x="0" y="0" style="&st0;"> B</tspan></text>
					<path d="M162.164,75.079v-0.792h-19v0.792h19"/>
					<path d="M71.647,108c0.66,0,1.188,0.527,1.188,1.188c0,0.659-0.527,1.188-1.188,1.188c-0.659,0-1.187-0.528-1.187-1.188c0-0.66,0.527-1.188,1.187-1.188z"/>
					<path d="M71.647,107.208c1.101,0,1.98,0.881,1.98,1.979s-0.88,1.979-1.98,1.979s-1.979-0.881-1.979-1.979s0.879-1.979,1.979-1.979z M71.647,108c-0.659,0-1.187,0.527-1.187,1.188c0,0.659,0.527,1.188,1.187,1.188c0.66,0,1.188-0.528,1.188-1.188
						c0-0.66-0.527-1.188-1.188-1.188z"/>
				</g>
			</g>
		</g>
	</g>
</svg>
