<?xml version="1.0" encoding="iso-8859-1"?>
<!-- Generator: Adobe Illustrator 9.0, SVG Export Plug-In  -->
<!DOCTYPE svg PUBLIC "-//W3C//DTD SVG 20000303 Stylable//EN"   "http://www.w3.org/TR/2000/03/WD-SVG-20000303/DTD/svg-20000303-stylable.dtd" [
	<!ENTITY st0 "fill-rule:nonzero;clip-rule:nonzero;">
	<!ENTITY st1 "font-family:'Helvetica';">
	<!ENTITY st2 "fill-rule:nonzero;clip-rule:nonzero;fill:none;">
	<!ENTITY st3 "fill-rule:evenodd;clip-rule:evenodd;stroke:none;">
	<!ENTITY st4 "fill-rule:nonzero;clip-rule:nonzero;stroke:#000000;stroke-miterlimit:4;">
	<!ENTITY st5 "font-size:9.8535;">
	<!ENTITY st6 "clip-path:url(#aiclp1);">
]>
<svg  width="196.147pt" height="143.8pt" viewBox="0 0 196.147 143.8" xml:space="preserve">
	<g id="Calque_x0020_1" style="&st4; &st1; &st5;">
		<g style="&st3;">
			<g>
				<clipPath id="aiclp1" style="&st2;">
					<path d="M0,143.8V0h196.147v143.8H0z"/>
				</clipPath>
				<g style="&st6;">
					<path d="M153.884,78.905h0.925v-14.78h-0.925v14.78"/>
					<path d="M157.579,78.905h0.924v-14.78h-0.924v14.78"/>
					<path d="M154.347,79.367v-0.924h-11.086v0.924h11.086"/>
					<path d="M154.347,64.586v-0.923h-11.086v0.923h11.086"/>
					<path d="M158.042,71.053v0.924h7.852v-0.924h-7.852"/>
					<path d="M70.284,19.784H69.36v14.781h0.924V19.784"/>
					<path d="M73.979,19.784h-0.924v14.781h0.924V19.784"/>
					<path d="M69.821,20.246v-0.924H58.736v0.924h11.085"/>
					<path d="M69.821,35.026v-0.924H58.736v0.924h11.085"/>
					<path d="M76.442,23.556c1.924,0,3.464,1.54,3.464,3.464c0,1.925-1.54,3.464-3.464,3.464c-1.925,0-3.464-1.54-3.464-3.464c0-1.924,1.54-3.464,3.464-3.464z M76.442,24.479c-1.412,0-2.541,1.129-2.541,2.541c0,1.412,1.129,2.541,2.541,2.541
						c1.411,0,2.54-1.129,2.54-2.541c0-1.411-1.129-2.541-2.54-2.541z"/>
					<path d="M91.992,123.246h0.924v-14.78h-0.924v14.78"/>
					<path d="M88.297,123.246h0.924v-14.78h-0.924v14.78"/>
					<path d="M92.454,122.785v0.923h11.085v-0.923H92.454"/>
					<path d="M92.454,108.003v0.925h11.085v-0.925H92.454"/>
					<path d="M88.758,116.318v-0.924h-7.852v0.924h7.852"/>
					<path d="M47.651,78.905h0.924v-14.78h-0.924v14.78"/>
					<path d="M43.956,78.905h0.924v-14.78h-0.924v14.78"/>
					<path d="M48.113,78.443v0.924h11.085v-0.924H48.113"/>
					<path d="M48.113,63.663v0.923h11.085v-0.923H48.113"/>
					<path d="M44.418,71.977v-0.924h-7.852v0.924h7.852"/>
					<path d="M59.275,78.982h-0.923v11.085h0.923V78.982"/>
					<path d="M58.813,89.605v0.924H143.8v-0.924H58.813"/>
					<path d="M143.339,90.067h0.923V78.982h-0.923v11.085"/>
					<path d="M103.616,90.067h-0.924v18.475h0.924V90.067"/>
					<path d="M103.616,123.324h-0.924v11.085h0.924v-11.085"/>
					<path d="M99.459,133.947v0.924h7.39v-0.924h-7.39"/>
					<path d="M99.921,134.177l-0.847,0.462l3.695,7.391l0.847-0.463l-3.695-7.39"/>
					<path d="M107.311,134.639l-0.847-0.462l-3.695,7.39l0.847,0.463l3.695-7.391"/>
					<path d="M58.352,64.202h0.923V34.641h-0.923v29.561"/>
					<path d="M133.176,19.784h-0.923v14.781h0.923V19.784"/>
					<path d="M129.481,19.784h-0.923v14.781h0.923V19.784"/>
					<path d="M132.715,19.322v0.924H143.8v-0.924h-11.085"/>
					<path d="M132.715,34.102v0.924H143.8v-0.924h-11.085"/>
					<path d="M126.094,23.556c1.924,0,3.464,1.54,3.464,3.464c0,1.925-1.54,3.464-3.464,3.464s-3.464-1.54-3.464-3.464c0-1.924,1.54-3.464,3.464-3.464z M126.094,24.479c-1.412,0-2.541,1.129-2.541,2.541c0,1.412,1.129,2.541,2.541,2.541s2.541-1.129,2.541-2.541
						c0-1.411-1.129-2.541-2.541-2.541z"/>
					<path d="M143.339,64.202h0.923V34.641h-0.923v29.561"/>
					<path d="M58.813,48.959v0.924h33.256v-0.924H58.813"/>
					<text transform="matrix(1 0 0 1 170.4346 46.4966)"><tspan x="0" y="0" style="&st0;">OUT</tspan></text>
					<text transform="matrix(1 0 0 1 52.1929 118.8589)"><tspan x="0" y="0" style="&st0;">VREF</tspan></text>
					<path d="M58.352,19.861h0.923V8.776h-0.923v11.085"/>
					<path d="M55.118,8.314v0.923h7.39V8.314h-7.39"/>
					<path d="M54.733,8.545l0.847,0.461l3.695-7.39l-0.847-0.461l-3.695,7.39"/>
					<path d="M62.124,9.006l0.847-0.461l-3.695-7.39l-0.847,0.461l3.695,7.39"/>
					<path d="M143.339,19.861h0.923V8.776h-0.923v11.085"/>
					<path d="M140.104,8.314v0.923h7.391V8.314h-7.391"/>
					<path d="M139.72,8.545l0.848,0.461l3.694-7.39l-0.847-0.461l-3.695,7.39"/>
					<path d="M147.11,9.006l0.847-0.461l-3.695-7.39l-0.847,0.461l3.695,7.39"/>
					<path d="M79.752,26.79v0.924h42.956V26.79H79.752"/>
					<path d="M91.607,49.421h0.924v-22.17h-0.924v22.17"/>
					<path d="M143.8,48.959v0.924h22.17v-0.924H143.8"/>
					<text transform="matrix(1 0 0 1 170.4346 74.5171)"><tspan x="0" y="0" style="&st0;">DIN</tspan></text>
					<text transform="matrix(1 0 0 1 4.9268 76.0571)"><tspan x="0" y="0" style="&st0;">DINB</tspan></text>
				</g>
			</g>
		</g>
	</g>
</svg>
