<?xml version="1.0" encoding="iso-8859-1"?>
<!-- Generator: Adobe Illustrator 9.0, SVG Export Plug-In  -->
<!DOCTYPE svg PUBLIC "-//W3C//DTD SVG 20000303 Stylable//EN"   "http://www.w3.org/TR/2000/03/WD-SVG-20000303/DTD/svg-20000303-stylable.dtd" [
	<!ENTITY st0 "fill:#000000;stroke:none;">
	<!ENTITY st1 "stroke-linejoin:miter;">
	<!ENTITY st2 "fill:#FFFFFF;stroke-linecap:round;">
	<!ENTITY st3 "stroke-miterlimit:10;">
	<!ENTITY st4 "fill-rule:evenodd;clip-rule:evenodd;fill:#FFFFFF;stroke-linecap:round;stroke-linejoin:miter;">
	<!ENTITY st5 "font-size:12.0733;">
	<!ENTITY st6 "fill-rule:nonzero;clip-rule:nonzero;fill:none;stroke:#000000;stroke-width:1.44;stroke-linejoin:round;stroke-miterlimit:4;">
	<!ENTITY st7 "fill:#FFFFFF;stroke-linejoin:miter;">
	<!ENTITY st8 "font-family:'Helvetica';">
]>
<svg  width="479.716pt" height="181.364pt" viewBox="0 0 479.716 181.364" xml:space="preserve">
	<g id="Calque_x0020_1" style="&st6; &st8; &st5;">
		<g style="&st3;">
			<path d="M456.343,57.504v16.097h-8.048v12.072h8.048v16.098"/>
			<path d="M444.271,73.601v12.072"/>
			<path style="&st1;" d="M363.785,13.237h92.558v44.267h-92.558V13.237z"/>
			<path style="&st4;" d="M416.1,13.237L391.956,1.165v24.146L416.1,13.237z"/>
			<path style="&st7;" d="M424.15,13.237c0,2.223-1.804,4.024-4.026,4.024c-2.221,0-4.024-1.801-4.024-4.024c0-2.223,1.804-4.024,4.024-4.024c2.223,0,4.026,1.801,4.026,4.024z"/>
			<path style="&st4;" d="M400.006,57.504l24.145-12.073v24.146l-24.145-12.072z"/>
			<path style="&st7;" d="M400.006,57.504c0,2.223-1.802,4.024-4.024,4.024c-2.225,0-4.025-1.801-4.025-4.024c0-2.223,1.801-4.024,4.025-4.024c2.223,0,4.024,1.801,4.024,4.024z"/>
			<path d="M363.785,57.504v16.097h-8.046v12.072h8.046v16.098"/>
			<path d="M351.714,73.601v12.072"/>
			<path d="M456.343,113.842v16.098h-8.048v12.071h8.048v16.098"/>
			<path d="M444.271,129.94v12.071"/>
			<path d="M444.271,79.558H335.617"/>
			<path d="M448.295,158.108h16.096"/>
			<path d="M444.271,135.896h-80.485v24.146"/>
			<path d="M363.785,111.751v32.192"/>
			<path d="M456.343,99.678v16.097"/>
			<path style="&st4;" d="M416.1,135.896l-24.144-12.073v24.146l24.144-12.074z"/>
			<path style="&st7;" d="M424.15,135.896c0,2.22-1.804,4.024-4.026,4.024c-2.221,0-4.024-1.804-4.024-4.024c0-2.223,1.804-4.024,4.024-4.024c2.223,0,4.026,1.801,4.026,4.024z"/>
			<path style="&st4;" d="M363.785,103.702l-12.071,24.146h24.146l-12.074-24.146z"/>
			<path style="&st2;" d="M367.811,99.678c0,2.222-1.801,4.023-4.025,4.023c-2.22,0-4.022-1.801-4.022-4.023c0-2.223,1.803-4.024,4.022-4.024c2.225,0,4.025,1.801,4.025,4.024z"/>
			<text transform="matrix(1 0 0 1 348.4961 59.9185)"><tspan x="0" y="0" style="&st0;">m</tspan></text>
			<text transform="matrix(1 0 0 1 462.9443 59.9185)"><tspan x="0" y="0" style="&st0;">mb</tspan></text>
			<text transform="matrix(1 0 0 1 318.7178 83.4204)"><tspan x="0" y="0" style="&st0;">ck</tspan></text>
			<text transform="matrix(1 0 0 1 360.2441 175.9766)"><tspan x="0" y="0" style="&st0;">d</tspan></text>
			<path d="M140.042,57.504v16.097h-8.048v12.072h8.048v16.098"/>
			<path d="M127.969,73.601v12.072"/>
			<path style="&st1;" d="M47.485,13.237h92.557v44.267H47.485V13.237z"/>
			<path style="&st4;" d="M99.801,13.237L75.655,1.165v24.146l24.146-12.073z"/>
			<path style="&st7;" d="M107.848,13.237c0,2.223-1.802,4.024-4.024,4.024s-4.023-1.801-4.023-4.024c0-2.223,1.8-4.024,4.023-4.024s4.024,1.801,4.024,4.024z"/>
			<path style="&st4;" d="M83.704,57.504l24.145-12.073v24.146L83.704,57.504z"/>
			<path style="&st7;" d="M83.704,57.504c0,2.223-1.802,4.024-4.024,4.024s-4.024-1.801-4.024-4.024c0-2.223,1.802-4.024,4.024-4.024s4.024,1.801,4.024,4.024z"/>
			<path d="M47.485,57.504v16.097h-8.048v12.072h8.048v16.098"/>
			<path d="M35.413,73.601v12.072"/>
			<path d="M140.042,93.722v16.097h-8.048v12.073h8.048v16.097"/>
			<path d="M127.969,109.818v12.073"/>
			<path d="M47.485,93.722v16.097h-8.048v12.073h8.048v16.097"/>
			<path d="M35.413,109.818v12.073"/>
			<path d="M127.969,115.775H19.316"/>
			<path d="M127.969,79.558H19.316"/>
			<path style="&st4;" d="M99.801,115.775l-24.146-12.073v24.146l24.146-12.073z"/>
			<path style="&st7;" d="M107.848,115.775c0,2.221-1.802,4.024-4.024,4.024s-4.023-1.803-4.023-4.024c0-2.223,1.8-4.024,4.023-4.024s4.024,1.801,4.024,4.024z"/>
			<path d="M39.438,137.988h16.097"/>
			<path d="M131.994,137.988h16.096"/>
			<text transform="matrix(1 0 0 1 32.5156 59.2744)"><tspan x="0" y="0" style="&st0;">m</tspan></text>
			<text transform="matrix(1 0 0 1 144.8711 59.2744)"><tspan x="0" y="0" style="&st0;">mb</tspan></text>
			<text transform="matrix(1 0 0 1 0 82.6152)"><tspan x="0" y="0" style="&st0;">ck</tspan></text>
			<text transform="matrix(1 0 0 1 5.3125 119.6382)"><tspan x="0" y="0" style="&st0;">d</tspan></text>
			<path d="M297.95,57.504v16.097h-8.048v12.072h8.048v16.098"/>
			<path d="M285.879,73.601v12.072"/>
			<path style="&st1;" d="M205.396,13.237h92.555v44.267h-92.555V13.237z"/>
			<path style="&st4;" d="M257.709,13.237L233.564,1.165v24.146l24.146-12.073z"/>
			<path style="&st7;" d="M265.757,13.237c0,2.223-1.801,4.024-4.023,4.024c-2.222,0-4.024-1.801-4.024-4.024c0-2.223,1.802-4.024,4.024-4.024c2.223,0,4.023,1.801,4.023,4.024z"/>
			<path style="&st4;" d="M241.613,57.504l24.144-12.073v24.146l-24.144-12.072z"/>
			<path style="&st7;" d="M241.613,57.504c0,2.223-1.802,4.024-4.024,4.024c-2.223,0-4.025-1.801-4.025-4.024c0-2.223,1.802-4.024,4.025-4.024c2.222,0,4.024,1.801,4.024,4.024z"/>
			<path d="M205.396,57.504v16.097h-8.049v12.072h8.049v16.098"/>
			<path d="M193.322,73.601v12.072"/>
			<path d="M285.879,79.558H177.225"/>
			<path d="M205.396,129.94v20.121"/>
			<path d="M297.95,129.94v20.121"/>
			<path style="&st4;" d="M205.396,109.657l-12.073,24.146h24.145l-12.072-24.146z"/>
			<path style="&st2;" d="M209.418,105.633c0,2.223-1.801,4.023-4.023,4.023c-2.224,0-4.024-1.8-4.024-4.023c0-2.223,1.8-4.024,4.024-4.024c2.222,0,4.023,1.801,4.023,4.024z"/>
			<path style="&st4;" d="M297.95,109.657l-12.071,24.146h24.145l-12.073-24.146z"/>
			<path style="&st2;" d="M301.977,105.633c0,2.223-1.803,4.023-4.026,4.023c-2.221,0-4.022-1.8-4.022-4.023c0-2.223,1.802-4.024,4.022-4.024c2.224,0,4.026,1.801,4.026,4.024z"/>
			<text transform="matrix(1 0 0 1 191.23 59.2744)"><tspan x="0" y="0" style="&st0;">m</tspan></text>
			<text transform="matrix(1 0 0 1 301.4932 59.2744)"><tspan x="0" y="0" style="&st0;">mb</tspan></text>
			<text transform="matrix(1 0 0 1 162.0942 83.4204)"><tspan x="0" y="0" style="&st0;">ck</tspan></text>
			<text transform="matrix(1 0 0 1 202.98 164.5459)"><tspan x="0" y="0" style="&st0;">d</tspan></text>
			<text transform="matrix(1 0 0 1 292.7988 164.5459)"><tspan x="0" y="0" style="&st0;">db</tspan></text>
		</g>
	</g>
</svg>
