<?xml version="1.0" encoding="iso-8859-1"?>
<!-- Generator: Adobe Illustrator 9.0, SVG Export Plug-In  -->
<!DOCTYPE svg PUBLIC "-//W3C//DTD SVG 20000303 Stylable//EN"   "http://www.w3.org/TR/2000/03/WD-SVG-20000303/DTD/svg-20000303-stylable.dtd" [
	<!ENTITY st0 "fill:none;stroke:#C0C0C0;stroke-width:1.92;stroke-linejoin:round;stroke-miterlimit:10;">
	<!ENTITY st1 "stroke:#000000;stroke-width:1.92;stroke-miterlimit:10;">
	<!ENTITY st2 "font-size:7.4247;">
	<!ENTITY st3 "font-size:11.1382;">
	<!ENTITY st4 "fill:none;stroke:#000000;stroke-width:1.92;stroke-linejoin:round;stroke-miterlimit:10;">
	<!ENTITY st5 "fill:none;stroke:#000000;stroke-width:1.92;stroke-miterlimit:10;">
	<!ENTITY st6 "fill-rule:evenodd;clip-rule:evenodd;">
	<!ENTITY st7 "fill:#CC1466;">
	<!ENTITY st8 "fill-rule:evenodd;clip-rule:evenodd;fill:#FFFFFF;stroke:#000000;stroke-width:1.92;stroke-linecap:round;stroke-linejoin:round;stroke-miterlimit:10;">
	<!ENTITY st9 "fill-rule:evenodd;clip-rule:evenodd;fill:#C0C0C0;">
	<!ENTITY st10 "font-family:'Helvetica';">
	<!ENTITY st11 "fill:#FFFFFF;stroke:#000000;stroke-width:1.92;stroke-miterlimit:10;">
	<!ENTITY st12 "fill-rule:nonzero;clip-rule:nonzero;stroke:#000000;stroke-miterlimit:4;">
	<!ENTITY st13 "stroke:none;">
]>
<svg  width="284.254pt" height="194.753pt" viewBox="0 0 284.254 194.753" xml:space="preserve">
	<g id="Calque_x0020_1" style="&st12; &st10; &st3;">
		<g style="&st13;">
			<text transform="matrix(1 0 0 1 186.813 43.6592)"><tspan x="0" y="0">B</tspan></text>
			<path style="&st6;" d="M54.797,88.209h46.777h78.705h46.629l-85.981,12.771L54.797,88.209z"/>
			<path style="&st8;" d="M62.222,28.958L34.749,2.674V55.54l27.473-26.582z"/>
			<text transform="matrix(1 0 0 1 0.1484 31.9282)"><tspan x="0" y="0">A</tspan></text>
			<text transform="matrix(1 0 0 1 0.1484 53.312)"><tspan x="0" y="0">CK</tspan></text>
			<path style="&st4;" d="M35.195,28.215H19.008"/>
			<path style="&st4;" d="M35.195,49.6H19.008"/>
			<path style="&st0;" d="M35.195,8.762H19.008"/>
			<path style="&st4;" d="M214.433,24.207c14.405,0,25.987,6.682,25.987,14.998"/>
			<path style="&st4;" d="M214.433,54.054c14.405,0,25.987-6.683,25.987-14.85"/>
			<path style="&st4;" d="M214.433,23.909v31.186"/>
			<path style="&st5;" d="M247.252,39.205c0,1.968-1.464,3.564-3.268,3.564s-3.267-1.596-3.267-3.564c0-1.969,1.463-3.564,3.267-3.564s3.268,1.595,3.268,3.564z"/>
			<path style="&st4;" d="M214.433,48.708h-22.571"/>
			<path style="&st4;" d="M247.401,39.501h25.097"/>
			<text transform="matrix(1 0 0 1 276.2104 39.6499)"><tspan x="0" y="0">C</tspan></text>
			<text transform="matrix(1 0 0 1 112.2661 22.8696)"><tspan x="0" y="0">M</tspan></text>
			<path style="&st4;" d="M214.138,29.403h-77.666"/>
			<path style="&st8;" d="M153.549,29.403l-18.711-10.989v21.978l18.711-10.989z"/>
			<path style="&st11;" d="M158.747,29.255c0,1.722-1.163,3.119-2.598,3.119c-1.436,0-2.6-1.397-2.6-3.119c0-1.723,1.164-3.119,2.6-3.119c1.435,0,2.598,1.396,2.598,3.119z"/>
			<path style="&st4;" d="M60.737,29.403h73.804"/>
			<text transform="matrix(1 0 0 1 187.1099 22.8696)"><tspan x="0" y="0">S</tspan></text>
			<text transform="matrix(1 0 0 1 194.5337 25.9883)"><tspan x="0" y="0" style="&st2;">1</tspan></text>
			<text transform="matrix(1 0 0 1 0.1484 11.1382)"><tspan x="0" y="0">S</tspan></text>
			<text transform="matrix(1 0 0 1 7.5737 14.2568)"><tspan x="0" y="0" style="&st2;">1</tspan></text>
			<text transform="matrix(1 0 0 1 22.2754 12.0288)"><tspan x="0" y="0">X</tspan></text>
			<path style="&st0;" d="M27.918,23.315C44.996,13.217,62.222,3.119,75.438,3.268c11.286,0.148,19.602,7.722,27.621,16.335"/>
			<path style="&st9;" d="M100.609,21.904l6.979,2.673l-1.931-7.276l-5.049,4.603z"/>
			<path style="&st0;" d="M27.621,54.352c12.919,4.307,25.839,8.613,39.056,4.752c11.583-3.415,23.611-13.068,35.491-23.166"/>
			<path style="&st9;" d="M104.618,38.685l2.97-6.979l-7.425,1.782l4.455,5.197z"/>
			<path style="&st0;" d="M118.949,31.631c9.059,9.652,17.969,19.305,27.621,19.008c8.168-0.445,16.779-7.871,25.394-16.335"/>
			<path style="&st9;" d="M174.562,36.754l2.228-7.128l-7.128,2.376l4.9,4.752z"/>
			<path style="&st0;" d="M200.476,60.885c13.662,5.198,27.324,10.396,38.313,7.128c9.206-2.672,16.482-11.435,23.611-21.087"/>
			<path style="&st9;" d="M265.296,49.08l1.188-7.573l-6.831,3.712l5.644,3.861z"/>
			<path style="&st0;" d="M184.437,20.642c18.562-4.455,37.126-8.909,51.38-6.534c11.88,1.782,20.94,8.316,29.404,15.741"/>
			<path style="&st9;" d="M263.215,32.596l7.425,2.079l-2.968-7.128l-4.457,5.049z"/>
			<text transform="matrix(1 0 0 1 0 151.4702)"><tspan x="0" y="0">A</tspan></text>
			<text transform="matrix(1 0 0 1 0 172.855)"><tspan x="0" y="0">CK</tspan></text>
			<text transform="matrix(1 0 0 1 276.2104 159.1929)"><tspan x="0" y="0">C</tspan></text>
			<text transform="matrix(1 0 0 1 112.1177 142.5601)"><tspan x="0" y="0" style="&st7;">M</tspan></text>
			<text transform="matrix(1 0 0 1 186.6646 163.3511)"><tspan x="0" y="0">B</tspan></text>
			<text transform="matrix(1 0 0 1 187.1099 142.5601)"><tspan x="0" y="0">S</tspan></text>
			<text transform="matrix(1 0 0 1 194.5337 145.6792)"><tspan x="0" y="0" style="&st2;">1</tspan></text>
			<path style="&st4;" d="M24.206,147.462c20.048-4.159,39.947-8.466,55.391-8.317c12.474,0,21.83,2.822,30.74,6.386"/>
			<path style="&st1;" d="M27.473,147.536c0,1.763-1.43,3.192-3.193,3.192s-3.193-1.429-3.193-3.192s1.43-3.193,3.193-3.193s3.193,1.43,3.193,3.193z"/>
			<path style="&st6;" d="M109.222,148.872l7.574-0.743l-5.049-5.643l-2.525,6.385z"/>
			<path style="&st4;" d="M24.206,168.845c14.702,3.267,29.552,6.683,44.847,3.712c13.216-2.524,27.027-10.099,40.837-18.117"/>
			<path style="&st1;" d="M27.473,168.92c0,1.763-1.43,3.191-3.193,3.191s-3.193-1.429-3.193-3.191c0-1.764,1.43-3.193,3.193-3.193s3.193,1.43,3.193,3.193z"/>
			<path style="&st6;" d="M111.747,157.484l4.158-6.385l-7.574,0.446l3.416,5.939z"/>
			<path style="&st4;" d="M118.8,149.985c10.099,4.308,20.197,8.614,31.037,8.465c8.91-0.148,18.118-3.267,27.62-6.98"/>
			<path style="&st1;" d="M122.067,150.06c0,1.763-1.429,3.193-3.192,3.193s-3.193-1.43-3.193-3.193s1.43-3.193,3.193-3.193s3.192,1.43,3.192,3.193z"/>
			<path style="&st6;" d="M178.868,154.812l5.05-5.791l-7.722-0.595l2.672,6.386z"/>
			<path style="&st4;" d="M200.92,168.4c14.554,2.376,29.107,4.901,40.688,3.415c9.061-1.188,16.335-4.9,23.464-9.207"/>
			<path style="&st1;" d="M204.188,168.474c0,1.763-1.43,3.192-3.192,3.192c-1.764,0-3.193-1.43-3.193-3.192c0-1.764,1.43-3.193,3.193-3.193c1.763,0,3.192,1.43,3.192,3.193z"/>
			<path style="&st6;" d="M267.078,165.652l3.861-6.533l-7.426,0.742l3.564,5.791z"/>
			<path style="&st4;" d="M185.625,148.055c18.562-3.267,37.125-6.683,51.528-4.9c11.732,1.336,20.494,6.088,28.959,11.435"/>
			<path style="&st1;" d="M188.892,148.129c0,1.764-1.43,3.192-3.193,3.192c-1.763,0-3.192-1.428-3.192-3.192c0-1.763,1.43-3.192,3.192-3.192c1.764,0,3.193,1.429,3.193,3.192z"/>
			<path style="&st6;" d="M264.404,157.634l7.426,0.891l-3.564-6.535l-3.861,5.644z"/>
			<text transform="matrix(1 0 0 1 216.8101 134.0957)"><tspan x="0" y="0">ud du</tspan></text>
			<text transform="matrix(1 0 0 1 220.8198 185.6265)"><tspan x="0" y="0">ud</tspan></text>
			<text transform="matrix(1 0 0 1 233.146 185.6265)"><tspan x="0" y="0"> </tspan></text>
			<text transform="matrix(1 0 0 1 236.2632 185.6265)"><tspan x="0" y="0">d</tspan></text>
			<text transform="matrix(1 0 0 1 242.4956 185.6265)"><tspan x="0" y="0">u</tspan></text>
			<text transform="matrix(1 0 0 1 137.2144 170.7759)"><tspan x="0" y="0">ud</tspan></text>
			<text transform="matrix(1 0 0 1 149.5405 170.7759)"><tspan x="0" y="0"> </tspan></text>
			<text transform="matrix(1 0 0 1 152.6587 170.7759)"><tspan x="0" y="0">d</tspan></text>
			<text transform="matrix(1 0 0 1 158.8911 170.7759)"><tspan x="0" y="0">u</tspan></text>
			<text transform="matrix(1 0 0 1 42.917 189.7827)"><tspan x="0" y="0">ud</tspan></text>
			<text transform="matrix(1 0 0 1 55.2422 189.7827)"><tspan x="0" y="0"> </tspan></text>
			<text transform="matrix(1 0 0 1 58.3604 189.7827)"><tspan x="0" y="0">d</tspan></text>
			<text transform="matrix(1 0 0 1 64.5933 189.7827)"><tspan x="0" y="0">u</tspan></text>
			<text transform="matrix(1 0 0 1 70.8345 189.7827)"><tspan x="0" y="0"> </tspan></text>
			<text transform="matrix(1 0 0 1 74.1016 189.7827)"><tspan x="0" y="0">u</tspan></text>
			<text transform="matrix(1 0 0 1 80.3726 189.7827)"><tspan x="0" y="0">u</tspan></text>
			<text transform="matrix(1 0 0 1 86.5757 189.7827)"><tspan x="0" y="0"> </tspan></text>
			<text transform="matrix(1 0 0 1 89.8428 189.7827)"><tspan x="0" y="0">d</tspan></text>
			<text transform="matrix(1 0 0 1 96.1528 189.7827)"><tspan x="0" y="0">d</tspan></text>
			<text transform="matrix(1 0 0 1 52.7178 134.8389)"><tspan x="0" y="0">ud du</tspan></text>
		</g>
	</g>
</svg>
