/* XPM */
static char * Icon_xpm[] = {
"50 35 218 2",
"  	c None",
". 	c #BFBFBF",
"+ 	c #BEBEBE",
"@ 	c #BEBEC2",
"# 	c #C0C0C6",
"$ 	c #C4C4C6",
"% 	c #C3C3C6",
"& 	c #C0C0C3",
"* 	c #BEBEBF",
"= 	c #8F8FDD",
"- 	c #4141F3",
"; 	c #2121F9",
"> 	c #2424FE",
", 	c #2323FE",
"' 	c #CECEFE",
") 	c #7E7EFE",
"! 	c #2525FA",
"~ 	c #4E4EF0",
"{ 	c #A1A1D5",
"] 	c #4D4DD4",
"^ 	c #0202FE",
"/ 	c #0000FE",
"( 	c #1515FE",
"_ 	c #F1F1FE",
": 	c #2828FE",
"< 	c #0707FE",
"[ 	c #8888E4",
"} 	c #8B8BDD",
"| 	c #5B5BFE",
"1 	c #D1D1FE",
"2 	c #0101FE",
"3 	c #0B0BFC",
"4 	c #A8A8D1",
"5 	c #BDBDBD",
"6 	c #3737EE",
"7 	c #1E1EFE",
"8 	c #1717FE",
"9 	c #A7A7FE",
"0 	c #8989FE",
"a 	c #6565EA",
"b 	c #BEBEC5",
"c 	c #0C0CFE",
"d 	c #AAAAFE",
"e 	c #F0F0FE",
"f 	c #F2F2FE",
"g 	c #8080FE",
"h 	c #0E0EFE",
"i 	c #E7E7FE",
"j 	c #3A3AFE",
"k 	c #4141F2",
"l 	c #2525FE",
"m 	c #0303FE",
"n 	c #C1C1FE",
"o 	c #2020FE",
"p 	c #3434FE",
"q 	c #E6E6FE",
"r 	c #5F5FFE",
"s 	c #4343FE",
"t 	c #0505FE",
"u 	c #3C3CF1",
"v 	c #6363FE",
"w 	c #E1E1FE",
"x 	c #1818FE",
"y 	c #5757FE",
"z 	c #E5E5FE",
"A 	c #1313FE",
"B 	c #8D8DFE",
"C 	c #A1A1FE",
"D 	c #3C3CF2",
"E 	c #E3E3FE",
"F 	c #5555FE",
"G 	c #0404FE",
"H 	c #BDBDFE",
"I 	c #8181FE",
"J 	c #D2D2FE",
"K 	c #5656FE",
"L 	c #7D7DFE",
"M 	c #C3C3FE",
"N 	c #4747FE",
"O 	c #0F0FFE",
"P 	c #1212FE",
"Q 	c #3333FE",
"R 	c #2B2BFE",
"S 	c #0D0DFE",
"T 	c #4A4AFE",
"U 	c #CDCDFE",
"V 	c #6C6CFE",
"W 	c #CFCFFE",
"X 	c #EDEDFE",
"Y 	c #F7F7FE",
"Z 	c #2D2DFE",
"` 	c #6565FE",
" .	c #0606FE",
"..	c #6767FE",
"+.	c #1111FE",
"@.	c #C2C2FE",
"#.	c #7B7BFE",
"$.	c #CBCBFE",
"%.	c #6A6AFE",
"&.	c #EAEAFE",
"*.	c #3D3DFE",
"=.	c #1010FE",
"-.	c #2E2EFE",
";.	c #3636FE",
">.	c #EEEEFE",
",.	c #9A9AFE",
"'.	c #9B9BFE",
").	c #8484FE",
"!.	c #3B3BFE",
"~.	c #8282FE",
"{.	c #9191FE",
"].	c #2727FE",
"^.	c #1A1AFE",
"/.	c #6969FE",
"(.	c #2121FE",
"_.	c #5353FE",
":.	c #D8D8FE",
"<.	c #7373FE",
"[.	c #9696FE",
"}.	c #3F3FFE",
"|.	c #7878FE",
"1.	c #0808FE",
"2.	c #8E8EFE",
"3.	c #3E3EFE",
"4.	c #E9E9FE",
"5.	c #A0A0FE",
"6.	c #7272FE",
"7.	c #9C9CFE",
"8.	c #8F8FFE",
"9.	c #F9F9FE",
"0.	c #8B8BFE",
"a.	c #9E9EFE",
"b.	c #7575FE",
"c.	c #AEAEFE",
"d.	c #E2E2FE",
"e.	c #2A2AFE",
"f.	c #E8E8FE",
"g.	c #5858FE",
"h.	c #B6B6FE",
"i.	c #0B0BFE",
"j.	c #DFDFFE",
"k.	c #4949FE",
"l.	c #D3D3FE",
"m.	c #5C5CFE",
"n.	c #D4D4FE",
"o.	c #C4C4FE",
"p.	c #B3B3FE",
"q.	c #CACAFE",
"r.	c #4545FE",
"s.	c #0A0AFE",
"t.	c #ACACFE",
"u.	c #B1B1FE",
"v.	c #6D6DFE",
"w.	c #DCDCFE",
"x.	c #4444FE",
"y.	c #E4E4FE",
"z.	c #B7B7FE",
"A.	c #BBBBFE",
"B.	c #B0B0FE",
"C.	c #3C3CFE",
"D.	c #8686FE",
"E.	c #3232FE",
"F.	c #8787FE",
"G.	c #8C8CFE",
"H.	c #4141FE",
"I.	c #6060FE",
"J.	c #F4F4FE",
"K.	c #F8F8FE",
"L.	c #EBEBFE",
"M.	c #DADAFE",
"N.	c #1D1DFE",
"O.	c #A9A9FE",
"P.	c #1B1BFE",
"Q.	c #A2A2FE",
"R.	c #9292FE",
"S.	c #ECECFE",
"T.	c #5E5EFE",
"U.	c #2626FE",
"V.	c #DBDBFE",
"W.	c #4F4FFE",
"X.	c #3737FE",
"Y.	c #9999FE",
"Z.	c #4242FE",
"`.	c #D7D7FE",
" +	c #C6C6FE",
".+	c #0909FE",
"++	c #5A5AFE",
"@+	c #7474FE",
"#+	c #2F2FFE",
"$+	c #B5B5FE",
"%+	c #4B4BFE",
"&+	c #9898FE",
"*+	c #D5D5FE",
"=+	c #4D4DFE",
"-+	c #ABABFE",
";+	c #C0C0FE",
">+	c #C8C8FE",
",+	c #1919FE",
"'+	c #3F3FF1",
")+	c #BFBFC0",
"!+	c #3535F5",
"~+	c #5D5DE9",
"{+	c #7C7CDD",
"]+	c #C9C9FE",
"^+	c #9F9FD4",
"/+	c #BEBEC3",
"(+	c #4D4DF2",
"_+	c #1C1CFE",
":+	c #6D6DE4",
"<+	c #6969D5",
"[+	c #7A7AF5",
"}+	c #1414FE",
"|+	c #3434F5",
"1+	c #8C8CDD",
"2+	c #C0C0C0",
"3+	c #B3B3C6",
"4+	c #B6B6C6",
"5+	c #BEBEC0",
". + . . + @ # # # # # # # # # # # # # # # # # # # # # # # # # # # # # # # # # # # $ % # & . . . . . ",
". . * = - ; > > > > > , > > > > > > > > > > > > > > > > > > > > > > > > > > > , > ' ) > ! ~ { . . . ",
"+ * ] ^ / / / / / / / / / / / / / / / / / / / / / / / / / / / / / / / / / / / / ( _ : / / / < [ . . ",
". } ^ / / / / / / / / / / / / / / / / / / / / / / / / / / / / / / / / / / / / / | 1 2 / / / / 3 4 . ",
"5 6 / / / / / / / / / / / / / / 7 8 / / / / / / / / / / / / / / / / / / / / / / 9 0 / / / / / / a . ",
"b > / / / / / / / / / / / / c d e f g ^ / / / / / / / / / / / / / / / / / / / h i j / / / / / / k . ",
"b l / / / / / / / / / / / m d n o p q r / / / / / / / / / / / / / / / / / / / s q t / / / / / / u . ",
"b l / / / / / / / / / / / v w x / / y z A / / / / / / / / / / / / / / / / / / B C / / / / / / / D . ",
"b l / / / / / / / / / / ( E F / / / G H I / / / / / / / / / / / / / / / / / t J K / / / / / / / D . ",
"b l / / / / / / / / / / L M G / / / / N i O / / / / / / / / / / / / O P P P Q _ R P P P m / / / D . ",
"b l / / / / / / / / / S q T / / / / / ^ U V / / / / / / / / / / / 2 W X X X Y Y X X X X Z / / / u . ",
"b l / / / / / / / / / ` W  ./ / / / / / ..U t / / / / / / / / / / / +.A A A @.#.A A A A m / / / u . ",
"b l / / / / / / / / ^ $.%./ / / / / / / O &.*./ / / / / / / / / / / / / / =.e -./ / / / / / / / D . ",
"b l / / / / / / / / ;.>.P / / / / / / / / ,.'./ 8 ). .!.` A ~.{.].^.g /.(._.:.c <.[.!./ }.[.|.1.D . ",
"b l / / / / / / / / 2.9 / / / / / / / / / 3.4.h 1.:.;.5.6.7.8.V J Q 9.0.8 a.{.b.c._.d.e.f.g.h./.u . ",
"b l / / / / / / / i.j.k./ / / / / / / / /  .l.m./ ).B :.(.n.o.p.q.r.q G s.d.s t.1 u.' v.w./ ^ ^ u . ",
"b l / / / / / / ^ x.y.h ^ ^ ^ ^ ^ ^ / / / / L z./ -.4.A.2 B.|.C.D.E.z G 3.4.1.F.'.-.G.Z X H.,.I.D . ",
"b l / / / / / l z J.K.L.&.&.&.&.&.M./ / / / ].e N./ ) s / o 5.O.*.P.I ^ 2.Q./ P R.c.F / g.u.{.c u . ",
"b l / / / / /  .e.S.T.U.U.U.U.U.U., / / / / / @.6./ / / / / / / / / / 1.V.W./ / / / / / / / / / u . ",
"b l / / / / / / X.f.O / / / / / / / / / / / / ..q.m / / / / / / / / / *.q =./ / / / / / / / / / u . ",
"b l / / / / / / D.O./ / / / / / / / / / / / / A X p / / / / / / / / / Y.'./ / / / / / / / / / / u . ",
"b l / / / / / 2 W T./ / / / / / / / / / / / / / 9 2./ / / / / / / / i.f.Z./ / / / / / / / / / / D . ",
"b l / / / / / > f x / / / / / / / / / / / / / / N z s./ / / / / / / m.`.G / / / / / / / / / / / D . ",
"b l / / / / / /. +/ / / / / / / / / / / / / / / .+`.++/ / / / / / m M @+/ / / / / / / / / / / / u . ",
"b l / / / / / p.#./ / / / / / / / / / / / / / / / |.n / / / / / / C.S.( / / / / / / / / / / / / u . ",
"b l / / / / A L.#+/ / / / / / / / / / / / / / / / 8 X j / / / / ^ $+B / / / / / / / / / / / / / u . ",
"b l / / / / %+V.1./ / / / / / / / / / / / / / / / / R.u.^ / / / s &.7 / / / / / / / / / / / / / u . ",
"b l / / / / [.&+/ / / / / / / / / / / / / / / / / / N.S.r./ / S *+|./ / / / / / / / / / / / / / D . ",
"b l / / / ^ j.=+/ / / / / / / / / / / / / / / / / / / <.V.o S -+;+1./ / / / / / / / / / / / / / D . ",
"b > / / / #+S.A / / / / / / / / / / / / / / / / / / /  .a.4.w >+,+/ / / / / / / / / / / / / / / '+. ",
")+!+/ / / ) u./ / / / / / / / / / / / / / / / / / / / / / ;.}.G / / / / / / / / / / / / / / / / ~+. ",
". {+/ / / ]+` / / / / / / / / / / / / / / / / / / / / / / / / / / / / / / / / / / / / / / / /  .^+. ",
". /+(+/ o f _+/ / / / / / / / / / / / / / / / / / / / / / / / / / / / / / / / / / / / / / / ^ :+. . ",
". + /+<+[+1 =.=.=.=.=.=.=.=.=.=.=.=.=.=.=.=.=.=.=.=.=.=.=.=.=.=.=.=.=.=.=.=.=.=.=.=.=.=.}+|+1+* . . ",
"+ . + . 2+# 3+3+3+3+3+3+3+3+3+3+3+3+3+3+3+3+3+3+3+3+3+3+3+3+3+3+3+3+3+3+3+3+3+3+3+3+3+3+4+5+. . . . "};
